<?xml version="1.0" standalone="no"?>
<!DOCTYPE svg PUBLIC "-//W3C//DTD SVG 20010904//EN"
 "http://www.w3.org/TR/2001/REC-SVG-20010904/DTD/svg10.dtd">
<svg version="1.0" xmlns="http://www.w3.org/2000/svg"
 width="700.000000pt" height="700.000000pt" viewBox="0 0 700.000000 700.000000"
 preserveAspectRatio="xMidYMid meet">
<metadata>
Created by potrace 1.11, written by Peter Selinger 2001-2013
</metadata>
<g transform="translate(0.000000,700.000000) scale(0.100000,-0.100000)"
fill="#000000" stroke="none">
<path d="M2660 6994 c-476 -61 -883 -142 -1111 -220 -622 -213 -1026 -542
-1265 -1032 -67 -138 -163 -422 -198 -587 -57 -272 -73 -583 -82 -1605 -10
-1073 13 -1425 121 -1846 115 -443 307 -778 587 -1024 321 -282 778 -475 1418
-599 369 -71 528 -81 1370 -81 842 0 1001 10 1370 81 1191 231 1765 696 2005
1623 95 372 125 723 125 1496 0 473 -17 1313 -30 1530 -22 358 -109 701 -254
1005 -296 622 -834 976 -1766 1165 -227 46 -374 66 -590 80 -156 10 -1634 22
-1700 14z m1411 -1533 c705 -110 1088 -457 1186 -1075 27 -165 26 -968 0
-1134 -75 -473 -304 -773 -727 -955 -185 -79 -434 -129 -730 -148 -170 -11
-699 -6 -747 7 l-23 6 0 -429 c0 -236 -2 -432 -5 -434 -2 -3 -232 38 -510 92
-277 53 -520 100 -540 103 l-35 7 0 1893 0 1894 70 26 c217 80 580 138 1030
165 80 5 314 8 520 6 324 -2 394 -5 511 -24z"/>
<path d="M3380 4514 c-97 -9 -218 -26 -283 -40 l-67 -16 2 -641 3 -642 74 -17
c193 -45 578 -58 701 -25 207 56 327 173 365 354 20 95 21 590 1 684 -20 90
-54 155 -114 211 -105 99 -208 129 -457 133 -99 1 -200 1 -225 -1z"/>
</g>
</svg>
