<?xml version="1.0" standalone="no"?>
<!DOCTYPE svg PUBLIC "-//W3C//DTD SVG 20010904//EN"
 "http://www.w3.org/TR/2001/REC-SVG-20010904/DTD/svg10.dtd">
<svg version="1.0" xmlns="http://www.w3.org/2000/svg"
 width="300.000000pt" height="300.000000pt" viewBox="0 0 300.000000 300.000000"
 preserveAspectRatio="xMidYMid meet">
<metadata>
Created by potrace 1.11, written by Peter Selinger 2001-2013
</metadata>
<g transform="translate(0.000000,300.000000) scale(0.100000,-0.100000)"
fill="#000000" stroke="none">
<path d="M1200 2744 c-89 -9 -295 -46 -359 -66 -280 -86 -447 -236 -525 -469
-52 -155 -58 -216 -63 -633 -5 -426 2 -556 43 -715 85 -335 299 -503 739 -582
119 -22 158 -24 465 -24 307 0 346 2 465 24 440 79 654 247 739 582 41 159 48
289 43 715 -4 304 -8 407 -21 473 -79 402 -290 588 -761 672 -102 18 -166 22
-420 24 -165 2 -320 1 -345 -1z m544 -649 c80 -21 170 -71 208 -114 78 -89
102 -192 96 -416 -4 -134 -8 -169 -27 -216 -46 -119 -118 -184 -250 -227 -65
-21 -102 -25 -248 -30 l-173 -5 0 -128 c0 -71 -4 -129 -8 -129 -5 0 -78 13
-163 30 -85 16 -155 30 -156 30 -2 0 -3 263 -3 585 l0 584 51 15 c45 14 135
28 254 40 91 9 361 -3 419 -19z"/>
<path d="M1393 1810 c-35 -5 -67 -12 -73 -15 -6 -4 -10 -81 -10 -200 0 -174 2
-194 18 -200 9 -5 78 -10 152 -12 126 -4 138 -3 180 19 25 13 55 39 68 58 22
33 23 43 20 152 -3 108 -5 118 -28 144 -14 14 -40 33 -59 41 -42 18 -185 25
-268 13z"/>
</g>
</svg>
