<?xml version="1.0" standalone="no"?>
<!DOCTYPE svg PUBLIC "-//W3C//DTD SVG 20010904//EN"
 "http://www.w3.org/TR/2001/REC-SVG-20010904/DTD/svg10.dtd">
<svg version="1.0" xmlns="http://www.w3.org/2000/svg"
 width="700.000000pt" height="700.000000pt" viewBox="0 0 700.000000 700.000000"
 preserveAspectRatio="xMidYMid meet">
<metadata>
Created by potrace 1.11, written by Peter Selinger 2001-2013
</metadata>
<g transform="translate(0.000000,700.000000) scale(0.100000,-0.100000)"
fill="#000000" stroke="none">
<path d="M2600 6989 c-242 -32 -672 -110 -835 -150 -201 -50 -473 -153 -645
-246 -495 -266 -800 -640 -968 -1188 -73 -235 -103 -407 -122 -680 -15 -220
-30 -971 -30 -1515 0 -792 25 -1110 116 -1475 242 -971 827 -1438 2090 -1669
331 -61 331 -61 1294 -61 963 0 963 0 1294 61 1155 211 1744 626 2016 1419
149 437 190 799 190 1710 0 824 -21 1566 -51 1775 -15 110 -83 379 -129 516
-54 157 -183 416 -267 534 -83 117 -279 316 -393 400 -314 231 -742 395 -1301
499 -244 46 -408 61 -779 71 -410 12 -1391 11 -1480 -1z m1380 -2097 c493 -89
761 -352 820 -802 16 -123 12 -688 -5 -803 -67 -447 -348 -703 -857 -784 -91
-15 -174 -18 -431 -18 l-317 0 0 -313 c0 -294 -1 -313 -17 -308 -20 6 -746
146 -756 146 -4 0 -6 622 -5 1383 l3 1382 80 27 c240 80 609 119 1095 113 225
-2 296 -6 390 -23z"/>
<path d="M3345 4199 c-33 -5 -81 -14 -107 -20 l-48 -11 0 -468 0 -468 48 -11
c150 -35 438 -43 533 -15 143 43 220 121 248 252 14 67 14 445 0 511 -21 100
-89 174 -195 213 -51 19 -83 22 -239 24 -99 1 -207 -2 -240 -7z"/>
</g>
</svg>
