<?xml version="1.0" standalone="no"?>
<!DOCTYPE svg PUBLIC "-//W3C//DTD SVG 20010904//EN"
 "http://www.w3.org/TR/2001/REC-SVG-20010904/DTD/svg10.dtd">
<svg version="1.0" xmlns="http://www.w3.org/2000/svg"
 width="700.000000pt" height="700.000000pt" viewBox="0 0 700.000000 700.000000"
 preserveAspectRatio="xMidYMid meet">
<metadata>
Created by potrace 1.11, written by Peter Selinger 2001-2013
</metadata>
<g transform="translate(0.000000,700.000000) scale(0.100000,-0.100000)"
fill="#000000" stroke="none">
<path d="M2640 6993 c-14 -2 -90 -13 -170 -24 -185 -26 -488 -81 -655 -119
-356 -82 -725 -246 -979 -436 -344 -259 -563 -592 -701 -1065 -104 -359 -121
-596 -131 -1814 -8 -929 7 -1277 67 -1595 214 -1119 795 -1629 2135 -1874 331
-61 331 -61 1294 -61 963 0 963 0 1294 61 940 172 1495 476 1818 996 178 287
304 688 353 1128 36 325 44 984 25 1925 -10 482 -21 716 -41 855 -15 111 -84
384 -130 518 -54 157 -183 415 -266 532 -85 120 -300 336 -418 418 -315 222
-735 381 -1275 481 -244 46 -405 60 -779 71 -320 9 -1388 12 -1441 3z m1422
-1532 c401 -62 675 -187 880 -399 170 -176 269 -392 315 -684 26 -165 26 -950
0 -1113 -48 -304 -152 -529 -324 -701 -226 -227 -532 -351 -993 -405 -115 -13
-782 -17 -862 -5 l-48 7 0 -430 c0 -408 -1 -431 -18 -431 -10 0 -252 45 -537
100 -286 55 -523 100 -527 100 -5 0 -8 852 -8 1894 l0 1894 123 40 c339 112
833 163 1517 157 292 -2 366 -6 482 -24z"/>
<path d="M3365 4513 c-76 -6 -200 -24 -268 -40 l-67 -15 2 -641 3 -641 44 -13
c161 -46 599 -65 734 -30 148 37 268 124 320 231 53 108 59 160 55 501 -4 298
-5 312 -27 370 -13 33 -38 79 -55 103 -58 83 -186 148 -336 172 -59 9 -309 11
-405 3z"/>
</g>
</svg>
