<svg width="64" height="64" viewBox="0 0 64 64" fill="none" xmlns="http://www.w3.org/2000/svg">
<path fill-rule="evenodd" clip-rule="evenodd" d="M0 32C0 6.4 6.4 0 32 0C57.6 0 64 6.4 64 32C64 57.6 57.6 64 32 64C6.4 64 0 57.6 0 32ZM19.9432 47.4342C21.9579 48.7804 24.3265 49.4989 26.7495 49.4989C29.9971 49.4956 33.1108 48.2041 35.4075 45.9079C37.7041 43.6117 38.9961 40.4982 39 37.2505C39.0004 34.8275 38.2823 32.4588 36.9364 30.4439C35.5906 28.4291 33.6775 26.8586 31.439 25.931C29.2006 25.0035 26.7373 24.7606 24.3608 25.233C21.9843 25.7055 19.8013 26.8721 18.0878 28.5852C16.3743 30.2984 15.2074 32.4813 14.7345 34.8577C14.2616 37.2341 14.5041 39.6974 15.4313 41.936C16.3584 44.1746 17.9286 46.088 19.9432 47.4342ZM43 49H49V15H15V21H43V49ZM23.2769 32.0534C24.3048 31.3666 25.5133 31 26.7495 31C28.4067 31.0017 29.9956 31.6607 31.1674 32.8326C32.3393 34.0044 32.9983 35.5933 33 37.2505C33 38.4868 32.6334 39.6952 31.9466 40.7231C31.2598 41.751 30.2836 42.5522 29.1415 43.0253C27.9993 43.4983 26.7426 43.6221 25.5301 43.381C24.3176 43.1398 23.2039 42.5445 22.3297 41.6703C21.4555 40.7962 20.8602 39.6824 20.6191 38.4699C20.3779 37.2575 20.5017 36.0007 20.9748 34.8586C21.4478 33.7164 22.249 32.7402 23.2769 32.0534Z" fill="white"/>
</svg>
