<svg width="65" height="64" viewBox="0 0 65 64" fill="none" xmlns="http://www.w3.org/2000/svg">
<path d="M18.9821 29.5571C18.3852 28.7496 17.2266 28.6092 16.4191 29.206C16.1733 29.3816 15.9978 29.6274 15.8574 29.8731L0.198523 61.261C-0.257901 62.1739 0.0931947 63.3325 1.04115 63.7889C1.28692 63.9293 1.6029 63.9995 1.88378 63.9995H23.7219C24.4592 63.9995 25.0911 63.5782 25.4071 62.9463C30.1118 53.256 27.2679 38.4047 18.9821 29.5571Z" fill="url(#paint0_linear)"/>
<path d="M30.498 1.01358C22.5281 13.2668 21.6153 28.7852 28.0754 41.9161L38.6785 62.9467C38.9945 63.5787 39.6264 64 40.3637 64H62.2369C63.2902 63.8947 64.0977 62.9818 63.9924 61.9285C63.9924 61.7179 63.9222 61.5072 63.852 61.3317L33.6929 1.01358C33.2716 0.135841 32.2183 -0.250363 31.3406 0.170951C30.9895 0.381608 30.6735 0.662483 30.498 1.01358Z" fill="#2684FF"/>
<defs>
<linearGradient id="paint0_linear" x1="27.6155" y1="34.3526" x2="11.046" y2="63.0615" gradientUnits="userSpaceOnUse">
<stop stop-color="#0052CC"/>
<stop offset="0.92" stop-color="#2684FF"/>
</linearGradient>
</defs>
</svg>
