<svg width="45" height="64" viewBox="0 0 45 64" fill="none" xmlns="http://www.w3.org/2000/svg">
<g clip-path="url(#clip0)">
<path d="M44.6512 12.5771L40.5833 58.852L22.2983 63.9996L4.06353 58.8593L0 12.5771H44.6512Z" fill="#264DE4"/>
<path d="M37.1009 55.9053L40.5772 16.3613H22.3257V60.065L37.1009 55.9053Z" fill="#2965F1"/>
<path d="M9.31543 33.5273L9.81643 39.2036H22.3255V33.5273H9.31543Z" fill="#EBEBEB"/>
<path d="M22.3253 22.0381H22.306H8.30859L8.81673 27.7145H22.3253V22.0381Z" fill="#EBEBEB"/>
<path d="M22.3257 54.1743V48.2685L22.3012 48.2751L16.0757 46.5681L15.6777 42.041H12.6527H10.0664L10.8495 50.9536L22.2999 54.1815L22.3257 54.1743Z" fill="#EBEBEB"/>
<path d="M10.5083 0H17.2786V2.875H13.3395V5.75H17.2786V8.625H10.5083V0Z" fill="white"/>
<path d="M18.6328 0H25.4031V2.5H21.464V3H25.4031V8.75H18.6328V6.125H22.5719V5.625H18.6328V0Z" fill="white"/>
<path d="M26.7573 0H33.5276V2.5H29.5885V3H33.5276V8.75H26.7573V6.125H30.6964V5.625H26.7573V0Z" fill="white"/>
<path d="M29.1894 39.2033L28.5406 46.5651L22.3062 48.2738V54.1793L33.7657 50.9542L33.8497 49.9952L35.1633 35.0513L35.2997 33.5271L36.3088 22.0381H22.3062V27.7145H30.1828L29.6742 33.5271H22.3062V39.2033H29.1894Z" fill="white"/>
</g>
<defs>
<clipPath id="clip0">
<rect width="44.6512" height="64" fill="white"/>
</clipPath>
</defs>
</svg>
