<svg width="43" height="64" viewBox="0 0 43 64" fill="none" xmlns="http://www.w3.org/2000/svg">
<g clip-path="url(#clip0)">
<path d="M10.6023 64.0003C16.4523 64.0003 21.2001 59.2217 21.2001 53.3337V42.667H10.6023C4.75224 42.667 0.00439453 47.4457 0.00439453 53.3337C0.00439453 59.2217 4.75224 64.0003 10.6023 64.0003Z" fill="#5ECB89"/>
<path d="M0.00439453 32.0007C0.00439453 26.1127 4.75224 21.334 10.6023 21.334H21.2001V42.6673H10.6023C4.75224 42.6673 0.00439453 37.8887 0.00439453 32.0007Z" fill="#9763F6"/>
<path d="M0.00439453 10.6667C0.00439453 4.77867 4.75224 0 10.6023 0H21.2001V21.3333H10.6023C4.75224 21.3333 0.00439453 16.5547 0.00439453 10.6667Z" fill="#E15A32"/>
<path d="M21.1997 0H31.7976C37.6476 0 42.3955 4.77867 42.3955 10.6667C42.3955 16.5547 37.6476 21.3333 31.7976 21.3333H21.1997V0Z" fill="#EE7A69"/>
<path d="M42.3955 32.0007C42.3955 37.8887 37.6476 42.6673 31.7976 42.6673C25.9476 42.6673 21.1997 37.8887 21.1997 32.0007C21.1997 26.1127 25.9476 21.334 31.7976 21.334C37.6476 21.334 42.3955 26.1127 42.3955 32.0007Z" fill="#55BBF8"/>
</g>
<defs>
<clipPath id="clip0">
<rect width="42.4" height="64" fill="white"/>
</clipPath>
</defs>
</svg>
