<svg width="64" height="63" viewBox="0 0 64 63" fill="none" xmlns="http://www.w3.org/2000/svg">
<path fill-rule="evenodd" clip-rule="evenodd" d="M20.4298 51.1815C20.3752 51.1815 20.3219 51.1802 20.2673 51.179H20.2584C20.2127 51.1777 20.167 51.1764 20.1225 51.1739H20.1187C20.0425 51.1701 19.9663 51.1663 19.8889 51.1599H19.8876C19.3225 51.1142 18.7448 50.9949 18.1708 50.7726L18.1657 50.7701L18.1606 50.7675C18.1416 50.7599 18.1225 50.7536 18.1048 50.746L18.1022 50.7447C18.0121 50.7079 17.9206 50.6685 17.8305 50.6266L17.8254 50.6241L17.819 50.6215C17.7987 50.6114 17.7797 50.6025 17.7594 50.5923C17.753 50.5898 17.7479 50.5872 17.7416 50.5847C17.7302 50.5783 17.7174 50.5733 17.706 50.5669L17.7022 50.5644C17.6984 50.5631 17.6959 50.5618 17.6921 50.5593L17.6844 50.5568C17.6756 50.5517 17.6667 50.5466 17.6565 50.5428L17.6514 50.539L17.6489 50.5377C17.3771 50.3993 17.1079 50.2355 16.8438 50.0437C16.8375 50.0387 16.8311 50.0336 16.8248 50.0285C16.7765 49.9929 16.7282 49.9561 16.68 49.9193C16.6698 49.9117 16.6609 49.9041 16.6508 49.8964L16.6432 49.8901L16.6356 49.8837C16.6267 49.8774 16.6178 49.8698 16.6102 49.8634C16.5975 49.8545 16.586 49.8444 16.5746 49.8342L16.5682 49.8304C16.5416 49.8075 16.5136 49.7847 16.4857 49.7606C16.4819 49.758 16.4768 49.7542 16.473 49.7504C16.4565 49.7352 16.44 49.7212 16.4235 49.7072C16.4171 49.7022 16.4121 49.6971 16.407 49.6933C16.2813 49.5828 16.1568 49.466 16.0349 49.3415C16.0298 49.3364 16.026 49.3314 16.021 49.3263C15.9511 49.2552 15.8813 49.1815 15.8127 49.1041C15.8025 49.0926 15.7924 49.0812 15.7809 49.0685C15.6959 48.972 15.6108 48.8717 15.5283 48.7675L15.5232 48.7599C15.5117 48.7472 15.5016 48.7333 15.4902 48.7193L15.4825 48.7104L15.4736 48.699C15.4711 48.6952 15.4686 48.6914 15.4648 48.6875L15.4559 48.6761L15.447 48.6634C15.4013 48.605 15.3568 48.5453 15.3124 48.4844L15.3111 48.4818C15.2997 48.4666 15.2883 48.4514 15.2768 48.4348C15.2578 48.4095 15.24 48.3841 15.2209 48.3574L15.2146 48.3472L15.2082 48.3396C15.193 48.3168 15.1778 48.2952 15.1625 48.2723L15.1562 48.2634C15.1422 48.2418 15.127 48.2202 15.113 48.1987L15.1092 48.1948L15.1003 48.1809L15.0927 48.1682L15.0851 48.1567C15.0787 48.1491 15.0736 48.1402 15.0686 48.1326C15.0635 48.125 15.0584 48.1174 15.0533 48.1098C15.0483 48.1009 15.0432 48.0933 15.0368 48.0844L15.0317 48.0755C15.0292 48.0717 15.0254 48.0666 15.0229 48.0628L15.014 48.0488C15.0089 48.0399 15.0025 48.031 14.9975 48.0222L14.9886 48.0095C14.986 48.0044 14.9835 47.9993 14.9797 47.9955L14.9721 47.9815L14.9695 47.979C14.9467 47.9422 14.9238 47.9053 14.9009 47.8685L14.8946 47.8583L14.887 47.8444L14.8781 47.8304C14.8667 47.8114 14.8552 47.7936 14.8438 47.7745L14.8362 47.7606L14.8273 47.7466C14.8248 47.7415 14.8222 47.7364 14.8184 47.7326L14.8121 47.7199C14.8057 47.7098 14.8006 47.6996 14.7943 47.6895L14.793 47.6869C14.7892 47.6806 14.7765 47.659 14.7562 47.6247L14.7524 47.6171C14.7321 47.584 14.7041 47.5383 14.6686 47.4837L14.6648 47.4774C14.6622 47.4736 14.6609 47.471 14.6584 47.4672L14.6559 47.4634C14.6356 47.4329 14.614 47.3999 14.5898 47.3656C14.5822 47.3529 14.5733 47.339 14.5632 47.3263C14.5505 47.306 14.5365 47.2856 14.5213 47.2641L14.5174 47.2602L14.5124 47.2526C14.3473 47.019 14.1098 46.7104 13.8025 46.3853L13.7949 46.3764C13.6984 46.2736 13.5943 46.1707 13.4851 46.0666C13.4724 46.0552 13.4609 46.0437 13.4483 46.0336C13.4241 46.0094 13.3987 45.9866 13.3733 45.9625C13.3657 45.9574 13.3594 45.951 13.353 45.9447C13.3276 45.9231 13.3022 45.9002 13.2768 45.8774L13.2743 45.8761L13.2641 45.866L13.259 45.8621C13.2463 45.8507 13.2336 45.8393 13.2209 45.8291C12.4133 45.1371 11.2997 44.4945 9.89649 44.3967C9.89649 44.3967 8.45904 44.3777 8.4438 44.986C8.4438 44.9948 8.4438 45.005 8.4438 45.0139C8.4438 45.0164 8.4438 45.019 8.4438 45.0202L8.44507 45.0241C8.44507 45.0304 8.44507 45.0367 8.44634 45.0444C8.44761 45.0558 8.44888 45.0659 8.45142 45.0774L8.45268 45.0812C8.45395 45.0901 8.45649 45.099 8.45776 45.1079C8.45903 45.1104 8.45904 45.1129 8.46031 45.1168C8.46538 45.1333 8.47046 45.1498 8.47681 45.1675C8.47808 45.1714 8.47936 45.1752 8.48063 45.179C8.48317 45.1841 8.48443 45.1879 8.4857 45.1917C8.49078 45.2018 8.49458 45.2133 8.49966 45.2247C8.50728 45.2399 8.51491 45.2552 8.5238 45.2717C8.53015 45.2831 8.5365 45.2945 8.54285 45.3047L8.54412 45.3072C8.54793 45.3136 8.55173 45.3199 8.55554 45.3275C8.56062 45.3339 8.56443 45.3415 8.56951 45.3479C8.57332 45.3542 8.5784 45.3606 8.58221 45.3682C8.58475 45.372 8.58729 45.3758 8.58983 45.3796L8.59237 45.3834C8.59872 45.3923 8.60633 45.4025 8.61395 45.4126L8.61649 45.4164C8.61903 45.4202 8.62158 45.424 8.62539 45.4279L8.62665 45.4304C8.62919 45.4329 8.63046 45.4355 8.633 45.438L8.63682 45.4431C8.64697 45.4558 8.6584 45.4698 8.66983 45.4837C8.67237 45.4888 8.67618 45.4939 8.67999 45.4977C8.68253 45.5002 8.6838 45.5028 8.68634 45.5041L8.68888 45.5091C8.69142 45.5117 8.69395 45.5142 8.69649 45.518C8.70919 45.5307 8.72063 45.5447 8.73332 45.5587L8.73587 45.5625C8.74222 45.5688 8.74855 45.5752 8.7549 45.5828C8.75998 45.5879 8.76506 45.5942 8.77141 45.6006L8.77522 45.6044C8.78157 45.6107 8.78665 45.6171 8.793 45.6234C8.79681 45.6272 8.79935 45.6298 8.80316 45.6336L8.80697 45.6374L8.81205 45.6425L8.81587 45.6475C8.83619 45.6679 8.8565 45.6869 8.87682 45.7072C8.87936 45.7098 8.88189 45.7123 8.88443 45.7148C8.90856 45.7377 8.93269 45.7606 8.95936 45.7834L8.9657 45.7898L8.97078 45.7936C8.97586 45.7999 8.98222 45.805 8.98856 45.8101C8.9911 45.8126 8.99491 45.8164 8.99745 45.819L9.0038 45.824C9.07364 45.8863 9.15237 45.951 9.23745 46.0183L9.2438 46.0221C9.24761 46.026 9.25142 46.0285 9.25523 46.031L9.26157 46.0361L9.26411 46.0387C9.27046 46.0425 9.27681 46.0475 9.28316 46.0526L9.28825 46.0564L9.29079 46.059C9.30349 46.0691 9.31618 46.0793 9.33014 46.0882C9.353 46.106 9.37714 46.1237 9.40126 46.1428C9.41015 46.1491 9.41903 46.1555 9.42665 46.1618C9.44189 46.172 9.45586 46.1821 9.4711 46.1936C9.53586 46.2406 9.60443 46.2888 9.67808 46.3383C9.67808 46.3383 9.71491 46.3561 9.78222 46.3942C9.78856 46.398 9.79617 46.4031 9.80379 46.4069L9.80888 46.4094L9.81396 46.4133L9.8165 46.4145C9.82412 46.4196 9.83173 46.4234 9.83935 46.4285C9.84951 46.4348 9.85967 46.4412 9.8711 46.4475C9.99681 46.525 10.1784 46.6482 10.3968 46.8272L10.4044 46.8336C10.4197 46.8463 10.4362 46.8602 10.4527 46.8729C10.4666 46.8856 10.4819 46.8983 10.4971 46.9123C10.9606 47.3085 11.5663 47.9396 12.1682 48.8983C12.2051 48.9568 12.2419 49.0164 12.2787 49.0761L12.2825 49.085L12.2927 49.1002L12.3016 49.1142C12.3079 49.1269 12.3156 49.1383 12.3219 49.1498L12.3295 49.1625C12.3333 49.1688 12.3359 49.1739 12.3397 49.179L12.3447 49.1879C12.3498 49.1967 12.3549 49.2056 12.36 49.2145L12.3676 49.2272L12.3702 49.231C12.4057 49.2945 12.4425 49.358 12.4794 49.4241L12.4882 49.4406C12.6317 49.6983 12.7727 49.9764 12.9098 50.2736C12.9149 50.285 12.92 50.2964 12.9251 50.3079C12.9454 50.3523 12.9657 50.3955 12.9848 50.4399L12.9898 50.4514C12.9936 50.459 12.9962 50.4653 12.9987 50.4717L13.0089 50.4933C13.0343 50.5504 13.0597 50.6101 13.0851 50.6698C13.0902 50.6812 13.0952 50.6926 13.099 50.7041C13.1422 50.8056 13.1841 50.9085 13.2248 51.0139C13.2248 51.0139 13.2908 51.2133 13.4559 51.5244L13.4584 51.5295C13.4711 51.5523 13.4838 51.5777 13.4978 51.6018L13.5016 51.6095C13.5143 51.6336 13.5283 51.6577 13.5435 51.6831L13.5473 51.6907C13.5638 51.7187 13.5803 51.7479 13.5981 51.7771C13.6082 51.7936 13.6184 51.8114 13.6286 51.8291L13.6349 51.8393L13.64 51.8469C13.6489 51.8609 13.6565 51.8736 13.6654 51.8863L13.6717 51.8977L13.6768 51.9053C13.6806 51.9117 13.6857 51.9193 13.6908 51.9269C13.7174 51.9688 13.7454 52.012 13.7746 52.0552C13.7809 52.0653 13.7886 52.0755 13.7949 52.0856C13.8902 52.2241 13.9981 52.3701 14.1213 52.5212L14.1276 52.5288L14.1327 52.5352C14.134 52.5364 14.1365 52.539 14.1378 52.5415L14.1441 52.5491L14.1479 52.5542C14.1924 52.6063 14.2381 52.6596 14.2851 52.7142C14.8222 53.3199 15.6019 53.9714 16.7067 54.4526C16.7295 54.4628 16.7511 54.4717 16.774 54.4818C16.8692 54.5225 16.9657 54.5606 17.066 54.5987L17.0736 54.6012C17.1549 54.6317 17.2387 54.6622 17.3238 54.6914L17.3378 54.6952C17.3429 54.6977 17.3467 54.699 17.3517 54.7002L17.3657 54.7053C17.3936 54.7142 17.4229 54.7244 17.4508 54.7333H17.4521L17.4673 54.7383C17.5054 54.7498 17.5448 54.7625 17.5841 54.7739L17.5981 54.779L17.6044 54.7815C17.7251 54.8171 17.8495 54.8514 17.9765 54.8831C18.0832 54.9098 18.1924 54.9352 18.3041 54.9593C18.3537 54.9695 18.4019 54.9796 18.4514 54.9898L18.4578 54.991L18.4743 54.9936C18.4806 54.9949 18.4857 54.9961 18.4908 54.9974L18.5073 54.9999C18.5213 55.0025 18.534 55.005 18.5479 55.0076C19.0063 55.0926 19.5016 55.1498 20.0362 55.1726H20.0413H20.0451C21.1752 55.2196 22.4819 55.1117 23.9892 54.7828C23.993 55.4876 23.9981 56.1809 24.0032 56.8336C24.0044 57.0672 24.007 57.2958 24.0082 57.5168C24.0121 57.9815 24.0159 58.4183 24.0197 58.8133V58.9009L24.021 59.0418C24.0235 59.2895 24.026 59.5371 24.0273 59.7834C24.0298 59.9968 24.0311 60.2088 24.0324 60.4209C24.0324 60.4996 24.0324 60.5771 24.0337 60.6558C24.0337 60.699 24.0337 60.7434 24.0324 60.7866C24.0311 60.8387 24.0273 60.8907 24.021 60.9415C23.9879 61.2234 23.8902 61.499 23.7213 61.7276C23.6895 61.7707 23.654 61.8126 23.6184 61.852C23.5384 61.9371 23.447 62.012 23.3492 62.0742C23.2235 62.1542 23.0851 62.2126 22.9416 62.2533C22.741 62.3091 22.5302 62.3282 22.3219 62.3218C22.2127 62.318 22.1048 62.3079 21.9968 62.2926C21.9638 62.2888 21.9295 62.2825 21.8965 62.2774C21.8876 62.2761 21.8775 62.2749 21.8686 62.2723C21.8686 62.2723 21.8508 62.2698 21.8495 62.2698C21.8495 62.2685 21.8127 62.2571 21.8127 62.2571C21.7822 62.2457 21.7505 62.2355 21.72 62.2253C21.64 62.1987 21.56 62.1707 21.4787 62.1428L21.461 62.1365C21.4546 62.1352 21.4483 62.1326 21.4419 62.1301L21.4241 62.1237C21.2273 62.0552 21.0305 61.9841 20.8349 61.9117L20.8171 61.9053C20.8044 61.9003 20.7917 61.8964 20.7803 61.8914L20.7765 61.8901C20.7562 61.8825 20.7359 61.8749 20.7143 61.8672L20.7067 61.8647C20.7003 61.8622 20.6952 61.8596 20.6889 61.8571L20.6711 61.8507C20.3664 61.7352 20.0641 61.6158 19.7644 61.4926L19.7454 61.485L19.7276 61.4774C19.6984 61.4647 19.6679 61.4533 19.6375 61.4406L19.6197 61.433C19.6083 61.4279 19.5968 61.4228 19.5841 61.4177L19.5663 61.4101L19.5524 61.405C19.4876 61.3771 19.4216 61.3491 19.3568 61.3212L19.3517 61.3187C19.334 61.311 19.3162 61.3034 19.2984 61.2958L19.2806 61.2882C19.2565 61.278 19.2324 61.2679 19.2083 61.2577L19.1905 61.2488L19.1727 61.2412L19.1549 61.2336C19.1498 61.2311 19.1435 61.2285 19.1371 61.226L19.1194 61.2184L19.1016 61.2107C19.061 61.1917 19.019 61.1739 18.9771 61.1549L18.9594 61.1472L18.9416 61.1396C18.9124 61.1269 18.8832 61.113 18.854 61.1003L18.8362 61.0926L18.8184 61.0837C18.7359 61.0469 18.6533 61.0088 18.5708 60.9707L18.553 60.9631C18.5479 60.9606 18.5416 60.958 18.5352 60.9555L18.5187 60.9466C18.3955 60.8895 18.2724 60.8323 18.1492 60.7726L18.1327 60.765C18.1264 60.7625 18.12 60.7587 18.1149 60.7561L18.0971 60.7485C17.7949 60.6025 17.4952 60.4514 17.1981 60.2965L17.1803 60.2876C17.1752 60.285 17.1689 60.2812 17.1638 60.2787L17.146 60.2698C16.821 60.0996 16.4984 59.9231 16.1797 59.7428L16.1632 59.7326C16.1581 59.7301 16.1517 59.7263 16.1467 59.7238L16.1302 59.7136C16.1238 59.711 16.1187 59.7072 16.1124 59.7034L16.0959 59.6945L16.0794 59.6844C16.0463 59.6653 16.0121 59.6463 15.979 59.6272L15.9625 59.6171C15.9562 59.6145 15.9511 59.6107 15.946 59.6082L15.9295 59.598L15.9117 59.5891C15.7962 59.5206 15.6794 59.452 15.5638 59.3834L15.5473 59.3733C15.5244 59.3593 15.5029 59.3466 15.4813 59.3326L15.4648 59.3237C15.4533 59.3161 15.4419 59.3098 15.4317 59.3034L15.4152 59.2933C15.3898 59.278 15.3657 59.2628 15.3403 59.2476L15.3327 59.2437L15.3162 59.2336C15.2502 59.193 15.1854 59.1523 15.1194 59.1117L15.1028 59.1015C15.0978 59.099 15.0927 59.0952 15.0863 59.0914L15.0698 59.0812C15.0597 59.0749 15.0483 59.0672 15.0381 59.0609L15.0216 59.0507L15.0051 59.0406C14.967 59.0164 14.9289 58.9923 14.8908 58.9695L14.8743 58.958C14.8209 58.9237 14.7663 58.8895 14.713 58.8552L14.6965 58.845C14.6749 58.831 14.6533 58.8171 14.6317 58.8031L14.6152 58.7929C14.6101 58.7891 14.6051 58.7853 14.5987 58.7815L14.5835 58.7714L14.567 58.7612C14.5289 58.7371 14.4921 58.7117 14.454 58.6876L14.4374 58.6774C14.4222 58.666 14.4057 58.6558 14.3892 58.6457C14.3689 58.6317 14.3473 58.6164 14.3257 58.6025L14.3092 58.5923C14.2876 58.5783 14.266 58.5631 14.2457 58.5491L14.2292 58.539L14.214 58.5288C14.1974 58.5174 14.181 58.5072 14.1657 58.4958L14.1479 58.4844L14.134 58.4742C14.1225 58.4679 14.1124 58.4603 14.1022 58.4539L14.0857 58.4425C14.0641 58.4285 14.0438 58.4133 14.0222 58.3993L14.0057 58.3891L13.9905 58.3777C13.9689 58.3637 13.9486 58.3485 13.927 58.3345L13.9105 58.3231C13.9054 58.3193 13.9003 58.3168 13.8952 58.313L13.8787 58.3015L13.8635 58.2914L13.847 58.2799C13.7162 58.1885 13.5841 58.0971 13.4533 58.0044L13.4381 57.993C13.433 57.9891 13.4279 57.9866 13.4228 57.9828L13.4076 57.9714C13.3441 57.9269 13.2819 57.8812 13.2197 57.8368L13.2044 57.8253L13.1981 57.8203C13.1778 57.8063 13.1587 57.7923 13.1397 57.7783L13.127 57.7682C13.1117 57.758 13.0952 57.7466 13.08 57.7352L13.0648 57.7237C13.0355 57.7022 13.0076 57.6818 12.9797 57.6603L12.9721 57.6552L12.9568 57.6437C12.4933 57.3009 12.04 56.9453 11.5968 56.5796L11.5816 56.5669L11.5676 56.5542C11.5574 56.5466 11.5473 56.5377 11.5371 56.5301L11.5232 56.5174C11.5079 56.506 11.494 56.4933 11.4787 56.4806L11.4635 56.4691C11.4495 56.4564 11.4343 56.4437 11.4203 56.4323C11.3657 56.3866 11.3124 56.3409 11.259 56.2952L11.2438 56.2837L11.2298 56.271C11.2057 56.2495 11.1816 56.2291 11.1574 56.2088L11.1422 56.1961C11.1371 56.1923 11.1321 56.1872 11.1282 56.1834L11.113 56.1707C11.099 56.158 11.0838 56.1466 11.0698 56.1339L11.0546 56.1212C10.9873 56.0628 10.92 56.0031 10.8527 55.9447L10.8387 55.932C10.8336 55.9269 10.8286 55.9231 10.8248 55.9193L10.8095 55.9066L10.7955 55.8939C10.7905 55.8901 10.7854 55.885 10.7803 55.8812L10.7663 55.8685C10.7549 55.8584 10.7435 55.8469 10.7321 55.8368C10.699 55.8088 10.6673 55.7796 10.6343 55.7504L10.6241 55.7403C10.5809 55.7022 10.5378 55.6641 10.4959 55.6247L10.4819 55.612C10.4717 55.6044 10.4628 55.5955 10.4527 55.5866L10.4387 55.5739C10.3067 55.4533 10.1759 55.3314 10.0451 55.2095L10.0387 55.2031C10.0311 55.1968 10.0235 55.1891 10.0171 55.1828L10.0032 55.1701C9.98412 55.1523 9.96633 55.1345 9.94729 55.1168L9.93332 55.1041L9.92571 55.0952C9.90412 55.0748 9.88253 55.0545 9.86095 55.0342L9.85078 55.0241C9.84189 55.0152 9.83173 55.0063 9.82284 54.9974L9.80888 54.9847L9.8 54.9758C9.6819 54.8628 9.56507 54.7485 9.44952 54.6329L9.43935 54.6228C9.43427 54.619 9.43046 54.6139 9.42538 54.6101L9.41142 54.5961C9.37078 54.5555 9.33015 54.5148 9.28952 54.4742L9.27682 54.4602L9.26919 54.4526C9.1765 54.3599 9.08506 54.266 8.99363 54.172L8.98094 54.1593C8.97713 54.1542 8.97205 54.1504 8.96824 54.1453L8.95428 54.1314C8.77777 53.9472 8.60253 53.7618 8.42856 53.5739L8.41586 53.5599L8.40317 53.546L8.39046 53.532L8.37776 53.5168C8.37268 53.513 8.36888 53.5079 8.3638 53.5028L8.3511 53.4888C8.34729 53.4837 8.34222 53.4799 8.33841 53.4748L8.32569 53.4609C8.31681 53.4507 8.30792 53.4418 8.3003 53.4329L8.28634 53.4177C8.27872 53.4088 8.26984 53.3987 8.26095 53.3898L8.24824 53.3758C8.23554 53.3618 8.22412 53.3479 8.21142 53.3352L8.19745 53.3187L8.18347 53.3047C8.15808 53.2755 8.13268 53.2476 8.10729 53.2184L8.09459 53.2044C8.07808 53.1853 8.0603 53.1663 8.04379 53.1472L8.0311 53.1333C8.02094 53.1218 8.01078 53.1104 8.00062 53.099L7.993 53.0901L7.9803 53.0749C7.96252 53.0558 7.94601 53.0368 7.92951 53.0177L7.91681 53.0037C7.913 52.9987 7.90792 52.9936 7.90411 52.9885L7.89396 52.9771C7.76317 52.8285 7.63364 52.6774 7.50665 52.5263L7.5003 52.5187C7.42665 52.4323 7.35554 52.3447 7.28316 52.2583L7.27174 52.2431C7.2184 52.1796 7.16507 52.1148 7.11301 52.0501L7.10158 52.0361C7.09269 52.026 7.08506 52.0158 7.07745 52.0056L7.06475 51.9904C7.02158 51.9358 6.97713 51.8812 6.93268 51.8266L6.92126 51.8114L6.90983 51.7961C6.85777 51.7314 6.80569 51.6653 6.7549 51.6006L6.74348 51.5853C6.70792 51.5396 6.67237 51.4939 6.63681 51.4482L6.62539 51.4329L6.61395 51.4177C6.60252 51.4025 6.58983 51.3872 6.57841 51.372L6.56697 51.3568L6.56442 51.3542C6.53268 51.3123 6.49966 51.2691 6.46792 51.2272L6.46285 51.2196L6.45268 51.2069C6.44633 51.198 6.43872 51.1891 6.43237 51.1802L6.42729 51.1739C6.42348 51.1688 6.41967 51.1637 6.41586 51.1587L6.40442 51.1434C6.40061 51.1383 6.39681 51.1333 6.393 51.1282L6.38157 51.1129L6.37015 51.0977C6.34348 51.0609 6.31682 51.0253 6.29015 50.9898L6.27871 50.9733L6.26729 50.958C6.25586 50.9428 6.24443 50.9276 6.233 50.9123L6.22157 50.8971L6.21015 50.8818C6.18348 50.845 6.15682 50.8095 6.13015 50.7726L6.11871 50.7574C6.10728 50.7422 6.09586 50.7269 6.08444 50.7104L6.07427 50.6952C6.02855 50.6329 5.98412 50.5707 5.9384 50.5085L5.92823 50.4933C5.83807 50.3675 5.75046 50.2418 5.66284 50.1148L5.65142 50.0996C5.64761 50.0945 5.6438 50.0895 5.63999 50.0844L5.62982 50.0679C5.6222 50.0577 5.61586 50.0463 5.60824 50.0361L5.59681 50.0209C5.58919 50.0095 5.58285 49.9993 5.57523 49.9891L5.56506 49.9726L5.55363 49.9574L5.54221 49.9409C5.51681 49.9041 5.49269 49.8672 5.46729 49.8304L5.45585 49.8139C5.44951 49.8037 5.4419 49.7923 5.43428 49.7822L5.42411 49.7656C5.41268 49.7504 5.40252 49.7339 5.39236 49.7187L5.38094 49.7021C5.37078 49.6856 5.35935 49.6704 5.34919 49.6539L5.34411 49.6463C5.32379 49.6158 5.30348 49.5853 5.28443 49.5561L5.27428 49.5421C5.26031 49.5206 5.24633 49.499 5.23236 49.4774L5.22221 49.4621L5.21078 49.4456C5.20824 49.4406 5.20442 49.4355 5.20062 49.4291L5.19046 49.4139L5.17777 49.3948C5.11554 49.2983 5.05206 49.2018 4.9911 49.1041L4.98093 49.0901L4.97078 49.0736C4.95427 49.0469 4.93649 49.019 4.91998 48.9923L4.90856 48.9758C4.85142 48.8844 4.79301 48.7917 4.73586 48.699L4.7257 48.6825C4.71935 48.671 4.71301 48.6596 4.70539 48.6494L4.69776 48.6367C4.69141 48.6253 4.68506 48.6152 4.67744 48.6037L4.6749 48.5999C4.65839 48.572 4.6419 48.5453 4.62539 48.5174L4.62157 48.5123C4.61142 48.4945 4.60126 48.478 4.5911 48.4615L4.58474 48.4514C4.57586 48.4348 4.5657 48.4183 4.55554 48.4018L4.54539 48.3853L4.53522 48.3688L4.52507 48.3523C4.51618 48.3358 4.50602 48.3193 4.49586 48.3028L4.48569 48.2863C4.48315 48.2812 4.47935 48.2748 4.47681 48.2698L4.46666 48.2533L4.45649 48.2367L4.44634 48.2202C4.43745 48.205 4.42856 48.1898 4.41967 48.1745L4.41713 48.1707C4.40062 48.1428 4.38412 48.1149 4.36888 48.0869L4.35871 48.0704L4.34856 48.0539C4.34602 48.0488 4.34221 48.0425 4.33967 48.0374L4.32951 48.0209C4.3257 48.0158 4.32316 48.0095 4.31935 48.0044L4.31045 47.9879C4.3003 47.9714 4.29014 47.9536 4.28125 47.9371L4.27491 47.9269C4.26221 47.9053 4.24951 47.8825 4.23554 47.8596C4.23046 47.8494 4.22538 47.8406 4.21903 47.8304L4.21395 47.8202C4.06029 47.5523 3.91046 47.2818 3.76443 47.0101L3.75553 46.9923L3.75046 46.9847C3.71872 46.925 3.68824 46.8653 3.6565 46.8069L3.64633 46.7879L3.63745 46.7701C3.61078 46.7193 3.58411 46.6672 3.55745 46.6164L3.54855 46.5987C3.54474 46.5936 3.54221 46.5872 3.53967 46.5822L3.53712 46.5771C3.49268 46.4907 3.44824 46.4044 3.4038 46.3167L3.39872 46.3066C3.38729 46.2825 3.37586 46.2596 3.36443 46.2367L3.35555 46.219C3.3238 46.1555 3.29205 46.092 3.26031 46.0285L3.25268 46.012C3.24887 46.0056 3.24634 45.9993 3.2438 45.9942L3.2349 45.9764L3.22602 45.9587L3.21839 45.9421L3.21458 45.9358C3.20061 45.9079 3.18792 45.8799 3.17395 45.852L3.1676 45.8368C3.15617 45.8139 3.14475 45.791 3.13332 45.7669L3.1257 45.7504L3.12188 45.7428C3.0749 45.6437 3.02792 45.5447 2.98093 45.4456L2.97585 45.4342C2.96823 45.4164 2.95935 45.3987 2.95173 45.3821L2.94285 45.3644C2.94031 45.358 2.93776 45.3517 2.93522 45.3466L2.92761 45.3288C2.92126 45.3174 2.91618 45.3047 2.9111 45.2933L2.90729 45.2856C2.89967 45.2704 2.89331 45.2539 2.88569 45.2387L2.87808 45.2234C2.85904 45.1815 2.84125 45.1409 2.8222 45.099L2.81459 45.0812L2.80569 45.0621L2.80063 45.0507C2.75364 44.9491 2.70919 44.8463 2.66474 44.7447L2.65586 44.7269C2.65078 44.7142 2.6457 44.7028 2.64062 44.6914L2.633 44.6736L2.62539 44.6545L2.61776 44.638L2.60888 44.6177L2.60761 44.6139C2.58348 44.5568 2.55807 44.5009 2.53395 44.4425L2.52506 44.4234C2.3384 43.9802 2.16061 43.5333 1.99299 43.0825L1.98792 43.0698C1.96507 43.0075 1.94093 42.9441 1.91808 42.8806L1.91174 42.8628C1.90793 42.8539 1.90538 42.845 1.90157 42.8361L1.89775 42.8259C1.87363 42.7586 1.84951 42.6914 1.82538 42.624L1.81902 42.605L1.81268 42.5872C1.79491 42.5377 1.77839 42.4882 1.76062 42.4387L1.75426 42.4209C1.73775 42.3714 1.72126 42.3218 1.70348 42.2723L1.69712 42.2532L1.69458 42.2444C1.68696 42.2228 1.67935 42.2012 1.67173 42.1783L1.66665 42.1606L1.66029 42.1428C1.65775 42.1364 1.65522 42.1301 1.65395 42.1237L1.6476 42.106C1.62093 42.0247 1.59426 41.9447 1.5676 41.8634L1.56378 41.8507C1.54855 41.8063 1.53458 41.7618 1.52061 41.7174C1.38728 41.3034 1.26284 40.8844 1.14602 40.4628L1.14347 40.4514C1.13967 40.4387 1.13586 40.4259 1.13205 40.4132L1.12697 40.3942C1.12062 40.3688 1.11299 40.3434 1.10664 40.318L1.10158 40.299L1.09649 40.2799C1.0876 40.2482 1.0787 40.2164 1.07108 40.1847L1.06729 40.1694C1.06475 40.1606 1.0622 40.1529 1.05966 40.144L1.05585 40.1275C1.03807 40.0628 1.02157 39.9993 1.00507 39.9358L1.00252 39.9231C0.998714 39.9066 0.993638 39.8913 0.989829 39.8748L0.986015 39.8596C0.961888 39.7631 0.937753 39.6679 0.913626 39.5713L0.912355 39.5612C0.909815 39.551 0.906013 39.5409 0.904744 39.5307C0.888236 39.4672 0.872999 39.4037 0.859031 39.3402L0.856489 39.3301C0.85141 39.3098 0.846331 39.2894 0.841252 39.2678L0.83998 39.2628C0.834901 39.2374 0.82855 39.212 0.822201 39.1853L0.818388 39.1663C0.815848 39.1599 0.814589 39.1536 0.813319 39.1472L0.809505 39.1282L0.804421 39.1066L0.800623 39.0926C0.796814 39.0748 0.792993 39.0583 0.789184 39.0406C0.766326 38.9402 0.743466 38.8387 0.721878 38.7383C0.71172 38.6888 0.701561 38.6393 0.690132 38.591L0.688877 38.5847C0.686337 38.572 0.68379 38.5593 0.68125 38.5453L0.678708 38.5364C0.654581 38.4221 0.631733 38.3079 0.608876 38.1936L0.606334 38.1758C0.605064 38.1694 0.60379 38.1618 0.602521 38.1555L0.597436 38.1364C0.591087 38.1034 0.584736 38.0717 0.579657 38.0387L0.578401 38.0361C0.550464 37.8875 0.522525 37.7377 0.495858 37.5891L0.492045 37.5675C0.426013 37.1929 0.365056 36.8158 0.312993 36.4387C0.259659 36.0666 0.213949 35.6932 0.174584 35.3186L0.173313 35.2983C0.172043 35.2844 0.17077 35.2717 0.1695 35.2577L0.166958 35.2374L0.164431 35.2183C0.164431 35.2107 0.16316 35.2044 0.16316 35.198L0.160618 35.1777C0.159348 35.1637 0.158074 35.151 0.156805 35.1371L0.154262 35.1167C0.151723 35.0901 0.149191 35.0634 0.146651 35.0367L0.14538 35.0164C0.144111 35.0088 0.144108 35.0025 0.142838 34.9961L0.141567 34.9758C0.135218 34.9148 0.130138 34.8551 0.125059 34.7942L0.122516 34.7739C0.121247 34.7599 0.119973 34.7472 0.118703 34.7332C0.106005 34.5859 0.0945892 34.4374 0.0844304 34.2888C0.0730018 34.1326 0.0628444 33.9764 0.0539555 33.819L0.0526844 33.7986C0.047605 33.725 0.0437831 33.6501 0.0399735 33.5752V33.5548C0.0387037 33.5472 0.038718 33.5409 0.038718 33.5345L0.0374469 33.5129C0.0349072 33.452 0.031089 33.391 0.0285493 33.3288V33.3085L0.0272782 33.2945C0.0196592 33.0952 0.0133069 32.8945 0.00822749 32.6939V32.6736C-0.00574078 32.0552 -0.00192009 31.4367 0.0196672 30.8183C0.053953 29.8113 0.136485 28.8056 0.266009 27.8063C0.511089 25.918 0.925056 24.0526 1.50283 22.2393C2.01839 20.6228 2.66348 19.0482 3.43046 17.5345C4.21395 15.9866 5.12443 14.5034 6.14793 13.104C7.2565 11.5878 8.49967 10.1707 9.85586 8.87163C11.2133 7.57258 12.6838 6.39163 14.247 5.34909C15.5054 4.50972 16.8235 3.76051 18.1873 3.10782C19.5219 2.47035 20.8997 1.9256 22.3105 1.47988C23.2438 1.18528 24.1911 0.93386 25.1473 0.725606C26.0845 0.522431 27.0305 0.362426 27.9816 0.24433C29.0178 0.116076 30.0578 0.0386202 31.1003 0.0106837C31.6933 -0.00455443 32.2864 -0.00329761 32.8781 0.0132103H32.9048C32.9645 0.01575 33.0241 0.0170261 33.0838 0.0195658L33.1092 0.0208368C33.8813 0.0487734 34.6508 0.103383 35.4191 0.185923C36.1848 0.268462 36.948 0.378936 37.7048 0.516078L37.7302 0.521147C37.7378 0.522417 37.7467 0.523691 37.7543 0.524961L37.7784 0.530045C37.8038 0.533854 37.8279 0.538932 37.8521 0.544011L37.8775 0.547825L37.9016 0.552893C38.2927 0.626544 38.6826 0.707818 39.0699 0.795438L39.094 0.801793C39.1105 0.804333 39.127 0.808137 39.1422 0.811946L39.1664 0.818302C39.1752 0.819571 39.1829 0.822101 39.1905 0.82337L39.2057 0.827184C39.2172 0.829723 39.2286 0.83227 39.2387 0.83481C39.32 0.853858 39.4 0.872899 39.48 0.891947C39.5041 0.898296 39.5283 0.903377 39.5524 0.909727L39.5765 0.914811C39.6565 0.935128 39.7365 0.955442 39.8165 0.97449L39.8406 0.98083L39.8648 0.987185L39.8889 0.99354C39.8965 0.99481 39.9041 0.997341 39.9118 0.99988L39.9359 1.00496C40.2064 1.07481 40.4768 1.14846 40.746 1.22592L40.7689 1.23227L40.793 1.23861C40.8565 1.25639 40.9187 1.27544 40.9822 1.29322L41.0051 1.30083L41.0292 1.30719C41.0533 1.31481 41.0762 1.32116 41.1003 1.32878L41.1232 1.33639C41.1397 1.3402 41.1549 1.34528 41.1702 1.35036L41.1943 1.35671C41.2172 1.36433 41.2413 1.37067 41.2641 1.37829L41.2883 1.38592C41.3353 1.39989 41.3822 1.41385 41.4292 1.42909L41.4521 1.43671C41.4597 1.43925 41.4686 1.44051 41.4762 1.44305L41.4991 1.45068C41.5067 1.45322 41.5143 1.45575 41.5232 1.45829L41.5461 1.46592C41.8572 1.5637 42.1683 1.66656 42.4768 1.77323C42.7841 1.88116 43.0902 1.9929 43.3937 2.10972L43.4165 2.11862C43.4241 2.12116 43.4318 2.12369 43.4394 2.1275L43.4622 2.1364C43.9613 2.32941 44.4565 2.53513 44.9454 2.75227C45.4394 2.97322 45.9283 3.2056 46.4108 3.45068L46.4324 3.46211C46.5327 3.5129 46.633 3.56496 46.7334 3.61702L46.7549 3.62846C46.854 3.68053 46.9543 3.73386 47.0534 3.78719L47.0749 3.79862C47.146 3.83671 47.2159 3.87481 47.287 3.91418L47.3086 3.9256L47.3289 3.93703C47.3568 3.95226 47.3861 3.9675 47.414 3.98401L47.4356 3.99545C47.4559 4.00688 47.4775 4.01829 47.4978 4.03099L47.5092 4.03735C47.5588 4.06402 47.607 4.09195 47.6565 4.11862L47.6667 4.12496C47.6807 4.13258 47.6946 4.14148 47.7086 4.1491L47.7289 4.16052C48.0438 4.33957 48.3549 4.52369 48.6635 4.7129L48.6775 4.7218C48.854 4.831 49.0305 4.94148 49.2045 5.05449L49.2134 5.05958C49.2261 5.06847 49.24 5.07608 49.254 5.08497L49.2743 5.09894C49.2807 5.10274 49.287 5.10655 49.2933 5.11163L49.3137 5.12433L49.334 5.13704C49.3416 5.14212 49.348 5.14592 49.3543 5.151L49.3746 5.1637C49.381 5.16751 49.3873 5.17258 49.3949 5.17639L49.4153 5.19036C49.4686 5.22465 49.5219 5.26021 49.5753 5.29577L49.5956 5.30973C49.6019 5.31354 49.6083 5.31862 49.6159 5.32243L49.6349 5.3364C49.6426 5.3402 49.6489 5.34528 49.6553 5.34909L49.6718 5.36053C49.6807 5.36561 49.6895 5.37196 49.6984 5.37704L49.7162 5.38973C49.8089 5.45196 49.9016 5.51418 49.9943 5.57767L50.0146 5.59163L50.0337 5.6056C50.4159 5.86846 50.793 6.14021 51.1638 6.41957C51.8915 6.96815 52.5962 7.54718 53.2743 8.15544C54.7791 9.50528 56.1569 10.9961 57.381 12.6037C58.515 14.0907 59.5169 15.678 60.374 17.3402C61.207 18.9567 61.9004 20.6443 62.4438 22.3789C62.9784 24.0843 63.3696 25.8355 63.6096 27.6069C63.7277 28.478 63.8102 29.3529 63.8572 30.2304C63.8826 30.7091 63.8965 31.1878 63.9016 31.6666V31.6933C63.9054 32.1974 63.8978 32.7015 63.8788 33.2069C63.8432 34.1199 63.7696 35.0317 63.6566 35.9396C63.4318 37.7479 63.0508 39.5371 62.52 41.2806C62.0311 42.8831 61.4153 44.4488 60.68 45.9548C59.927 47.4964 59.0496 48.9771 58.0591 50.3777C56.9746 51.9117 55.7543 53.3504 54.4184 54.671C53.0826 55.9917 51.6299 57.1955 50.0832 58.2634C49.127 58.9238 48.1353 59.532 47.113 60.0831C46.1061 60.6266 45.0699 61.1155 44.0108 61.5472C43.5841 61.7212 43.1524 61.8863 42.7181 62.0425C42.5759 62.092 42.4349 62.1415 42.2927 62.1898C42.2432 62.2076 42.1937 62.2241 42.1441 62.2406C42.1264 62.2469 42.1073 62.2533 42.0883 62.2596C42.0819 62.2609 42.0768 62.2634 42.0705 62.266C42.0667 62.266 42.0641 62.2672 42.0603 62.2672C42.054 62.2685 42.0476 62.2698 42.0413 62.271C42.026 62.2736 42.0108 62.2761 41.9956 62.2787C41.941 62.2888 41.8864 62.2964 41.8318 62.3028C41.6388 62.3269 41.4445 62.332 41.2514 62.3117L41.2438 62.3104C41.221 62.3079 41.1968 62.3053 41.174 62.3015L41.1664 62.3003C40.9619 62.2698 40.7854 62.2088 40.6343 62.1263C40.6305 62.125 40.628 62.1225 40.6241 62.1212C40.6165 62.1161 40.6076 62.1123 40.6 62.1072C40.5962 62.106 40.5937 62.1034 40.5911 62.1022C40.5645 62.0869 40.5403 62.0704 40.5162 62.0539C40.5086 62.0488 40.4997 62.0438 40.4934 62.0387L40.4883 62.0349C40.4832 62.031 40.4781 62.0272 40.473 62.0234L40.4679 62.0209C40.4641 62.0171 40.4591 62.0133 40.454 62.0095L40.4502 62.0069L40.4476 62.0044C40.4426 62.0006 40.4375 61.9968 40.4324 61.993C40.4235 61.9853 40.4134 61.9764 40.4032 61.9688L40.3981 61.965L40.3943 61.9612L40.3918 61.9587C40.3892 61.9561 40.3867 61.9536 40.3841 61.9523L40.3778 61.946L40.3752 61.9434C40.3714 61.9409 40.3676 61.9371 40.3638 61.9333L40.3613 61.932C40.36 61.9307 40.3587 61.9295 40.3575 61.9282L40.3549 61.9257C40.3473 61.9193 40.341 61.9117 40.3333 61.9053C40.3232 61.8939 40.3118 61.8837 40.3016 61.8736L40.2991 61.871L40.2978 61.8685C40.294 61.8647 40.2914 61.8622 40.2889 61.8583C40.2826 61.852 40.2762 61.8456 40.2699 61.8393L40.266 61.8342C40.2648 61.833 40.2648 61.8317 40.2635 61.8304C40.2572 61.8241 40.2508 61.8164 40.2445 61.8088C40.2318 61.7949 40.2203 61.7809 40.2089 61.7657C40.2076 61.7644 40.2064 61.7618 40.2051 61.7606C40.1987 61.7517 40.1924 61.7441 40.1873 61.7364C40.1797 61.7263 40.1721 61.7161 40.1657 61.706C40.153 61.6895 40.1429 61.673 40.1314 61.6564C40.1276 61.6501 40.1251 61.645 40.1213 61.6387C40.1187 61.6349 40.1162 61.6311 40.1137 61.6272C40.1124 61.6247 40.1111 61.6222 40.1099 61.6196L40.1073 61.6158C40.106 61.6145 40.1048 61.612 40.1048 61.6107L40.101 61.6069L40.0997 61.6031C40.0984 61.6006 40.0972 61.598 40.0959 61.5955C40.0819 61.5714 40.0679 61.5472 40.0552 61.5218C40.0514 61.5129 40.0464 61.5041 40.0426 61.4952L40.0413 61.4926C40.0311 61.471 40.021 61.4495 40.0121 61.4279C40.0083 61.4177 40.0045 61.4088 40.0007 61.3987C39.9956 61.3872 39.9918 61.3758 39.9867 61.3644C39.9841 61.358 39.9829 61.3517 39.9803 61.3441C39.9664 61.306 39.9537 61.2679 39.9435 61.2285L39.941 61.2222C39.9397 61.2158 39.9384 61.2095 39.9359 61.2031V61.2006C39.9333 61.193 39.9321 61.1853 39.9295 61.1777C39.9245 61.1574 39.9194 61.1358 39.9156 61.1155C39.9143 61.1091 39.913 61.1041 39.9118 61.0977C39.9041 61.0571 39.8965 61.0177 39.8914 60.9771C39.8902 60.9682 39.8889 60.958 39.8889 60.9491L39.8876 60.9415C39.8864 60.9263 39.8851 60.9111 39.8838 60.8971C39.8813 60.878 39.88 60.8603 39.8788 60.8425V60.8374C39.8788 60.8222 39.8775 60.8069 39.8775 60.7917V60.7866L39.8762 60.7815V60.7764C39.8762 60.7714 39.8762 60.7663 39.8762 60.7625V60.7574C39.8762 60.7549 39.8762 60.7536 39.8762 60.7523V60.7498C39.8762 60.7434 39.8762 60.7383 39.8762 60.732C39.8762 59.6793 39.913 56.2393 39.913 51.9637C39.913 51.8876 39.9118 51.8114 39.9105 51.7364V51.7212V51.7199C39.9092 51.6882 39.9092 51.6577 39.908 51.6272C39.9067 51.5612 39.9041 51.4964 39.9016 51.4304C39.894 51.2679 39.8851 51.1091 39.8711 50.9529V50.9428L39.8699 50.939C39.8597 50.812 39.847 50.6863 39.8318 50.5644L39.8305 50.5491L39.828 50.5339C39.828 50.5288 39.8267 50.5237 39.8267 50.5187L39.8241 50.5034C39.8216 50.4755 39.8178 50.4476 39.814 50.4196C39.8026 50.3307 39.7886 50.2418 39.7759 50.1555L39.7733 50.1402L39.7721 50.1339C39.7137 49.7707 39.6375 49.4291 39.5473 49.1079L39.5461 49.1041C39.5245 49.0279 39.5029 48.9517 39.4787 48.878C39.4622 48.8247 39.4457 48.7714 39.428 48.7193C39.4241 48.7091 39.4216 48.6977 39.4178 48.6875L39.414 48.6761L39.4114 48.671C39.4026 48.6444 39.3937 48.6164 39.3835 48.5898C39.381 48.5821 39.3784 48.5745 39.3759 48.5656C39.3683 48.5441 39.3594 48.5225 39.3518 48.5009C39.3353 48.4564 39.3187 48.4133 39.3022 48.3701L39.2997 48.3637L39.2972 48.3574C39.2895 48.3371 39.2819 48.318 39.2743 48.299L39.273 48.2939C39.2718 48.2901 39.2692 48.2863 39.2679 48.2825L39.2641 48.2748C39.254 48.2482 39.2438 48.2215 39.2324 48.1961L39.2298 48.191C39.2286 48.1872 39.2273 48.1834 39.2261 48.1796L39.221 48.1695C39.2184 48.1618 39.2159 48.1555 39.2121 48.1479C39.2045 48.1288 39.1956 48.1085 39.1867 48.0882L39.1829 48.078L39.1791 48.0691C39.1575 48.0221 39.1359 47.9752 39.1156 47.9282C39.0787 47.852 39.0419 47.7758 39.0051 47.7034L39.0026 47.6983C38.9721 47.6399 38.9416 47.5815 38.9111 47.5256C38.8934 47.4926 38.8743 47.4596 38.8553 47.4266C38.8514 47.4202 38.8489 47.4139 38.8451 47.4076L38.8413 47.4012L38.8375 47.3948C38.8273 47.3771 38.8172 47.3593 38.807 47.3428C38.7892 47.3136 38.7714 47.2844 38.7537 47.2552C38.7448 47.2412 38.7372 47.2272 38.7283 47.2133L38.7219 47.2044C38.7194 47.1993 38.7156 47.1942 38.7118 47.1879C38.7054 47.1764 38.6978 47.165 38.6902 47.1536C38.6838 47.1434 38.6762 47.132 38.6699 47.1218L38.6635 47.1129C38.6559 47.1015 38.6483 47.0901 38.6407 47.0787C38.6343 47.0685 38.628 47.0596 38.6216 47.0494L38.6152 47.0406C38.614 47.0368 38.6114 47.0342 38.6089 47.0317L38.6051 47.0241C38.5987 47.0164 38.5937 47.0088 38.5886 47.0012C38.5822 46.9923 38.5759 46.9821 38.5695 46.9733C38.5657 46.9682 38.5619 46.9631 38.5581 46.9568C38.5518 46.9491 38.5467 46.9403 38.5403 46.9326C38.5302 46.9187 38.5213 46.9047 38.5111 46.8907C38.5022 46.8793 38.4933 46.8679 38.4857 46.8552C38.4794 46.8475 38.473 46.8399 38.4667 46.831C38.4565 46.8171 38.4464 46.8031 38.4362 46.7891C38.4286 46.7802 38.4222 46.7714 38.4146 46.7625C38.2013 46.4844 37.9765 46.2469 37.7454 46.0475C44.8603 45.2564 52.3346 42.5542 52.3346 30.2812C52.3346 30.1961 52.3334 30.111 52.3321 30.0259C52.3295 29.8825 52.3257 29.739 52.3181 29.5967C52.3169 29.5625 52.3156 29.5269 52.313 29.4926L52.3118 29.4761C52.3118 29.4697 52.3118 29.4634 52.3105 29.4558V29.4418C52.3092 29.4202 52.308 29.3986 52.3067 29.3771L52.3054 29.3567C52.2978 29.2412 52.2889 29.1269 52.2787 29.0113L52.2775 29.0037L52.2762 28.9847L52.2737 28.9694C52.2673 28.8907 52.2584 28.8132 52.2508 28.7345C52.247 28.7015 52.2432 28.6672 52.2381 28.6342C52.2305 28.5643 52.2216 28.4945 52.2115 28.4247L52.2089 28.4056C52.1073 27.6628 51.9461 26.9529 51.7276 26.2748L51.7226 26.2583C51.7022 26.1948 51.6807 26.1313 51.6591 26.0678C51.6489 26.0374 51.6375 26.0069 51.6273 25.9764L51.6235 25.965L51.6184 25.951C51.5943 25.8812 51.5676 25.8101 51.5423 25.7402C51.5194 25.6793 51.4965 25.6183 51.4724 25.5586C51.4622 25.5345 51.4534 25.5104 51.4432 25.4863C51.4305 25.4545 51.4178 25.4228 51.4051 25.391C51.3924 25.3593 51.3784 25.3275 51.3657 25.2958C51.3619 25.2869 51.3581 25.278 51.3543 25.2678C51.3403 25.2361 51.3264 25.2031 51.3124 25.1713C51.2984 25.1383 51.2845 25.1066 51.2692 25.0736C51.2476 25.0253 51.2261 24.9771 51.2032 24.9288C50.6572 23.7402 49.9257 22.6672 49.047 21.7059C49.2476 21.2196 49.7251 19.8431 49.6896 17.8596C49.6832 17.4812 49.6578 17.0812 49.6083 16.6609C49.607 16.6545 49.607 16.6469 49.6057 16.6405L49.6032 16.6189L49.6019 16.6062C49.5943 16.5466 49.5867 16.4856 49.5778 16.4247C49.574 16.398 49.5702 16.3701 49.5664 16.3434C49.5524 16.2405 49.5359 16.1364 49.5181 16.031L49.5168 16.0272L49.513 16.0043L49.5092 15.9815L49.5067 15.9662C49.4788 15.8062 49.447 15.645 49.4127 15.4812L49.4102 15.4685C49.4089 15.4647 49.4076 15.4608 49.4076 15.457L49.4051 15.4456L49.4026 15.438C49.3911 15.3859 49.3797 15.3326 49.3683 15.2805L49.3657 15.2704L49.3632 15.2589C49.3518 15.2107 49.3403 15.1612 49.3276 15.1116C49.3251 15.1015 49.3226 15.0926 49.32 15.0824L49.3175 15.0697C49.3111 15.0443 49.3048 15.0189 49.2984 14.9936C49.2959 14.9834 49.2934 14.9732 49.2908 14.9631L49.287 14.9516L49.2845 14.9402L49.2819 14.9313C49.2807 14.9263 49.2794 14.9212 49.2781 14.9161L49.2769 14.9072C49.2718 14.892 49.268 14.8767 49.2641 14.8602C49.2591 14.8399 49.2527 14.8196 49.2476 14.7993C49.2451 14.7904 49.2426 14.7815 49.24 14.7713C49.2337 14.7459 49.2261 14.7205 49.2197 14.6951L49.2172 14.6875L49.2146 14.6786C49.2083 14.6545 49.2007 14.6291 49.193 14.6037C49.1918 14.5974 49.1905 14.5923 49.1892 14.5872L49.1867 14.5783L49.1829 14.5656L49.1791 14.5554C49.1689 14.5186 49.1588 14.4831 49.1473 14.4462L49.1461 14.4424C49.1296 14.3866 49.113 14.332 49.0953 14.2761C49.0927 14.2647 49.0889 14.252 49.0851 14.2405L49.0826 14.2354C49.0813 14.2316 49.08 14.2266 49.0788 14.2228L49.0749 14.2101L49.0737 14.2062C49.0597 14.1631 49.0457 14.1199 49.0318 14.0767C49.0254 14.0551 49.0178 14.0336 49.0102 14.012C49 13.9828 48.9911 13.9535 48.981 13.9243L48.9772 13.9116C48.9708 13.8951 48.9657 13.8786 48.9594 13.8621C48.9454 13.8202 48.9302 13.7783 48.9162 13.7364C48.8718 13.6145 48.8273 13.4913 48.7791 13.3681C48.7727 13.3504 48.7664 13.3339 48.76 13.3174C48.7575 13.3123 48.7549 13.3072 48.7537 13.3008L48.7486 13.2881L48.7448 13.2818C48.741 13.2716 48.7372 13.2602 48.7334 13.2501C48.7334 13.2501 48.713 13.2437 48.6711 13.2336H48.6661C48.2191 13.1358 45.5003 12.7675 39.9549 16.5262C39.7289 16.4628 39.5003 16.4031 39.2705 16.3447L39.2629 16.3434C39.2019 16.3282 39.141 16.3129 39.0813 16.2989C38.9314 16.2621 38.7803 16.2278 38.6305 16.1935L38.6241 16.1923L38.5924 16.1847L38.5822 16.1821C38.28 16.1148 37.9753 16.0526 37.6692 15.9942L37.6629 15.9929C37.5714 15.9751 37.4813 15.9586 37.3898 15.9421C37.1727 15.9028 36.9543 15.8659 36.7359 15.8316H36.7346C36.2038 15.7478 35.668 15.678 35.1308 15.6221H35.1257C35.0775 15.617 35.0305 15.612 34.9822 15.6069L34.9695 15.6056C34.9289 15.6018 34.8883 15.598 34.8476 15.5942H34.8438C34.8019 15.5891 34.76 15.5853 34.7181 15.5815C34.6978 15.5802 34.6762 15.5777 34.6546 15.5764L34.6229 15.5739C34.5708 15.5688 34.5175 15.5637 34.4641 15.5599L34.4324 15.5574L34.4006 15.5548L34.3689 15.5523C33.7772 15.5053 33.1829 15.4735 32.5873 15.4596C32.5632 15.4583 32.5391 15.4583 32.5137 15.457C32.327 15.4532 32.1391 15.4507 31.9511 15.4494C29.2362 15.4634 26.5022 15.8177 23.9537 16.5262C22.5733 15.5916 21.3682 14.911 20.3295 14.4196C20.2203 14.3688 20.1149 14.3193 20.0095 14.2723L20.0044 14.2697L19.993 14.2647C19.5473 14.064 19.1333 13.8977 18.7511 13.7631C18.7257 13.7529 18.6991 13.744 18.6737 13.7351C18.6076 13.7123 18.5429 13.6907 18.4794 13.6691L18.4692 13.6653C18.4616 13.6627 18.4552 13.6615 18.4476 13.6589L18.426 13.6513H18.4235C18.327 13.6196 18.233 13.5891 18.1403 13.5612H18.1378L18.1175 13.5548C18.0908 13.5472 18.0641 13.5396 18.0375 13.532C18.0159 13.5243 17.993 13.518 17.9702 13.5116C17.9524 13.5066 17.9359 13.5015 17.9181 13.4977C17.9067 13.4939 17.894 13.4901 17.8825 13.4875L17.8622 13.4812C17.8508 13.4786 17.8394 13.4748 17.8267 13.4723L17.8241 13.471L17.8127 13.4685C17.7289 13.4456 17.6463 13.424 17.5663 13.405L17.5638 13.4037C17.0914 13.2894 16.6914 13.2285 16.3625 13.1993L16.3613 13.198H16.3486C16.3359 13.1967 16.3244 13.1955 16.3117 13.1942H16.3067C16.2927 13.1929 16.2774 13.1916 16.2635 13.1904C16.2559 13.1904 16.2483 13.1891 16.2419 13.1891H16.2394L16.2279 13.1878C16.2216 13.1878 16.2152 13.1878 16.2102 13.1866C16.1759 13.1853 16.1429 13.1828 16.1111 13.1815H16.1022L16.0908 13.1802C16.087 13.1802 16.0832 13.1802 16.0794 13.1802H16.0692C16.04 13.1789 16.0121 13.1777 15.9841 13.1777C15.4305 13.165 15.1651 13.2501 15.1651 13.2501C14.3854 15.2297 14.1759 16.9758 14.214 18.3713C14.2152 18.4069 14.2165 18.4412 14.2165 18.4755C14.219 18.511 14.2203 18.5453 14.2216 18.5809C14.2216 18.5885 14.2216 18.5948 14.2229 18.6024C14.2241 18.6342 14.2254 18.6659 14.2279 18.6977C14.2343 18.817 14.2419 18.9326 14.2521 19.0456C14.2559 19.0901 14.2597 19.1345 14.2648 19.1777L14.266 19.1942C14.266 19.1993 14.2673 19.2043 14.2673 19.2094C14.2698 19.2297 14.2711 19.2488 14.2736 19.2678C14.2749 19.2755 14.2749 19.2831 14.2762 19.2907C14.28 19.325 14.2838 19.3593 14.2876 19.3935L14.2889 19.4012V19.405C14.3079 19.5624 14.3295 19.7135 14.3536 19.8583C14.3562 19.8748 14.3587 19.8913 14.3625 19.9091L14.3638 19.9231L14.3663 19.937C14.3689 19.9535 14.3727 19.9688 14.3752 19.9853L14.3765 19.9929L14.379 20.0069L14.3816 20.0209L14.3841 20.031C14.3905 20.0678 14.3968 20.1034 14.4032 20.139L14.4044 20.144C14.4095 20.1669 14.4133 20.1897 14.4184 20.2126L14.4197 20.2228L14.4222 20.2355L14.426 20.2482C14.4286 20.2672 14.4324 20.285 14.4362 20.3028C14.4501 20.365 14.4629 20.4259 14.4768 20.4844C14.4857 20.5263 14.4959 20.5656 14.5048 20.605C14.5086 20.6215 14.5136 20.6367 14.5174 20.6532C14.5225 20.6774 14.5289 20.7015 14.5352 20.7244C14.5365 20.7307 14.5378 20.7371 14.5403 20.7421L14.5429 20.7536C14.5632 20.8348 14.5848 20.911 14.6063 20.9834C14.6089 20.9935 14.6127 21.0037 14.6152 21.0139L14.6178 21.024L14.6203 21.0329C14.6571 21.1574 14.694 21.2704 14.7282 21.3694L14.7295 21.3707L14.7346 21.3859C14.7511 21.4342 14.7676 21.4786 14.7829 21.5193C14.7892 21.5383 14.7968 21.5574 14.8032 21.5751C14.8057 21.5828 14.8095 21.5904 14.8121 21.5967C14.8159 21.6056 14.8184 21.6145 14.8222 21.6234L14.826 21.6348C14.8349 21.6564 14.8438 21.6767 14.8514 21.697C14.8527 21.6996 14.8565 21.7034 14.8552 21.7059C14.854 21.711 14.8476 21.7148 14.8438 21.7199C14.84 21.7237 14.8349 21.7275 14.8311 21.7326C14.8032 21.7631 14.7765 21.7935 14.7486 21.8253C14.6343 21.9523 14.5225 22.0831 14.4133 22.2139C13.9676 22.7548 13.5638 23.3313 13.2121 23.9383C12.873 24.525 12.5822 25.1409 12.346 25.7783C12.1098 26.412 11.9282 27.0659 11.8013 27.7301C11.6908 28.299 11.6209 28.8767 11.5867 29.4558C11.5752 29.6501 11.5689 29.8431 11.5651 30.0374C11.5638 30.1542 11.5625 30.2723 11.5638 30.3891V30.4069C11.5638 30.4247 11.5638 30.4424 11.5638 30.4602V30.478C11.5676 31.005 11.5854 31.532 11.6184 32.0577L11.6197 32.0615C11.6463 32.4869 11.6844 32.8996 11.7314 33.2996L11.7327 33.311L11.734 33.3263L11.7365 33.3415L11.7378 33.3567L11.7403 33.372C11.7454 33.4139 11.7505 33.4545 11.7555 33.4964L11.7581 33.5117L11.7594 33.5269C11.7682 33.598 11.7784 33.6704 11.7886 33.7415L11.7898 33.7567L11.7924 33.772C11.7975 33.8063 11.8025 33.8418 11.8076 33.8774L11.8102 33.8926C11.8114 33.9078 11.814 33.9231 11.8165 33.9383L11.819 33.9523C11.8368 34.0717 11.8559 34.191 11.8749 34.3104L11.8775 34.3244C11.8787 34.3294 11.8787 34.3345 11.88 34.3396L11.8825 34.3548C11.932 34.6469 11.9892 34.939 12.0514 35.2285L12.0552 35.2425C12.0743 35.3301 12.0946 35.4177 12.1149 35.5053L12.1175 35.518C12.1263 35.5523 12.134 35.5853 12.1428 35.6196L12.1441 35.6285L12.1479 35.6412L12.1505 35.6552C12.1543 35.6691 12.1581 35.6831 12.1606 35.6958L12.1644 35.7098C12.1683 35.7237 12.1708 35.7364 12.1746 35.7504L12.1784 35.7644C12.1822 35.7821 12.1873 35.7999 12.1911 35.8177L12.1936 35.8279C12.2076 35.8786 12.2203 35.9282 12.2343 35.979L12.2368 35.9917L12.2394 36.0005C12.2406 36.0069 12.2432 36.0132 12.2444 36.0209L12.247 36.031C12.3028 36.2367 12.3625 36.4399 12.4247 36.6418L12.4286 36.6545C12.4311 36.6609 12.4324 36.6659 12.4336 36.671L12.4374 36.6799L12.4413 36.6926L12.4451 36.7053C12.4514 36.7269 12.459 36.7485 12.4654 36.7688L12.4692 36.7815C12.473 36.7942 12.4781 36.8069 12.4819 36.8196L12.4857 36.8323C12.4882 36.8399 12.4908 36.8488 12.4933 36.8564L12.4971 36.8679C12.5086 36.8996 12.5187 36.9326 12.5302 36.9644L12.5314 36.9694L12.5352 36.9821C12.5428 37.0025 12.5492 37.0228 12.5568 37.0431L12.5606 37.0558C12.5683 37.0761 12.5746 37.0977 12.5822 37.118L12.586 37.1294C12.5898 37.1383 12.5924 37.146 12.5949 37.1548L12.6 37.1663L12.6038 37.179C12.6076 37.1917 12.6127 37.2031 12.6165 37.2158L12.6203 37.2259C12.6724 37.3707 12.7257 37.5142 12.7816 37.6539L12.7854 37.664C12.7905 37.6767 12.7956 37.6894 12.8006 37.7021L12.8019 37.7072L12.807 37.7186C12.8159 37.7415 12.826 37.7656 12.8349 37.7885L12.84 37.7999C12.9987 38.1898 13.1752 38.572 13.3695 38.9453C13.56 39.3098 13.7695 39.6653 13.9955 40.0094L14.0019 40.0196L14.0082 40.0285C14.0235 40.0501 14.0375 40.0729 14.0527 40.0945L14.059 40.1034C14.0781 40.1314 14.0971 40.1605 14.1162 40.1885L14.1238 40.1987C14.134 40.2126 14.1428 40.2266 14.153 40.2418L14.1543 40.2431C14.1809 40.2812 14.2063 40.318 14.233 40.3548L14.2394 40.3637L14.2457 40.3726C14.2647 40.3993 14.2851 40.4272 14.3041 40.4539L14.3117 40.4628L14.3181 40.4729L14.3244 40.4818C14.3333 40.4933 14.3422 40.506 14.3511 40.5174L14.3574 40.5263L14.3714 40.544L14.3778 40.5529L14.3841 40.5618L14.3905 40.5707L14.3968 40.5796C14.4197 40.6101 14.4425 40.6393 14.4641 40.6685L14.4717 40.6774L14.4781 40.6863C14.4832 40.6926 14.487 40.6977 14.4921 40.704L14.4984 40.7129L14.5048 40.7218L14.5124 40.7307C14.5505 40.7802 14.5886 40.8285 14.6279 40.878L14.6355 40.8856L14.6419 40.8945C14.68 40.9415 14.7194 40.9898 14.7574 41.0355L14.76 41.0393L14.7676 41.0469C14.7778 41.0596 14.7879 41.0723 14.7981 41.0837L14.8032 41.0901L14.8095 41.0977C14.8717 41.1701 14.934 41.2425 14.9962 41.3136C15.0038 41.3225 15.0114 41.3301 15.019 41.339L15.0317 41.3529C15.1702 41.5079 15.3136 41.659 15.4609 41.805C15.7162 42.0602 15.9829 42.3028 16.261 42.5326C16.5632 42.7815 16.8768 43.0152 17.2006 43.2336C17.4368 43.3923 17.6768 43.5434 17.9232 43.6869C18.0971 43.7885 18.2724 43.885 18.4514 43.979C19.5562 44.558 20.7346 44.9872 21.9384 45.311C22.1149 45.358 22.2914 45.4037 22.4679 45.4456C22.7016 45.5028 22.934 45.5548 23.1676 45.6044C23.4495 45.664 23.7327 45.7187 24.0171 45.7695C24.3841 45.8355 24.7524 45.8926 25.1206 45.9447L25.1321 45.9472C25.1714 45.9523 25.2095 45.9574 25.2489 45.9625C25.5397 46.0031 25.8305 46.0399 26.12 46.0729C25.207 46.8704 24.379 48.2799 24.0921 50.3447C23.287 50.7053 21.9359 51.1815 20.4337 51.1815H20.4298ZM20.0044 52.1936C20.0044 52.1898 20.0044 52.186 20.0044 52.1822C20.0044 51.9168 20.3041 51.7009 20.6864 51.6933C20.8298 51.6907 20.9632 51.7187 21.0736 51.7695C21.0749 51.7707 21.0775 51.7707 21.0787 51.772L21.0825 51.7733C21.1244 51.7936 21.1638 51.8164 21.1981 51.8431L21.1994 51.8444L21.2032 51.8469L21.2044 51.8482C21.2095 51.852 21.2133 51.8545 21.2184 51.8583C21.2197 51.8596 21.221 51.8609 21.2222 51.8622L21.2248 51.8634C21.2527 51.8876 21.2768 51.9129 21.2971 51.9396L21.2997 51.9422L21.3022 51.9447L21.3048 51.9498L21.3073 51.9523L21.3098 51.9561C21.3289 51.9841 21.3454 52.0133 21.3568 52.0437C21.3568 52.0463 21.3581 52.0488 21.3594 52.0526C21.3606 52.0577 21.3619 52.0615 21.3632 52.0653L21.3644 52.0679C21.3657 52.0742 21.3683 52.0818 21.3695 52.0882V52.0907L21.3708 52.0933C21.3721 52.0983 21.3721 52.1034 21.3733 52.1072C21.3746 52.1123 21.3746 52.1174 21.3759 52.1225V52.1288V52.1314C21.3771 52.1364 21.3771 52.1402 21.3771 52.1453V52.1479V52.1504C21.3771 52.1529 21.3771 52.1568 21.3771 52.1593C21.386 52.4234 21.08 52.6418 20.7003 52.6469C20.6851 52.6469 20.6711 52.6469 20.6571 52.6469H20.6546C20.6394 52.6457 20.6241 52.6456 20.6089 52.6444H20.6064C20.5886 52.6431 20.5695 52.6406 20.5517 52.638H20.5492C20.5403 52.6368 20.5314 52.6355 20.5225 52.6342L20.5187 52.6329C20.506 52.6317 20.4933 52.6291 20.4819 52.6266H20.4806C20.4502 52.6203 20.4197 52.6114 20.3905 52.6025L20.3854 52.5999C20.3841 52.5999 20.3829 52.5999 20.3816 52.5987L20.3778 52.5974L20.3752 52.5961C20.3714 52.5949 20.3676 52.5936 20.3638 52.5923C20.3359 52.5822 20.3105 52.572 20.2851 52.5593L20.2825 52.5568C20.28 52.5555 20.2762 52.5542 20.2737 52.5529C20.2673 52.5491 20.261 52.5453 20.2546 52.5428C20.2521 52.5415 20.2508 52.5402 20.2482 52.539C20.2444 52.5364 20.2394 52.5339 20.2356 52.5314L20.2317 52.5288L20.2292 52.5275C20.2165 52.5199 20.2051 52.511 20.1924 52.5022C20.1898 52.5009 20.186 52.4983 20.1835 52.4958C20.1708 52.4869 20.1594 52.4768 20.1479 52.4679C20.1467 52.4666 20.1454 52.4653 20.1441 52.4641L20.1416 52.4615C20.139 52.459 20.1378 52.4577 20.1352 52.4552L20.1327 52.4526L20.1302 52.4501C20.0984 52.4196 20.0717 52.3866 20.0514 52.351C20.0248 52.3028 20.0083 52.252 20.0044 52.1974C20.0044 52.1961 20.0044 52.1948 20.0044 52.1936ZM22.4514 51.9739C22.4197 51.7161 22.6838 51.4621 23.047 51.3948C23.1105 51.3847 23.1727 51.3796 23.2324 51.3809C23.386 51.3821 23.5244 51.4215 23.6273 51.4888C23.6527 51.5053 23.6743 51.5231 23.6946 51.5421C23.7073 51.5536 23.7187 51.565 23.7302 51.5777V51.579C23.7378 51.5879 23.7454 51.5968 23.7518 51.6069C23.7606 51.6196 23.7695 51.6336 23.7771 51.6488L23.7784 51.6501C23.7784 51.6514 23.7784 51.6526 23.7797 51.6526V51.6552C23.7835 51.6615 23.7873 51.6691 23.7898 51.6755C23.7911 51.6793 23.7924 51.6818 23.7937 51.6856L23.7949 51.6882C23.7949 51.6907 23.7962 51.692 23.7962 51.6933C23.7975 51.6958 23.7987 51.6983 23.7987 51.7009L23.8 51.7034C23.8 51.7047 23.8 51.706 23.8013 51.7072V51.7098C23.8025 51.711 23.8025 51.7123 23.8025 51.7136C23.8063 51.7237 23.8089 51.7352 23.8102 51.7453C23.8559 52.0018 23.5917 52.266 23.2146 52.3371C23.0686 52.3637 22.9276 52.3548 22.8057 52.3193C22.7994 52.318 22.7943 52.3155 22.7879 52.3142L22.7841 52.313L22.7816 52.3117C22.7752 52.3104 22.7689 52.3079 22.7625 52.3053C22.76 52.3041 22.7562 52.3028 22.7524 52.3015C22.7371 52.2952 22.7206 52.2888 22.7067 52.2825L22.7029 52.2799H22.7016C22.6749 52.2672 22.6508 52.2533 22.6279 52.238C22.6267 52.2368 22.6241 52.2355 22.6216 52.2342L22.6203 52.233L22.6165 52.2291L22.614 52.2279L22.6127 52.2266C22.6038 52.2202 22.5949 52.2139 22.586 52.2063L22.5848 52.205C22.5822 52.2037 22.581 52.2012 22.5784 52.1999L22.5759 52.1974C22.5733 52.1949 22.5695 52.1923 22.5657 52.1885C22.5606 52.1847 22.5568 52.1796 22.5517 52.1745C22.5467 52.1694 22.5403 52.1631 22.5352 52.1567L22.534 52.1555L22.5327 52.153C22.52 52.139 22.5086 52.1225 22.4984 52.106C22.4971 52.1047 22.4959 52.1022 22.4933 52.0996V52.0983C22.4921 52.0971 22.4921 52.0958 22.4921 52.0958L22.4895 52.092L22.4883 52.0895L22.487 52.0869L22.4857 52.0856C22.4768 52.0679 22.4692 52.0514 22.4641 52.0323L22.4629 52.031C22.4591 52.0183 22.4565 52.0044 22.454 51.9917C22.4527 51.9891 22.4527 51.9879 22.4527 51.9853C22.4527 51.9841 22.4514 51.9815 22.4514 51.9803V51.9764V51.9739ZM17.4279 51.6983C17.4229 51.6552 17.4267 51.612 17.4394 51.5701C17.5016 51.3631 17.7568 51.2463 18.0489 51.2742C18.0527 51.2755 18.0578 51.2755 18.0629 51.2768H18.0654H18.0705C18.0756 51.278 18.0794 51.278 18.0844 51.2793C18.0883 51.2793 18.0933 51.2806 18.0971 51.2806L18.0997 51.2818H18.1035L18.1086 51.2831C18.1517 51.2894 18.1962 51.2996 18.2394 51.3136C18.3029 51.3326 18.3613 51.3568 18.4159 51.386L18.4171 51.3872L18.4209 51.3885C18.4679 51.4139 18.5124 51.4431 18.5517 51.4748L18.5543 51.4774L18.5568 51.4799L18.5606 51.4825L18.5632 51.485C18.567 51.4876 18.5708 51.4914 18.5746 51.4939L18.5784 51.4964L18.5809 51.499L18.5822 51.5015C18.5898 51.5079 18.5987 51.5155 18.6063 51.5231L18.6076 51.5244L18.6114 51.5282L18.6165 51.5333L18.6178 51.5345C18.6317 51.5485 18.6457 51.5637 18.6584 51.579C18.6597 51.5803 18.6609 51.5815 18.6622 51.584C18.6698 51.5929 18.6762 51.6018 18.6825 51.6095C18.6876 51.6171 18.6914 51.6234 18.6965 51.631H18.6978C18.7029 51.6387 18.7067 51.6463 18.7117 51.6539C18.7117 51.6552 18.713 51.6564 18.7143 51.6577L18.7156 51.6603L18.7168 51.664C18.7194 51.6679 18.7219 51.673 18.7244 51.6768C18.7282 51.6844 18.7321 51.6907 18.7359 51.6983C18.7371 51.7009 18.7371 51.7034 18.7384 51.706C18.76 51.7529 18.7727 51.8012 18.7752 51.8495C18.7765 51.8545 18.7765 51.8583 18.7765 51.8634C18.7765 51.899 18.7727 51.9333 18.7625 51.9688C18.7041 52.1555 18.4895 52.266 18.2343 52.266H18.233C18.1594 52.266 18.0819 52.2558 18.0032 52.2367L18.0019 52.2355C17.9968 52.2342 17.9917 52.233 17.9867 52.2317H17.9841C17.9778 52.2291 17.9714 52.2279 17.9638 52.2253C17.8813 52.1999 17.8038 52.1656 17.7365 52.1237L17.7352 52.1225C17.7175 52.1123 17.6997 52.1009 17.6832 52.0882C17.6806 52.0856 17.6781 52.0844 17.6755 52.0818C17.6641 52.0729 17.6527 52.0641 17.6413 52.0552L17.6387 52.0526C17.6184 52.0361 17.5981 52.0183 17.5803 51.9993L17.5778 51.9967C17.5714 51.9904 17.5651 51.9828 17.5587 51.9764C17.5562 51.9726 17.5536 51.9701 17.5511 51.9663L17.5486 51.9637C17.546 51.9612 17.5435 51.9587 17.5409 51.9561C17.5409 51.9536 17.5397 51.9523 17.5384 51.951L17.5346 51.946C17.5333 51.946 17.5333 51.9447 17.5321 51.9434L17.5308 51.9422C17.5283 51.9383 17.5244 51.9333 17.5219 51.9295C17.5194 51.9269 17.5181 51.9244 17.5168 51.9218C17.5079 51.9104 17.5003 51.899 17.4927 51.8863C17.4863 51.8761 17.48 51.8647 17.4749 51.8545C17.4597 51.824 17.447 51.7923 17.4394 51.7618C17.4381 51.7593 17.4381 51.758 17.4381 51.7568C17.4355 51.7491 17.4343 51.7415 17.433 51.7339L17.4317 51.7314C17.4305 51.7237 17.4292 51.7174 17.4292 51.711V51.7098C17.4292 51.7085 17.4279 51.7072 17.4279 51.706V51.7034C17.4279 51.7022 17.4279 51.7009 17.4279 51.6983ZM15.673 49.8812C15.6781 49.8812 15.6844 49.8812 15.6895 49.8825C15.7365 49.8837 15.7847 49.8914 15.833 49.9041H15.8343C15.8432 49.9066 15.8521 49.9091 15.861 49.9117C15.8724 49.9155 15.8851 49.9193 15.8965 49.9244C15.9232 49.9345 15.9511 49.946 15.9778 49.9587L15.979 49.9599C15.9841 49.9625 15.9892 49.965 15.9943 49.9675L15.9981 49.9701C16.0032 49.9726 16.0082 49.9752 16.0133 49.9777C16.0311 49.9879 16.0489 49.998 16.0654 50.0095C16.0794 50.0171 16.0921 50.026 16.1048 50.0361L16.1098 50.0387L16.1124 50.0412C16.1162 50.0437 16.12 50.0463 16.1238 50.0488C16.1276 50.0526 16.1327 50.0564 16.1365 50.059L16.1403 50.0615C16.1606 50.078 16.1797 50.0945 16.1987 50.1123L16.2025 50.1161L16.2063 50.1199C16.2089 50.1212 16.2102 50.1237 16.2127 50.125C16.2152 50.1288 16.219 50.1314 16.2229 50.1352L16.2254 50.1377C16.2317 50.1441 16.2394 50.1517 16.2457 50.158L16.2482 50.1606C16.2609 50.1745 16.2736 50.1885 16.2863 50.2025C16.3067 50.2266 16.3257 50.252 16.3435 50.2774L16.346 50.2812L16.3486 50.2837C16.3562 50.2964 16.3638 50.3079 16.3714 50.3206C16.3727 50.3231 16.374 50.3244 16.3752 50.3256C16.407 50.379 16.4324 50.4348 16.4502 50.4894C16.454 50.5009 16.4578 50.5123 16.4603 50.5237C16.4629 50.5314 16.4654 50.5403 16.4667 50.5491V50.5504C16.501 50.699 16.4756 50.8399 16.3816 50.9364C16.3143 51.0101 16.2165 51.0495 16.1073 51.052H16.1035C16.0997 51.052 16.0971 51.052 16.0933 51.052H16.0895C16.0121 51.052 15.927 51.0355 15.8432 51.0012C15.8229 50.9923 15.8013 50.9822 15.7809 50.972C15.7416 50.9517 15.7022 50.9276 15.6641 50.9009C15.6628 50.8996 15.6603 50.8983 15.659 50.8971C15.6451 50.8869 15.6324 50.8768 15.6197 50.8666C15.6171 50.8641 15.6146 50.8628 15.6121 50.8602L15.6095 50.8577C15.607 50.8564 15.6057 50.8552 15.6032 50.8526C15.6019 50.8514 15.6006 50.8501 15.5994 50.8488L15.5955 50.8463C15.5905 50.8412 15.5841 50.8361 15.5778 50.831C15.5765 50.8285 15.5752 50.8272 15.5727 50.826C15.5689 50.8221 15.5651 50.8183 15.56 50.8133H15.5587C15.5359 50.7917 15.5143 50.7701 15.4952 50.7472C15.4914 50.7434 15.4889 50.7409 15.4851 50.7371C15.4825 50.7345 15.4813 50.732 15.4787 50.7294L15.4762 50.7256C15.4724 50.7218 15.4686 50.7167 15.4648 50.7129C15.4571 50.7028 15.4482 50.6914 15.4406 50.6812L15.4394 50.6799L15.4368 50.6761L15.4356 50.6749C15.3606 50.572 15.3124 50.4615 15.2933 50.3561C15.2692 50.2177 15.2959 50.0882 15.3784 49.9967C15.4508 49.9193 15.5549 49.8812 15.673 49.8812ZM13.8013 48.5339C13.7771 48.3599 13.8254 48.2037 13.946 48.1212C14.0311 48.0615 14.139 48.0514 14.2495 48.0818H14.2521C14.2978 48.0945 14.3448 48.1148 14.3917 48.1402L14.393 48.1415C14.4044 48.1479 14.4171 48.1555 14.4286 48.1644C14.4311 48.1644 14.4324 48.1656 14.4349 48.1669L14.4387 48.1695C14.4425 48.172 14.4451 48.1745 14.4489 48.1771C14.4679 48.1898 14.487 48.205 14.5048 48.2202L14.5086 48.2241L14.5124 48.2266L14.5149 48.2279C14.5162 48.2291 14.5174 48.2304 14.5187 48.2317C14.5276 48.2393 14.5352 48.2469 14.5429 48.2545L14.5467 48.2583C14.5517 48.2621 14.5568 48.2672 14.5619 48.2723C14.5644 48.2748 14.5682 48.2787 14.5708 48.2812C14.5759 48.2863 14.5797 48.2914 14.5848 48.2964L14.586 48.2977C14.5898 48.3015 14.5924 48.3053 14.5962 48.3091L14.5987 48.3117L14.6013 48.3142C14.6025 48.3155 14.6038 48.3167 14.6051 48.318C14.614 48.3282 14.6228 48.3396 14.6305 48.3498C14.633 48.3536 14.6356 48.3561 14.6381 48.3587L14.6419 48.3637L14.6432 48.365C14.6444 48.3688 14.647 48.3714 14.6495 48.3752C14.6508 48.3764 14.6521 48.3777 14.6533 48.3802L14.6559 48.3828L14.6584 48.3866L14.6609 48.3891C14.6622 48.3917 14.6635 48.3942 14.6648 48.3967C14.6711 48.4044 14.6762 48.4133 14.6813 48.4209C14.6825 48.4247 14.6851 48.4272 14.6863 48.431L14.6889 48.4336L14.6901 48.4374C14.7054 48.4628 14.7194 48.4869 14.7308 48.5123C14.7333 48.5187 14.7371 48.525 14.7397 48.5314C14.7397 48.5326 14.7397 48.5339 14.7409 48.5339L14.7422 48.5377C14.7473 48.5491 14.7511 48.5593 14.7549 48.5707C14.7574 48.5758 14.7587 48.5796 14.7613 48.5847C14.7625 48.5885 14.7638 48.5923 14.7651 48.5949C14.7676 48.6025 14.7689 48.6088 14.7714 48.6152L14.7727 48.619C14.7828 48.652 14.7905 48.6837 14.7968 48.7168V48.7193C14.7968 48.7206 14.7968 48.7218 14.7981 48.7231V48.7256C14.7981 48.7269 14.7981 48.7282 14.7981 48.7294L14.7994 48.732C14.8006 48.7409 14.8019 48.7485 14.8019 48.7574C14.8044 48.7752 14.8057 48.7917 14.8057 48.8082C14.8108 48.9567 14.7613 49.085 14.6559 49.1587C14.6025 49.1955 14.539 49.2133 14.4717 49.2133H14.4705C14.4679 49.2133 14.4654 49.2133 14.4629 49.2133H14.4603C14.3879 49.2107 14.3105 49.1879 14.2343 49.1485L14.2317 49.1472C14.1721 49.1155 14.1136 49.0736 14.059 49.0215C14.0578 49.0202 14.0565 49.019 14.0552 49.0177C14.0362 48.9987 14.0184 48.9796 14.0006 48.9593L13.9981 48.9555L13.9955 48.9529C13.9943 48.9517 13.9917 48.9491 13.9905 48.9479C13.9879 48.9441 13.9854 48.9415 13.9828 48.939L13.9803 48.9352C13.9765 48.9301 13.9727 48.9263 13.9689 48.9212L13.9663 48.9174C13.9638 48.9136 13.96 48.9098 13.9575 48.906C13.9549 48.9021 13.9524 48.8983 13.9498 48.8945C13.9473 48.8907 13.9448 48.8869 13.9409 48.8831L13.9371 48.8768L13.9359 48.8742C13.9194 48.8488 13.9041 48.8234 13.8902 48.798L13.8876 48.7942L13.8863 48.7917C13.8825 48.784 13.8787 48.7777 13.8749 48.7701L13.8736 48.7663C13.8686 48.7561 13.8635 48.746 13.8597 48.7358L13.8571 48.732L13.8559 48.7282C13.8521 48.718 13.8482 48.7091 13.8444 48.699C13.8368 48.6799 13.8305 48.6622 13.8254 48.6431C13.8241 48.638 13.8228 48.6342 13.8216 48.6291C13.819 48.6215 13.8165 48.6126 13.814 48.6037V48.6012C13.814 48.5999 13.8127 48.5987 13.8127 48.5974C13.8102 48.5872 13.8089 48.5771 13.8063 48.5656C13.8063 48.5631 13.8051 48.5593 13.8051 48.5567L13.8038 48.5529V48.5491C13.8025 48.5441 13.8013 48.539 13.8013 48.5339ZM12.859 46.4323C12.8629 46.4323 12.8654 46.4323 12.8679 46.4323C12.873 46.4323 12.8768 46.4323 12.8819 46.4323C12.8857 46.4336 12.8908 46.4336 12.8946 46.4336H12.8984L12.9009 46.4348H12.9035H12.906C12.9073 46.4348 12.9073 46.4348 12.9086 46.4348L12.9111 46.4361C12.9175 46.4361 12.9238 46.4374 12.9289 46.4387H12.9327C12.934 46.4387 12.9352 46.4387 12.9352 46.4387L12.939 46.4399C12.9429 46.4412 12.9479 46.4412 12.9517 46.4425H12.9543C12.9568 46.4437 12.9581 46.4437 12.9606 46.445H12.9632C12.9682 46.4463 12.9733 46.4475 12.9771 46.4488C12.9809 46.4501 12.9848 46.4501 12.9886 46.4514L12.9898 46.4526C12.9975 46.4539 13.0051 46.4564 13.0114 46.459C13.0152 46.4602 13.019 46.4615 13.0229 46.4628C13.0305 46.4653 13.0368 46.4679 13.0444 46.4717C13.0584 46.4768 13.0711 46.4831 13.0851 46.4894C13.0914 46.492 13.0978 46.4958 13.1028 46.4983C13.1041 46.4983 13.1054 46.4996 13.1054 46.4996L13.1092 46.5009C13.1105 46.5022 13.1117 46.5034 13.113 46.5034C13.1155 46.5047 13.1181 46.506 13.1206 46.5085C13.1244 46.5098 13.127 46.5123 13.1308 46.5136L13.1321 46.5148C13.1346 46.5161 13.1384 46.5187 13.1409 46.5199C13.1422 46.5212 13.1435 46.5212 13.1448 46.5225C13.1765 46.5428 13.2082 46.5644 13.2387 46.591C13.24 46.5923 13.2413 46.5923 13.2425 46.5936L13.2463 46.5974C13.2476 46.5987 13.2489 46.5999 13.2514 46.6012C13.2527 46.6037 13.254 46.605 13.2565 46.6063C13.2578 46.6075 13.259 46.6088 13.2603 46.6101C13.2756 46.6241 13.2908 46.6393 13.3048 46.6545C13.3136 46.6634 13.3213 46.6723 13.3289 46.6812L13.3327 46.6863C13.334 46.6875 13.3352 46.6875 13.3352 46.6888L13.3403 46.6939V46.6952C13.3429 46.699 13.3454 46.7015 13.3479 46.7053C13.3492 46.7066 13.3505 46.7079 13.3517 46.7091C13.3606 46.7206 13.3695 46.732 13.3771 46.7447C13.3784 46.746 13.3797 46.7485 13.3809 46.7498C13.386 46.7561 13.3898 46.7625 13.3936 46.7675C13.3974 46.7739 13.4 46.779 13.4038 46.7853C13.4343 46.8348 13.4571 46.8869 13.4711 46.9377C13.4749 46.9491 13.4775 46.9606 13.48 46.9707C13.4813 46.9733 13.4813 46.9758 13.4813 46.9783C13.5105 47.1129 13.4838 47.2387 13.3962 47.3187C13.3073 47.3999 13.1701 47.4126 13.0305 47.3644C13.0292 47.3644 13.0267 47.3631 13.0254 47.3631C13.0152 47.3593 13.0063 47.3555 12.9962 47.3517H12.9949C12.9225 47.3212 12.8527 47.2755 12.7879 47.2158C12.7867 47.2145 12.7854 47.2133 12.7841 47.212C12.7765 47.2044 12.7689 47.1967 12.7613 47.1904C12.76 47.1879 12.7587 47.1866 12.7574 47.1853C12.7524 47.1802 12.7486 47.1752 12.7435 47.1701C12.7168 47.1422 12.694 47.1142 12.6736 47.0837C12.666 47.0736 12.6584 47.0621 12.6521 47.052C12.6508 47.0507 12.6495 47.0494 12.6495 47.0469L12.647 47.0444C12.647 47.0431 12.6457 47.0431 12.6457 47.0418L12.6444 47.0393C12.6254 47.0088 12.6101 46.9771 12.5974 46.9453C12.5962 46.9428 12.5949 46.9402 12.5936 46.9364L12.5924 46.9339C12.5924 46.9313 12.5911 46.9301 12.5911 46.9288L12.5898 46.925C12.5886 46.9225 12.5873 46.9199 12.5873 46.9174L12.586 46.9149C12.5848 46.9123 12.5847 46.9098 12.5835 46.9072C12.5822 46.9047 12.5822 46.9022 12.5809 46.8996L12.5797 46.8971V46.8933C12.5784 46.8907 12.5771 46.8869 12.5759 46.8831C12.5746 46.8768 12.5721 46.8704 12.5708 46.8653V46.8628L12.5695 46.8564L12.5682 46.8552C12.5682 46.8513 12.567 46.8463 12.5657 46.8425V46.8399C12.5644 46.8361 12.5632 46.831 12.5632 46.8272L12.5619 46.8221V46.8183C12.5594 46.8069 12.5581 46.7955 12.5568 46.7828C12.5479 46.6723 12.5784 46.5733 12.6495 46.506C12.7054 46.4564 12.7778 46.4323 12.8578 46.4323H12.859ZM11.2514 45.6412C11.2413 45.5904 11.2451 45.5383 11.2667 45.4926C11.32 45.3682 11.4775 45.3123 11.6514 45.3402H11.654L11.659 45.3415L11.6628 45.3428H11.6667C11.6717 45.3441 11.6768 45.3453 11.6819 45.3466C11.6844 45.3466 11.6857 45.3466 11.687 45.3479H11.6895C11.6959 45.3491 11.7009 45.3504 11.7073 45.3529H11.7111L11.7136 45.3542C11.72 45.3555 11.7251 45.3568 11.7314 45.3593C11.7467 45.3631 11.7606 45.3695 11.7759 45.3745L11.7784 45.3758C11.786 45.3783 11.7924 45.3809 11.7987 45.3847C11.8025 45.386 11.8063 45.3872 11.8089 45.3885C11.8114 45.3898 11.814 45.391 11.8178 45.3923L11.8228 45.3948C11.8241 45.3948 11.8254 45.3961 11.8279 45.3974C11.8368 45.4012 11.8444 45.405 11.8533 45.4101L11.8559 45.4113C11.8648 45.4164 11.8724 45.4202 11.8813 45.4253C11.9054 45.4393 11.9282 45.4558 11.9498 45.4723H11.9511C11.9549 45.4761 11.96 45.4799 11.9638 45.4837H11.9651C11.9701 45.4888 11.974 45.4926 11.979 45.4964L11.9828 45.5002L11.9854 45.5015C11.9879 45.5053 11.9917 45.5079 11.9955 45.5117L11.9981 45.5142C11.9994 45.5155 12.0006 45.5168 12.0019 45.518C12.0032 45.5193 12.0057 45.5218 12.007 45.5231C12.0184 45.5358 12.0298 45.5485 12.04 45.5612L12.0425 45.5637C12.0476 45.5701 12.0527 45.5777 12.0578 45.584C12.0654 45.5955 12.073 45.6069 12.0794 45.6183L12.0806 45.6209C12.0844 45.6272 12.087 45.6323 12.0895 45.6374L12.0908 45.6399C12.0921 45.6412 12.0921 45.6412 12.0921 45.6425C12.0933 45.645 12.0946 45.6475 12.0959 45.6501V45.6513C12.1314 45.7275 12.1365 45.8063 12.1022 45.8748C12.0375 46.0209 11.8216 46.0729 11.6108 45.9955C11.6082 45.9955 11.607 45.9942 11.6057 45.9942C11.6019 45.9929 11.5993 45.9917 11.5968 45.9904L11.5917 45.9879H11.5905C11.5867 45.9866 11.5828 45.9853 11.579 45.984C11.5778 45.9828 11.5765 45.9828 11.5752 45.9815L11.5701 45.979L11.5676 45.9777C11.5638 45.9764 11.5587 45.9739 11.5536 45.9714C11.5473 45.9688 11.5409 45.9663 11.5346 45.9625L11.5308 45.9612C11.5156 45.9536 11.5016 45.946 11.4876 45.9371L11.4851 45.9358C11.4609 45.9218 11.4368 45.9053 11.4152 45.8875C11.414 45.8863 11.414 45.8863 11.4127 45.8863C11.386 45.8634 11.3606 45.8393 11.339 45.8139C11.3022 45.7707 11.2756 45.7225 11.2603 45.6755C11.259 45.6729 11.259 45.6704 11.2578 45.6691C11.2565 45.6628 11.2552 45.6577 11.254 45.6513L11.2527 45.6488C11.2527 45.6475 11.2527 45.6476 11.2527 45.6463C11.2514 45.645 11.2514 45.6437 11.2514 45.6412Z" fill="white"/>
</svg>
