<svg width="64" height="64" viewBox="0 0 64 64" fill="none" xmlns="http://www.w3.org/2000/svg">
<path d="M58.1982 0H5.80175C2.5975 0 0 2.5975 0 5.80175V58.1982C0 61.4025 2.5975 64 5.80175 64H58.1982C61.4025 64 64 61.4025 64 58.1982V5.80175C64 2.5975 61.4025 0 58.1982 0Z" fill="#DC395F"/>
<path d="M21.3886 20.1359C23.5161 20.1359 25.2984 18.4684 25.2984 16.2829C25.2984 14.0989 23.5161 12.4316 21.3886 12.4316C19.2611 12.4316 17.4794 14.0989 17.4794 16.2829C17.4794 18.4681 19.2611 20.1359 21.3886 20.1359ZM13.2821 40.7659C13.0524 41.7434 12.9371 42.7989 12.9371 43.6599C12.9371 47.0527 14.7769 49.3049 18.6866 49.3049C21.9291 49.3049 24.5579 47.3794 26.4506 44.2702L25.2949 48.9084H31.7336L35.4136 34.1487C36.3336 30.4117 38.1159 28.4719 40.8184 28.4719C42.9456 28.4719 44.2679 29.7949 44.2679 31.9789C44.2679 32.6117 44.2104 33.3009 43.9804 34.0487L42.0829 40.8329C41.7954 41.8104 41.6809 42.7884 41.6809 43.7077C41.6809 46.9284 43.5776 49.2842 47.5449 49.2842C50.9371 49.2842 53.6391 47.1004 55.1341 41.8682L52.6046 40.8917C51.3396 44.3969 50.2471 45.0307 49.3846 45.0307C48.5221 45.0307 48.0621 44.4562 48.0621 43.3069C48.0621 42.7894 48.1776 42.2152 48.3496 41.5237L50.1899 34.9142C50.6496 33.3622 50.8224 31.9859 50.8224 30.7214C50.8224 25.7769 47.8324 23.1964 44.2104 23.1964C40.8184 23.1964 37.3684 26.2562 35.6439 29.4764L36.9084 23.6964H27.0774L25.6974 28.7874H30.2971L27.4646 40.1274C25.2404 45.0719 21.1546 45.1522 20.6419 45.0374C19.7999 44.8474 19.2614 44.5277 19.2614 43.4337C19.2614 42.8024 19.3764 41.8957 19.6639 40.8024L23.9764 23.6964H13.0524L11.6724 28.7874H16.2141L13.2824 40.7659" fill="white"/>
</svg>
