<svg width="28" height="45" viewBox="0 0 28 45" fill="none" xmlns="http://www.w3.org/2000/svg">
<path fill-rule="evenodd" clip-rule="evenodd" d="M18.7231 35.089L20.7451 37.6249C20.7451 37.6249 19.3363 38.7195 19.3346 38.7174L17.3022 36.186L18.7231 35.089Z" fill="#D6D5CE"/>
<path fill-rule="evenodd" clip-rule="evenodd" d="M6.75893 23.4037C6.36042 23.2718 5.82492 23.3207 5.4347 23.5926C5.3835 23.6307 5.28663 23.6225 5.25204 23.5926C5.23682 23.5817 4.43701 22.9496 4.43701 22.9496L8.79718 19.5986L9.23584 20.5298C9.25798 20.5761 9.24275 20.6644 9.1957 20.7079C8.90512 20.9648 8.70171 21.3224 8.6934 21.9096C8.69064 22.5255 9.09884 22.9387 9.24413 23.1318C8.9826 23.333 8.08732 24.0236 7.82441 24.2261C7.48124 23.7367 7.20312 23.5124 6.75893 23.4037Z" fill="#D6D5CE"/>
<path fill-rule="evenodd" clip-rule="evenodd" d="M19.569 40.1064C19.8126 40.3919 20.2484 40.4313 20.503 40.2383L21.9242 39.148C22.1788 38.9523 22.2687 38.5445 22.0279 38.2413L21.8218 37.9816C21.5741 37.6717 21.1562 37.6663 20.9016 37.8688L19.4805 38.9564C19.2231 39.1562 19.1608 39.5831 19.3587 39.84L19.569 40.1064Z" fill="#D6D5CE"/>
<path fill-rule="evenodd" clip-rule="evenodd" d="M15.3811 30.9084L17.7086 33.8203L16.2958 34.9051L14.2409 32.3426L15.3811 30.9084ZM10.1852 24.3506L13.8936 29.0188L12.7534 30.4544L8.7627 25.4408L10.1852 24.3506Z" fill="#D6D5CE"/>
<path fill-rule="evenodd" clip-rule="evenodd" d="M18.0366 33.9885L16.3594 35.2795C15.9702 35.5739 16.5637 36.344 16.969 36.039L18.6488 34.7512C19.0365 34.4528 18.4211 33.6926 18.0366 33.9885Z" fill="#D6D5CE"/>
<path fill-rule="evenodd" clip-rule="evenodd" d="M9.51928 23.2585L7.84206 24.5495C7.45091 24.8437 8.04637 25.6141 8.45167 25.309L10.1315 24.0212C10.5192 23.7228 9.90374 22.9626 9.51928 23.2585Z" fill="#D6D5CE"/>
<path fill-rule="evenodd" clip-rule="evenodd" d="M4.17588 22.7308L2.00201 21.0777C1.96741 21.0519 1.97711 20.9241 2.09888 20.9486C2.11964 20.9499 3.45909 21.0723 3.45909 21.0723L3.44941 20.1207C3.44526 20.0595 3.53797 19.9779 3.60301 19.9983C3.61269 19.9997 4.53565 20.2512 4.53565 20.2512L4.08316 18.2256C4.0624 18.1468 4.17035 18.0612 4.24783 18.0965C4.24922 18.0965 6.13111 19.0277 6.13111 19.0277L6.11589 18.0815C6.11035 18.0176 6.19752 17.9307 6.28331 17.9538C6.29438 17.9565 7.20489 18.2025 7.20489 18.2025L7.41384 16.8676C7.41937 16.7588 7.52037 16.7656 7.53836 16.786C7.54251 16.7928 8.67165 19.2629 8.67165 19.2629L4.17588 22.7308Z" fill="#D6D5CE"/>
<path fill-rule="evenodd" clip-rule="evenodd" d="M9.48193 35.0151L7.45916 37.5521C7.45916 37.5521 8.86878 38.6457 8.87049 38.6436L10.9017 36.1114L9.48193 35.0151Z" fill="#D6D5CE"/>
<path fill-rule="evenodd" clip-rule="evenodd" d="M21.3941 23.3982C21.7926 23.2663 22.3282 23.3153 22.7184 23.5872C22.7696 23.6252 22.8664 23.6171 22.901 23.5872C22.9162 23.5749 23.6856 22.97 23.6856 22.97L19.3337 19.5986L18.9172 20.5244C18.8951 20.5706 18.9103 20.659 18.9573 20.7011C19.2479 20.9594 19.4513 21.3169 19.4596 21.9028C19.4624 22.52 19.0542 22.9333 18.9089 23.1263C19.1704 23.3275 20.0657 24.0181 20.3286 24.2207C20.6718 23.7313 20.9499 23.507 21.3941 23.3982Z" fill="#D6D5CE"/>
<path fill-rule="evenodd" clip-rule="evenodd" d="M8.64196 40.0183C8.39843 40.3038 7.96255 40.3433 7.70794 40.1516L6.28685 39.06C6.03224 38.8656 5.9423 38.4577 6.18307 38.1532L6.38924 37.8949C6.63693 37.5836 7.0562 37.5795 7.3108 37.7807L8.73053 38.8683C8.9879 39.0695 9.05017 39.4963 8.85368 39.7533L8.64196 40.0183Z" fill="#D6D5CE"/>
<path fill-rule="evenodd" clip-rule="evenodd" d="M17.9508 24.3292L10.4224 33.7939L11.8315 34.8818L19.3703 25.4217L17.9508 24.3292Z" fill="#D6D5CE"/>
<path fill-rule="evenodd" clip-rule="evenodd" d="M10.1316 33.9203L11.8088 35.2113C12.1991 35.5066 11.6055 36.2767 11.1991 35.9708L9.51938 34.683C9.13166 34.3846 9.74821 33.6252 10.1316 33.9203Z" fill="#D6D5CE"/>
<path fill-rule="evenodd" clip-rule="evenodd" d="M18.6046 23.2561L20.2818 24.5471C20.671 24.8415 20.0775 25.6116 19.6711 25.3057L17.9924 24.0188C17.6047 23.7203 18.2202 22.9602 18.6046 23.2561Z" fill="#D6D5CE"/>
<path fill-rule="evenodd" clip-rule="evenodd" d="M23.9123 22.7682L26.1249 21.0771C26.1582 21.0512 26.1485 20.9234 26.0267 20.9479C26.006 20.9506 24.6665 21.073 24.6665 21.073L24.6762 20.1214C24.6803 20.0602 24.5876 19.9787 24.5226 19.9977C24.5129 20.0004 23.59 20.2519 23.59 20.2519L24.0424 18.225C24.0632 18.1461 23.9552 18.0619 23.8778 18.0972C23.8764 18.0972 21.9945 19.027 21.9945 19.027L22.0097 18.0822C22.0152 18.017 21.9281 17.93 21.8437 17.9545C21.8312 17.9558 20.9207 18.2033 20.9207 18.2033L20.7118 16.8683C20.7062 16.7582 20.6052 16.7663 20.5872 16.7854C20.5831 16.7921 19.4429 19.3315 19.4429 19.3315L23.9123 22.7682Z" fill="#D6D5CE"/>
<path d="M13.9993 44.7998C6.26834 44.7998 0 38.6448 0 31.052L0.0027533 14.7181L0.374989 14.7167L27.6278 14.7153L28 14.7167V31.0507C28 38.6435 21.7317 44.7998 13.9993 44.7998ZM13.9993 44.0687C21.3207 44.0687 27.2556 38.2398 27.2556 31.0507V15.4465L0.745822 15.4478L0.744437 31.052C0.744437 38.2412 6.67931 44.0687 13.9993 44.0687Z" fill="#D6D5CE"/>
<path d="M5.98163 13.2273C5.98163 13.2273 2.01583 2.70989 2.00891 2.70037C1.98816 2.45032 2.12653 2.48838 2.26767 2.54002L2.4254 2.61746C2.90418 2.85529 3.38987 3.01295 3.89494 3.14613C4.43044 3.26437 4.85941 3.3296 5.18044 3.82972C5.34095 4.13278 5.32574 4.36517 5.23995 4.709C5.21642 4.81228 5.31881 4.73753 5.36585 4.63016C5.75745 4.02948 6.04666 3.78077 6.87829 3.73184C7.58123 3.68971 8.16102 3.92485 8.46544 4.64649C8.68269 5.24717 8.45161 5.80572 7.90088 6.26642C7.80678 6.40504 7.78741 6.45531 7.81509 6.62383C7.82477 6.74206 8.12367 6.88203 8.23437 6.89155C8.33261 6.90106 7.48299 7.96791 6.65274 7.22181C6.50745 6.86983 6.49223 6.69994 6.55312 6.25962C6.58633 5.95928 6.02037 5.81794 5.88614 6.42541C5.70211 7.45826 6.21964 8.3525 6.88522 8.80913C7.48023 9.10675 8.27587 9.06597 8.74634 8.69496C9.00095 8.48023 9.1158 8.39056 9.16008 7.89588C8.90962 7.76133 8.73527 7.63902 8.65501 7.34683C8.50142 6.78284 8.7505 6.2963 9.32476 6.14409C9.89901 5.99324 10.4373 6.42542 10.4373 7.0098C10.4373 7.28024 10.2712 7.56971 10.101 7.75725C10.3515 8.47345 10.8358 8.45443 11.363 8.47482C12.0687 8.51287 13.1411 8.0576 13.1646 6.36563C13.1494 6.06121 12.899 4.98894 12.4548 4.96448C12.167 4.96719 12.0895 5.19143 12.2043 5.40207C12.2929 5.54477 12.3731 5.59641 12.369 5.93888C12.2016 6.73254 10.988 6.66188 10.9769 6.62927C11.666 5.62496 9.76755 5.43469 9.83812 4.24147C9.88932 3.38665 10.4234 3.07818 10.8773 2.93548C11.3672 2.81589 11.7961 2.85938 12.2099 3.07818C12.3358 3.1407 12.4063 3.20319 12.5655 3.35947C12.5821 3.38122 12.6513 3.4016 12.6167 3.3255C12.6056 3.29424 12.5793 3.24261 12.5309 3.13661C12.3607 2.75473 12.4326 2.25596 12.6859 1.90398C12.9889 1.50443 13.4303 1.08043 13.6393 0.622438C13.696 0.498768 13.8247 0.149507 13.9036 0.0502994C13.934 0.0244781 13.9672 0.00543605 14.0004 0C14.0364 0.00679506 14.0724 0.0285645 14.1056 0.0598218C14.1844 0.15903 14.3145 0.50147 14.3796 0.64009C14.5899 1.09808 15.0161 1.50443 15.3205 1.90398C15.5723 2.25596 15.6457 2.75473 15.4755 3.13661C15.4423 3.21543 15.3869 3.28203 15.3745 3.31329C15.3523 3.36493 15.398 3.36356 15.416 3.3391C15.6401 3.15564 15.6263 3.17331 15.7951 3.07818C16.2089 2.85938 16.6378 2.81589 17.129 2.93548C17.5829 3.07818 18.1157 3.38665 18.1669 4.24147C18.2374 5.43469 16.3403 5.62496 17.028 6.62927C17.017 6.66188 15.8048 6.73254 15.6374 5.93888C15.6319 5.59641 15.7135 5.54477 15.802 5.40207C15.9155 5.19143 15.8394 4.96719 15.5516 4.96448C15.106 4.98894 14.857 6.06121 14.8403 6.36563C14.8653 8.0576 15.9377 8.51287 16.642 8.47482C17.1692 8.45443 17.6535 8.47345 17.904 7.75725C17.7338 7.56971 17.5677 7.28024 17.5677 7.0098C17.5677 6.42542 18.106 5.99324 18.6816 6.14409C19.2559 6.2963 19.5049 6.78284 19.35 7.34683C19.2711 7.63902 19.0967 7.76133 18.8463 7.89588C18.8892 8.39056 19.0054 8.48023 19.26 8.69496C19.7291 9.06597 20.5261 9.10675 21.1198 8.80913C21.7867 8.3525 22.3042 7.45826 22.1202 6.42541C21.9846 5.81794 21.42 5.95928 21.4519 6.25962C21.5127 6.69994 21.4975 6.86983 21.3536 7.22181C20.522 7.96791 19.6724 6.90106 19.772 6.89155C19.8827 6.88203 20.1816 6.74206 20.1913 6.62383C20.2176 6.45531 20.1996 6.40504 20.1041 6.26642C19.5547 5.80572 19.3237 5.24717 19.5395 4.64649C19.8453 3.92485 20.4251 3.68971 21.1267 3.73184C21.9583 3.78077 22.2489 4.02948 22.6405 4.63016C22.6696 4.67365 22.7664 4.91828 22.8301 4.80004C22.7789 4.43039 22.6322 4.06889 22.8757 3.70603C23.1968 3.20591 23.5745 3.26437 24.11 3.14613C24.6165 3.01295 25.0579 2.87433 25.5367 2.6365L25.7401 2.54815C25.9061 2.43671 26.0652 2.43673 25.9974 2.70037C25.9905 2.70989 22.0247 13.2273 22.0247 13.2273H5.98163Z" fill="#D6D5CE"/>
</svg>
