<svg width="64" height="64" viewBox="0 0 64 64" fill="none" xmlns="http://www.w3.org/2000/svg">
<path d="M64 0H0V64H64V0Z" fill="#F7DF1E"/>
<path d="M42.992 50.0004C44.2812 52.1053 45.9584 53.6525 48.9247 53.6525C51.4166 53.6525 53.0085 52.407 53.0085 50.6861C53.0085 48.6239 51.373 47.8935 48.6301 46.6938L47.1266 46.0487C42.7868 44.1998 39.9038 41.8836 39.9038 36.9871C39.9038 32.4766 43.3405 29.043 48.7114 29.043C52.5351 29.043 55.2841 30.3738 57.265 33.8582L52.5818 36.8652C51.5507 35.0163 50.4384 34.2879 48.7114 34.2879C46.9498 34.2879 45.8334 35.4054 45.8334 36.8652C45.8334 38.6694 46.9509 39.3998 49.5312 40.5173L51.0347 41.1613C56.1445 43.3526 59.0296 45.5865 59.0296 50.6089C59.0296 56.0235 54.7761 58.9899 49.0639 58.9899C43.4786 58.9899 39.8702 56.3283 38.1046 52.8398L42.992 50.0004ZM21.7471 50.5216C22.6918 52.1978 23.5512 53.6149 25.6175 53.6149C27.5934 53.6149 28.8399 52.8418 28.8399 49.8359V29.3863H34.8538V49.9171C34.8538 56.1444 31.2028 58.9787 25.8735 58.9787C21.0583 58.9787 18.2697 56.4868 16.8516 53.4854L21.7471 50.5216Z" fill="black"/>
</svg>
