<svg width="62" height="64" viewBox="0 0 62 64" fill="none" xmlns="http://www.w3.org/2000/svg">
<path fill-rule="evenodd" clip-rule="evenodd" d="M39.3818 0.145962L3.86219 2.75968C0.998187 3.00757 0 4.87466 0 7.11296V45.9341C0 47.6783 0.62208 49.1691 2.1184 51.1616L10.4681 61.9868C11.8396 63.7299 13.0859 64.1028 15.7047 63.978L56.9534 61.4891C60.442 61.2414 61.44 59.6226 61.44 56.8853V13.2107C61.44 11.7956 60.8798 11.3869 59.2281 10.182C59.1373 10.1158 59.043 10.0471 58.9455 9.97568L47.6072 2.01254C44.8657 0.0225271 43.7436 -0.227883 39.3818 0.145962ZM16.64 12.4943C13.2723 12.7215 12.5071 12.7731 10.5946 11.2205L5.7312 7.36341C5.2352 6.86464 5.48395 6.24256 6.72939 6.11904L40.8774 3.63029C43.7429 3.3809 45.2382 4.37803 46.3603 5.24843L52.2174 9.47946C52.4668 9.60341 53.0888 10.349 52.3407 10.349L17.0748 12.4651L16.64 12.4943ZM12.7119 56.5114V19.4332C12.7119 17.8159 13.2105 17.0688 14.7051 16.9431L55.2068 14.5798C56.5807 14.4555 57.2028 15.3271 57.2028 16.9431V53.7728C57.2028 55.3916 56.9527 56.762 54.7087 56.8853L15.9516 59.1264C13.7086 59.2497 12.7119 58.5041 12.7119 56.5114ZM50.973 21.4221C51.2215 22.5431 50.973 23.6629 49.8492 23.789L47.9816 24.1608V51.5343C46.3603 52.4051 44.8653 52.903 43.6194 52.903C41.6247 52.903 41.1251 52.2803 39.6311 50.4149L27.4161 31.2533V49.7928L31.2813 50.6643C31.2813 50.6643 31.2813 52.903 28.163 52.903L19.5661 53.4014C19.3163 52.903 19.5661 51.6597 20.438 51.4106L22.6814 50.7893V26.2767L19.5665 26.0273C19.3167 24.9064 19.9388 23.2902 21.6849 23.1648L30.9075 22.5436L43.6194 41.9546V24.7829L40.3784 24.4113C40.1295 23.0408 41.1251 22.0459 42.3716 21.9223L50.973 21.4221Z" fill="white"/>
</svg>
