<svg width="64" height="64" viewBox="0 0 64 64" fill="none" xmlns="http://www.w3.org/2000/svg">
<path d="M24.3102 0.0536978C22.0289 0.284923 16.7485 1.23551 15.108 1.74934C7.93089 3.95882 3.65023 7.81255 1.65088 13.7987C0.317983 17.7809 0.164186 19.3481 0.0360228 30.0614C-0.0921407 41.0061 0.0872882 44.346 1.13823 48.4309C3.31701 57.0376 8.8024 61.3538 20.0808 63.3834C23.1311 63.9486 24.1308 64 32 64C39.8692 64 40.8689 63.9486 43.9192 63.3834C55.1976 61.3538 60.683 57.0376 62.8618 48.4309C63.9127 44.346 64.0921 41.0061 63.964 30.0614C63.8614 22.2512 63.7589 19.605 63.4257 17.9093C61.4007 7.58133 55.9922 2.8027 43.9192 0.644604C41.3047 0.182158 39.6642 0.0793936 33.1535 0.0280081C28.9241 -0.0233774 24.951 0.00231838 24.3102 0.0536978Z" fill="#15181D"/>
<path fill-rule="evenodd" clip-rule="evenodd" d="M15.108 1.74934C16.7485 1.23551 22.0289 0.284923 24.3102 0.0536978C24.951 0.00231838 28.9241 -0.0233774 33.1535 0.0280081C39.6642 0.0793936 41.3047 0.182158 43.9192 0.644604C55.9922 2.8027 61.4007 7.58133 63.4257 17.9093C63.7589 19.605 63.8614 22.2512 63.964 30.0614C64.0921 41.0061 63.9127 44.346 62.8618 48.4309C60.683 57.0376 55.1976 61.3538 43.9192 63.3834C40.8689 63.9486 39.8692 64 32 64C24.1308 64 23.1311 63.9486 20.0808 63.3834C8.8024 61.3538 3.31701 57.0376 1.13823 48.4309C0.0872882 44.346 -0.0921407 41.0061 0.0360228 30.0614C0.164186 19.3481 0.317983 17.7809 1.65088 13.7987C3.65023 7.81255 7.93089 3.95882 15.108 1.74934ZM2.03588 30.0854C1.90742 41.0557 2.09955 44.1405 3.07516 47.9326L3.07612 47.9363L3.07707 47.9401C4.08078 51.905 5.79376 54.7192 8.43579 56.8033C11.1272 58.9262 14.956 60.429 20.435 61.415L20.4401 61.4159L20.4452 61.4169C23.293 61.9446 24.1228 62 32 62C39.8772 62 40.707 61.9446 43.5548 61.4169L43.5599 61.4159L43.565 61.415C49.044 60.429 52.8728 58.9262 55.5642 56.8033C58.2062 54.7192 59.9192 51.905 60.9229 47.9401L60.9239 47.9363L60.9248 47.9326C61.9005 44.1404 62.0926 41.0557 61.9641 30.0853C61.8604 22.1826 61.7524 19.7664 61.4632 18.295L61.4631 18.2941C60.5055 13.4101 58.8015 10.0879 56.1152 7.71115C53.3925 5.30226 49.435 3.66266 43.5709 2.61404C41.1368 2.18351 39.6447 2.0793 33.1377 2.02795L33.1334 2.02791L33.1292 2.02786C28.8998 1.97648 25.0759 2.00454 24.4875 2.046C22.2639 2.27436 17.1628 3.20158 15.7058 3.65791L15.7012 3.65937L15.6965 3.66081C9.00895 5.71957 5.30396 9.17446 3.54787 14.4323L3.54746 14.4335C2.32641 18.0815 2.16426 19.3542 2.03589 30.0849" fill="white" fill-opacity="0.05"/>
<path fill-rule="evenodd" clip-rule="evenodd" d="M36.8334 31.5103C36.8334 33.5996 35.5529 34.8658 33.0013 34.8658C30.2194 34.8658 29.1693 34.4094 29.1693 34.4094V25.9344C29.1693 25.9344 30.2194 25.4794 33.0013 25.4794C35.5529 25.4794 36.8334 26.5247 36.8334 28.614V31.5103ZM33.0013 19C27.7625 19 24.091 19.4618 22 20.3813V45.6094L29.1693 47V41.2287C30.247 41.3398 31.2853 41.3291 33.0013 41.3291C40.3325 41.3291 44 38.2319 44 32.0243V28.2834C44 22.0958 40.3325 19 33.0013 19V19Z" fill="#F4F4F4"/>
</svg>
