<svg width="64" height="64" viewBox="0 0 64 64" fill="none" xmlns="http://www.w3.org/2000/svg">
<path d="M63 32C63 43.9446 60.9963 51.5895 56.2929 56.2929C51.5895 60.9963 43.9446 63 32 63C20.0554 63 12.4105 60.9963 7.70711 56.2929C3.00367 51.5895 1 43.9446 1 32C1 20.0554 3.00367 12.4105 7.70711 7.70711C12.4105 3.00367 20.0554 1 32 1C43.9446 1 51.5895 3.00367 56.2929 7.70711C60.9963 12.4105 63 20.0554 63 32Z" fill="#15181D" stroke="#31353A" stroke-width="2"/>
<path fill-rule="evenodd" clip-rule="evenodd" d="M38.3029 30.9417C38.3029 33.807 36.5264 35.5434 32.9863 35.5434C29.1266 35.5434 27.6696 34.9175 27.6696 34.9175V23.2947C27.6696 23.2947 29.1266 22.6706 32.9863 22.6706C36.5264 22.6706 38.3029 24.1042 38.3029 26.9695V30.9417ZM32.9863 13.7847C25.7179 13.7847 20.624 14.4179 17.7229 15.679V50.2775L27.6696 52.1847V44.2697C29.1649 44.4221 30.6055 44.4074 32.9863 44.4074C43.1576 44.4074 48.246 40.1599 48.246 31.6465V26.5161C48.246 18.0303 43.1576 13.7847 32.9863 13.7847V13.7847Z" fill="#F4F4F4"/>
</svg>
