<svg width="64" height="58" viewBox="0 0 64 58" fill="none" xmlns="http://www.w3.org/2000/svg">
<g clip-path="url(#clip0)">
<path d="M13.9355 1.89549L31.9355 0L49.9355 1.89549L63.871 20.5291L31.9355 57.5714L0 20.5291L13.9355 1.89549Z" fill="#FDB300"/>
<path d="M12.9355 20.5293L31.9355 57.5716L0 20.5293H12.9355Z" fill="#EA6C00"/>
<path d="M50.9354 20.5293L31.9353 57.5716L63.8708 20.5293H50.9354Z" fill="#EA6C00"/>
<path d="M12.9355 20.5293H50.9356L31.9356 57.5716L12.9355 20.5293Z" fill="#FDAD00"/>
<path d="M31.9356 0L13.9355 1.89546L12.9355 20.5291L31.9356 0Z" fill="#FDD231"/>
<path d="M31.9355 0L49.9356 1.89546L50.9355 20.5291L31.9355 0Z" fill="#FDD231"/>
<path d="M63.8711 20.5291L49.9355 1.89551L50.9356 20.5291H63.8711Z" fill="#FDAD00"/>
<path d="M0 20.5291L13.9354 1.89551L12.9355 20.5291H0Z" fill="#FDAD00"/>
<path d="M31.9356 0L12.9355 20.5291H50.9356L31.9356 0Z" fill="#FEEEB7"/>
</g>
<defs>
<clipPath id="clip0">
<rect width="64" height="57.6" fill="white"/>
</clipPath>
</defs>
</svg>
