<svg width="64" height="64" viewBox="0 0 64 64" fill="none" xmlns="http://www.w3.org/2000/svg">
<path d="M13.4923 40.4258C13.4923 44.1426 10.4883 47.1466 6.77155 47.1466C3.05476 47.1466 0.0507812 44.1426 0.0507812 40.4258C0.0507812 36.7091 3.05476 33.7051 6.77155 33.7051H13.4923V40.4258Z" fill="#E01E5A"/>
<path d="M16.853 40.4258C16.853 36.7091 19.857 33.7051 23.5738 33.7051C27.2906 33.7051 30.2946 36.7091 30.2946 40.4258V57.2278C30.2946 60.9445 27.2906 63.9485 23.5738 63.9485C19.857 63.9485 16.853 60.9445 16.853 57.2278V40.4258Z" fill="#E01E5A"/>
<path d="M23.5738 13.4415C19.857 13.4415 16.853 10.4376 16.853 6.72077C16.853 3.00398 19.857 0 23.5738 0C27.2906 0 30.2946 3.00398 30.2946 6.72077V13.4415H23.5738Z" fill="#36C5F0"/>
<path d="M23.5736 16.8525C27.2904 16.8525 30.2944 19.8565 30.2944 23.5733C30.2944 27.2901 27.2904 30.2941 23.5736 30.2941H6.72076C3.00398 30.2941 0 27.2901 0 23.5733C0 19.8565 3.00398 16.8525 6.72076 16.8525H23.5736Z" fill="#36C5F0"/>
<path d="M50.5078 23.5733C50.5078 19.8565 53.5118 16.8525 57.2286 16.8525C60.9454 16.8525 63.9493 19.8565 63.9493 23.5733C63.9493 27.2901 60.9454 30.2941 57.2286 30.2941H50.5078V23.5733Z" fill="#2EB67D"/>
<path d="M47.1471 23.5736C47.1471 27.2904 44.1431 30.2944 40.4263 30.2944C36.7096 30.2944 33.7056 27.2904 33.7056 23.5736V6.72077C33.7056 3.00398 36.7096 0 40.4263 0C44.1431 0 47.1471 3.00398 47.1471 6.72077V23.5736Z" fill="#2EB67D"/>
<path d="M40.4263 50.5078C44.1431 50.5078 47.1471 53.5118 47.1471 57.2286C47.1471 60.9454 44.1431 63.9493 40.4263 63.9493C36.7096 63.9493 33.7056 60.9454 33.7056 57.2286V50.5078H40.4263Z" fill="#ECB22E"/>
<path d="M40.4263 47.1476C36.7096 47.1476 33.7056 44.1436 33.7056 40.4268C33.7056 36.71 36.7096 33.7061 40.4263 33.7061H57.2792C60.9959 33.7061 63.9999 36.71 63.9999 40.4268C63.9999 44.1436 60.9959 47.1476 57.2792 47.1476H40.4263Z" fill="#ECB22E"/>
</svg>
