<svg width="64" height="45" viewBox="0 0 64 45" fill="none" xmlns="http://www.w3.org/2000/svg">
<path d="M47.4715 12.9922C47.4715 12.9922 42.2823 29.2901 41.8595 30.6354C41.7057 29.2517 37.9003 0 37.9003 0C29.0595 0 24.3315 6.3039 21.833 12.9538C21.833 12.9538 15.5291 29.2901 14.991 30.6739C14.9526 29.4054 14.03 13.1459 14.03 13.1459C13.4919 4.997 6.03483 0.0384379 0 0.0384379L7.3033 44.358C16.567 44.3195 21.564 38.0541 24.1778 31.4042C24.1778 31.4042 29.7514 16.9898 29.982 16.3363C30.0204 16.9514 33.9796 44.358 33.9796 44.358C43.2817 44.358 48.2787 38.4769 50.9694 32.0577L64 0.0384379C54.8132 0.0384379 49.97 6.30391 47.4715 12.9922Z" fill="#4057EE"/>
</svg>
