<svg width="109" height="42" viewBox="0 0 109 42" fill="none" xmlns="http://www.w3.org/2000/svg">
<path fill-rule="evenodd" clip-rule="evenodd" d="M107.325 20.1825C107.37 20.0168 107.396 19.9168 107.41 19.9053C107.791 19.5247 108.915 20.9566 108.679 22.1709C108.48 23.3491 106.613 28.3154 101.737 28.3154C98.9457 28.3154 96.2994 26.5029 95.1756 23.2585C93.6712 23.041 92.4387 22.4066 91.4962 21.5184C90.3362 25.1254 88.3968 28.3154 86.1492 28.3154C84.1555 28.3154 82.8323 26.7022 81.9986 24.491C81.4729 25.8141 79.896 28.3879 77.3404 28.3879C75.4372 28.3879 74.2591 26.9741 73.5341 24.9622C72.8634 26.3397 71.359 28.3879 69.0934 28.3879C67.1177 28.3879 65.7402 27.1373 64.8702 24.8172C64.2721 26.1947 62.8221 28.3879 60.3752 28.3879C58.4539 28.3879 56.732 26.8291 56.007 24.5816C55.9163 25.1072 54.4663 28.3335 52.0375 28.3335C50.2975 28.3335 48.3944 27.101 47.4519 24.5816C46.3281 26.2491 44.1168 28.3335 40.7637 28.3335C38.8243 28.3335 36.8124 27.4273 35.4348 25.6691C34.5467 26.8472 32.8248 28.3879 30.686 28.3879C27.2785 28.3879 25.8647 24.9441 25.8647 20.6484C25.8647 18.7836 26.0903 16.8757 26.2549 15.4834C26.3927 14.3181 26.4878 13.5139 26.3722 13.3983C26.2723 13.3095 25.6422 13.1732 25.0231 13.0391C24.6312 12.9543 24.2437 12.8705 23.9978 12.8002C23.4722 18.6728 20.989 29.1673 11.0383 29.1673C4.58568 29.1673 0 23.8203 0 17.1684C0 10.2445 4.94819 2.17881 11.6183 2.17881C15.7871 2.17881 17.7627 5.67698 17.7627 7.54388C17.7627 8.54077 17.4546 10.7158 15.1889 10.7158C13.5849 10.7158 13.4897 9.17968 13.3945 7.64357C13.2994 6.10746 13.2042 4.57134 11.6002 4.57134C9.04449 4.57134 5.09319 9.73703 5.09319 16.4252C5.09319 20.3947 7.01447 25.7235 12.2164 25.7235C19.1221 25.7235 21.6959 16.2621 21.6959 12.2564C20.2278 11.4046 20.119 10.0089 20.119 9.61016C20.119 9.2114 20.4271 7.56201 21.8953 7.56201C22.7653 7.56201 24.1247 8.06951 24.1247 10.2083C24.1247 10.462 24.1247 10.7339 24.1066 11.0239C24.466 11.0958 25.0117 11.1854 25.6327 11.2874C27.3606 11.5712 29.6719 11.9508 30.1785 12.3108C30.7041 12.6733 30.7041 13.2352 30.7041 13.5252C30.7041 13.7364 30.6325 14.2669 30.5341 14.9954C30.0836 18.3302 29.0727 25.8141 31.8098 25.8141C33.0061 25.8141 33.9123 24.9079 34.4742 24.0016C33.9667 22.8597 33.6586 21.5003 33.6586 19.9234C33.6586 14.5221 37.193 11.3321 40.4011 11.3321C42.2499 11.3321 44.7875 12.8002 44.7875 15.7727C44.7875 18.3103 42.9749 22.2797 38.4255 23.5666C39.1505 24.7991 40.2199 25.7779 41.688 25.7779C44.6425 25.7779 46.2556 23.2041 46.9081 21.6997C46.9081 21.5909 46.9036 21.4822 46.899 21.3734C46.8945 21.2647 46.89 21.1559 46.89 21.0472C46.89 16.389 50.225 11.2958 54.3757 11.2958C55.4632 11.2958 55.862 11.5858 55.862 11.5858C55.862 11.5858 55.9163 11.1146 56.007 11.0239C56.6232 10.4258 59.5776 12.1296 59.5776 12.9271C59.5776 13.208 59.5334 13.7589 59.4754 14.4808C59.1893 18.0449 58.5684 25.7779 61.2814 25.7779C62.9489 25.7779 63.8733 23.2403 64.1633 21.9716C63.8914 20.304 63.7464 18.3103 63.7464 16.0446C63.7464 13.5071 63.9096 10.8789 64.109 8.50452C62.5683 8.90327 61.1183 9.22953 59.6139 9.22953C57.0039 9.22953 56.9132 6.94575 57.6745 6.94575C59.8676 6.94575 62.097 6.56512 64.3446 6.11199C64.7071 2.72257 65.1421 0.275665 65.269 0.148788C65.9215 -0.485595 69.1478 1.0188 69.1478 2.57757C69.1478 3.13945 69.0753 4.06384 68.9484 5.24198C70.4709 5.00635 71.9934 4.8251 73.5341 4.8251C75.8541 4.8251 77.141 6.22074 77.141 7.70701C77.141 9.2114 76.2347 9.99079 75.2378 9.99079C74.3135 9.99079 73.0809 9.42891 73.0809 7.58013C73.0809 6.84775 71.7511 7.00194 70.5232 7.14431C70.414 7.15697 70.3056 7.16954 70.199 7.18138C69.6915 7.23575 69.2021 7.30825 68.7128 7.39888C68.6982 7.53005 68.6834 7.66276 68.6685 7.79688C67.8854 14.8351 66.6658 25.796 69.5828 25.796C71.4315 25.796 72.5916 23.4578 72.8816 22.0078C72.6822 20.6484 72.6097 19.1984 72.6097 17.839C72.6097 14.5583 72.8272 12.4558 73.1172 12.1658C73.8603 11.4046 76.9597 12.5283 76.9597 13.7246C76.9597 14.0218 76.9148 14.5959 76.8567 15.3387C76.5888 18.7641 76.0402 25.7779 78.3191 25.7779C80.1135 25.7779 81.0742 22.8778 81.2917 21.7541C80.8748 19.6697 80.7298 17.4403 80.7298 15.5371C80.7298 13.2171 80.7842 11.4408 81.0923 11.1327C81.7992 10.4439 85.0073 11.8214 85.0073 13.1446C85.0073 13.3588 84.9952 13.7338 84.9792 14.2239C84.8739 17.4663 84.6051 25.7416 86.6205 25.7416C88.3061 25.7416 89.6293 21.2828 90.0099 19.4522C89.3755 18.2378 89.0674 16.9146 89.0674 15.7365C89.0674 12.7277 89.9737 11.3502 91.0249 11.3502C92.8918 11.3502 93.055 15.2109 92.1487 19.2347C92.765 20.1772 93.6712 20.739 94.7225 21.0472C94.6681 20.594 94.6319 20.1228 94.6319 19.6334C94.6319 14.1777 98.565 11.3864 101.592 11.3864C103.441 11.3864 105.616 12.4739 105.616 15.519C105.616 18.129 103.984 21.9353 99.1269 23.0047C99.7975 24.3822 100.885 25.5422 102.426 25.5422C105.89 25.5422 107.021 21.3182 107.325 20.1825ZM40.1839 12.8896C42.214 12.8896 41.0177 20.5928 37.6645 21.8616C37.4108 21.046 37.2839 20.2485 37.2839 19.6322C37.2839 17.0222 38.317 12.8896 40.1839 12.8896ZM52.527 25.1238C48.9744 25.1238 51.4576 12.9255 54.3214 12.9255C56.2245 12.9255 55.9164 25.1238 52.527 25.1238ZM101.12 12.9443C103.077 12.9443 101.954 20.8832 98.528 21.4088C98.3649 20.7563 98.2743 20.1219 98.2743 19.6144C98.2924 17.0225 99.2712 12.9443 101.12 12.9443ZM32.7885 34.2581H33.9848C34.1298 34.2581 34.2385 34.3669 34.2204 34.4938V41.7076C34.2204 41.8526 34.0935 41.9614 33.9666 41.9614H32.7885C32.6435 41.9614 32.5347 41.8526 32.5347 41.7076V37.9919C32.5347 37.7563 32.3172 37.6657 32.1722 37.8469L30.5228 40.4932C30.4141 40.6201 30.2147 40.6201 30.1241 40.4932L28.5291 37.8651C28.3841 37.6657 28.1666 37.7744 28.1666 38.0101V41.7076C28.1666 41.8526 28.0397 41.9614 27.9128 41.9614H26.7528C26.6078 41.9614 26.499 41.8526 26.499 41.7076V34.4938C26.499 34.3488 26.6259 34.24 26.7528 34.24H27.9128C27.9853 34.24 28.0578 34.2944 28.1122 34.3488L30.1785 37.9376C30.2691 38.0644 30.3597 38.0644 30.4503 37.9376L32.5891 34.3488C32.6435 34.2944 32.716 34.2581 32.7885 34.2581ZM40.7273 38.9347H42.2861C42.4492 38.9347 42.5761 38.7716 42.5036 38.5903L41.7242 36.5241C41.6517 36.3247 41.3617 36.3247 41.2892 36.5241L40.5098 38.5903C40.4554 38.7535 40.5642 38.9347 40.7273 38.9347ZM42.3238 34.4055C42.2875 34.3149 42.1969 34.2605 42.1063 34.2605H40.8919C40.8013 34.2605 40.7106 34.3149 40.6744 34.4055L37.6837 41.6194C37.6112 41.7825 37.72 41.9637 37.9012 41.9637H39.1156C39.2062 41.9637 39.2969 41.9094 39.3331 41.8006L39.7862 40.5862C39.8225 40.4956 39.9131 40.4231 40.0037 40.4231H43.0669C43.1575 40.4231 43.2482 40.4775 43.2844 40.5862L43.7375 41.8006C43.7738 41.8912 43.8644 41.9637 43.955 41.9637H45.1513C45.3144 41.9637 45.4413 41.7825 45.3688 41.6194C45.3507 41.6194 42.3238 34.4055 42.3238 34.4055ZM65.287 34.8758L63.0939 37.6128C63.0395 37.7034 63.0395 37.8121 63.0939 37.9028C63.0939 37.9028 65.7039 41.5822 65.6858 41.6003C65.7945 41.7634 65.6858 41.9809 65.5045 41.9809H64.1451C64.0726 41.9809 64.0001 41.9266 63.9639 41.8722L62.1695 39.2259C62.0789 39.099 61.8976 39.0809 61.807 39.2078L60.8826 40.3678C60.8464 40.404 60.8282 40.4584 60.8282 40.5128V41.7272C60.8282 41.8541 60.7195 41.9628 60.5926 41.9628H59.5051C59.3782 41.9628 59.2695 41.8541 59.2695 41.7272V34.7308C59.2695 34.604 59.3782 34.4952 59.5051 34.4952H60.5926C60.7195 34.4952 60.8282 34.604 60.8282 34.7308V37.6128C60.8282 37.8303 61.1182 37.939 61.2451 37.7578L63.7101 34.5858C63.7464 34.5315 63.8189 34.4952 63.8914 34.4952H65.1058C65.3052 34.4952 65.4139 34.7308 65.287 34.8758ZM75.8356 40.5133H72.2469C72.1019 40.5133 71.975 40.3864 71.975 40.2414V39.1539C71.975 39.0089 72.1019 38.882 72.2469 38.882H74.6575C74.8025 38.882 74.9294 38.7551 74.9294 38.6101V37.7945C74.9294 37.6495 74.8025 37.5226 74.6575 37.5226H72.2469C72.1019 37.5226 71.975 37.3957 71.975 37.2507V36.1995C71.975 36.0545 72.1019 35.9276 72.2469 35.9276H75.5819C75.7269 35.9276 75.8538 35.8007 75.8538 35.6557V34.7494C75.8538 34.6044 75.7269 34.4776 75.5819 34.4776H70.6156C70.4706 34.4776 70.3437 34.6044 70.3437 34.7494V41.6733C70.3437 41.8183 70.4706 41.9452 70.6156 41.9452H75.8356C75.9807 41.9452 76.1075 41.8183 76.1075 41.6733V40.767C76.1075 40.6401 75.9807 40.5133 75.8356 40.5133ZM78.9905 34.2605H84.5368C84.6637 34.2605 84.7543 34.3693 84.7543 34.5143V35.5112C84.7543 35.6562 84.6637 35.7649 84.5368 35.7649H82.7243C82.5974 35.7649 82.5068 35.8737 82.5068 36.0005V41.7281C82.5068 41.855 82.4162 41.9637 82.2893 41.9637H81.238C81.1112 41.9637 81.0205 41.855 81.0205 41.7281V36.0005C81.0205 35.8737 80.9299 35.7649 80.803 35.7649H78.9905C78.8636 35.7649 78.773 35.638 78.773 35.5112V34.5143C78.773 34.3693 78.8636 34.2605 78.9905 34.2605ZM52.3814 38.4825C52.0914 38.5006 51.7832 38.5006 51.4751 38.5006C51.3482 38.5006 51.2395 38.3918 51.2395 38.2468V35.9631C51.2395 35.8362 51.3482 35.7093 51.4751 35.7274C51.747 35.7274 52.0008 35.7274 52.3089 35.7456C53.2876 35.7818 54.0308 36.2531 54.0308 37.1049C54.0308 37.8481 53.5233 38.3918 52.3814 38.4825ZM52.2363 34.2605C54.4114 34.2605 55.6439 35.4568 55.6439 37.1424C55.6439 38.1393 55.227 38.8281 54.5926 39.2812C54.502 39.3537 54.4657 39.4806 54.5201 39.5893L55.517 41.6012C55.5895 41.7644 55.4808 41.9637 55.2995 41.9637H54.0126C53.922 41.9637 53.8314 41.9275 53.7951 41.8369L52.9432 40.0787C52.8785 39.9493 52.8138 39.9498 52.6075 39.9514C52.5826 39.9516 52.5556 39.9518 52.5263 39.9518H52.3632H51.4751C51.2757 39.9518 51.2395 39.9881 51.2395 40.1875V41.7281C51.2395 41.855 51.1307 41.9637 51.0038 41.9637H49.8801C49.7532 41.9637 49.6444 41.855 49.6444 41.7281V34.5324C49.6444 34.4055 49.7532 34.2968 49.8801 34.2968L50.0294 34.2934H50.0296H50.0298H50.03H50.0301C50.7895 34.2765 51.505 34.2605 52.2363 34.2605Z" fill="white"/>
</svg>
