<svg width="160" height="28" viewBox="0 0 160 28" fill="none" xmlns="http://www.w3.org/2000/svg">
<path d="M19.032 11.511C18.9278 11.511 18.8401 11.5137 18.7907 11.5192C18.7331 11.6237 18.6481 11.764 18.5219 11.9593C20.4855 11.9593 22.2682 12.1215 24.24 12.4763L23.6833 13.0154C21.9034 12.6991 20.4252 12.5727 18.5411 12.5727C18.2669 12.5727 18.2093 12.5727 18.1435 12.5754C18.0776 12.6744 17.9295 12.8669 17.7815 13.0457C17.9487 13.0347 18.2724 13.0292 18.7194 13.0292C20.2689 13.0292 21.7169 13.1447 23.2884 13.3978L22.7316 13.9396C21.5359 13.7526 20.0742 13.6453 18.7632 13.6453C18.297 13.6453 17.7677 13.6618 17.2933 13.6893C17.1863 13.8131 16.9066 14.1156 16.8216 14.2091C17.4496 14.1431 18.1407 14.1129 18.9635 14.1129C20.1345 14.1129 21.2535 14.1899 22.3121 14.3467L21.7553 14.883C21.0011 14.7895 20.0851 14.7345 19.2761 14.7345C17.1891 14.7345 15.5436 15.1883 13.8432 16.2307C15.464 17.9745 18.1188 19.0774 20.6912 19.0774H20.9326L20.0331 19.9494C16.3224 19.2507 12.4171 17.6142 9.11793 15.3725C5.94486 13.2245 4.83416 12.5892 2.3577 11.4917L2.34125 10.8536L4.01691 11.5742L4.58735 11.1204L10.0586 13.6343L9.70205 13.9203L6.89377 12.6964L6.61677 12.9137L8.07581 13.7306C9.3072 14.4182 10.2451 14.7262 11.1117 14.7262C13.0068 14.7262 14.7072 13.3785 15.8041 11.0104C16.6296 10.9031 17.51 10.8536 18.5685 10.8536C20.7406 10.8536 22.8495 11.0626 25.2383 11.511L24.6569 12.0748C23.1705 11.764 20.6446 11.511 19.032 11.511ZM13.7143 27.1747C6.59664 27.1747 0.822927 21.3842 0.822927 14.2459C0.822927 7.10763 6.59664 1.31711 13.7143 1.31711C20.832 1.31711 26.6057 7.10763 26.6057 14.2459C26.6057 21.3842 20.832 27.1747 13.7143 27.1747ZM13.7143 0.491932C6.13038 0.491932 0 6.63995 0 14.2459C0 21.8519 6.13038 28 13.7143 28C21.2983 28 27.4286 21.8519 27.4286 14.2459C27.4286 6.63995 21.2983 0.491932 13.7143 0.491932ZM49.9461 19.7214H57.809V23.4153H45.7143V5.07653H49.9461V19.7214ZM67.3175 10.2114H71.2619V23.4153H67.5527V21.8958C67.004 22.9176 65.8809 23.8082 63.8171 23.8082C60.4475 23.8082 58.6972 22.2887 58.6972 17.9399V10.2114H62.6417V17.7564C62.6417 19.5118 63.3993 20.2976 64.9928 20.2976C66.4295 20.2976 67.3175 19.5118 67.3175 17.7564V10.2114ZM74.2923 9.71373C74.2923 6.51761 76.3038 4.81458 79.4646 4.81458C80.4835 4.81458 81.1364 4.97179 81.1364 4.97179V8.16791C81.1364 8.16791 80.5879 8.11571 80.1175 8.11571C78.8898 8.11571 78.2367 8.53486 78.2367 9.68753V10.2114H81.1364V13.4338H78.2367V23.4153H74.2923V13.4338H72.307V10.2114H74.2923V9.71373ZM88.0847 10.2114H91.0887V13.4338H88.0847V18.5687C88.0847 19.9834 88.8162 20.3502 89.9655 20.3502C90.4356 20.3502 91.0887 20.2716 91.0887 20.2716V23.4415C91.0887 23.4415 90.1746 23.651 89.208 23.651C86.0473 23.651 84.1403 22.2102 84.1403 19.0141V13.4338H82.1549V10.2114H84.1403V6.36034H88.0847V10.2114ZM99.8219 9.81847C103.166 9.81847 104.916 11.3379 104.916 15.6868V23.4153H100.971V15.8702C100.971 14.115 100.214 13.3291 98.5681 13.3291C97.079 13.3291 96.191 14.115 96.191 15.8702V23.4153H92.2465V5.1028H96.217V11.4951C96.8963 10.5257 97.9673 9.81847 99.8219 9.81847ZM114.973 18.2804C114.973 19.7214 113.614 20.7956 111.525 20.7956C110.506 20.7956 109.905 20.324 109.905 19.4332C109.905 18.7521 110.323 18.1758 111.655 17.9925L113.928 17.6779C114.32 17.6255 114.738 17.547 114.973 17.4684V18.2804ZM112.779 9.81854C108.886 9.81854 107.006 11.3119 106.849 14.1151H110.689C110.741 13.3814 111.159 12.8313 112.779 12.8313C114.215 12.8313 114.895 13.3029 114.895 14.0101C114.895 14.6391 114.503 14.8748 113.536 14.9795L111.029 15.2415C107.632 15.6081 106.091 17.023 106.091 19.5905C106.091 21.9744 107.554 23.8082 110.663 23.8082C112.779 23.8082 114.033 23.1271 115.13 21.7647V23.4153H118.735V14.7438C118.735 11.1022 116.619 9.81854 112.779 9.81854ZM127.855 9.81847C131.278 9.81847 133.028 11.3379 133.028 15.6868V23.4153H129.083V15.8702C129.083 14.115 128.326 13.3291 126.68 13.3291C125.191 13.3291 124.303 14.115 124.303 15.8702V23.4153H120.358V10.2115H124.068V11.731C124.616 10.7092 125.74 9.81847 127.855 9.81847ZM141.349 15.1367C144.692 15.5821 146.364 16.63 146.364 19.3808C146.364 22.1579 144.405 23.8083 140.252 23.8083C135.732 23.8083 134.139 22.0008 134.061 19.3545H137.953C138.057 20.324 138.736 20.7956 140.252 20.7956C141.793 20.7956 142.42 20.4287 142.42 19.6952C142.42 19.0141 141.897 18.6998 140.539 18.5164L139.154 18.3328C136.255 17.9399 134.583 16.8135 134.583 14.1936C134.583 11.6786 136.438 9.81847 140.33 9.81847C143.935 9.81847 145.868 11.2594 146.051 14.115H142.211C142.08 13.3554 141.662 12.8837 140.33 12.8837C139.024 12.8837 138.528 13.3291 138.528 13.9056C138.528 14.4817 138.841 14.7962 139.964 14.9534L141.349 15.1367ZM156.239 18.2807C156.239 19.7214 154.88 20.7956 152.79 20.7956C151.771 20.7956 151.17 20.324 151.17 19.4332C151.17 18.7521 151.589 18.1758 152.921 17.9925L155.194 17.6779C155.585 17.6257 156.003 17.547 156.239 17.4684V18.2807ZM154.044 9.81854C150.152 9.81854 148.271 11.3119 148.114 14.1151H151.954C152.007 13.3814 152.424 12.8314 154.044 12.8314C155.481 12.8314 156.16 13.3029 156.16 14.0103C156.16 14.6391 155.768 14.8748 154.802 14.9795L152.294 15.2415C148.898 15.6083 147.357 17.023 147.357 19.5905C147.357 21.9744 148.82 23.8082 151.928 23.8082C154.044 23.8082 155.298 23.1271 156.395 21.7647V23.4153H160V14.7438C160 11.1024 157.884 9.81854 154.044 9.81854Z" fill="white"/>
</svg>
