<svg width="143" height="39" viewBox="0 0 143 39" fill="none" xmlns="http://www.w3.org/2000/svg">
<path d="M54.8673 26.6714H51.0976L48.4074 20.3269L45.7633 26.6714H41.9928L37.8073 13.5652H42.2531L44.2488 20.3616L46.7381 13.5652H50.1213L52.6114 20.3616L54.6063 13.5652H59.0528L54.8673 26.6714ZM19.3699 34.9207C11.0543 34.9207 4.31332 28.179 4.31332 19.8634C4.31332 11.5478 11.0543 4.80686 19.3699 4.80686C27.6854 4.80686 34.4264 11.5478 34.4264 19.8634C34.4264 28.179 27.6854 34.9207 19.3699 34.9207ZM47.863 0.586693C42.1676 0.586693 37.052 3.06522 33.5348 7.00202C30.0177 3.06522 24.9013 0.586693 19.2066 0.586693C8.59891 0.586693 0 9.18561 0 19.7933C0 30.4011 8.59891 39 19.2066 39C24.9013 39 30.0177 36.5215 33.5348 32.5839C37.052 36.5215 42.1676 39 47.863 39C58.47 39 67.0689 30.4011 67.0689 19.7933C67.0689 9.18561 58.47 0.586693 47.863 0.586693Z" fill="white"/>
<path d="M19.8651 23.0506H15.7212V16.8363H19.8651C22.868 16.8363 23.9397 18.0859 23.9397 19.9438C23.9397 21.801 22.8757 23.0506 19.8651 23.0506ZM20.4364 12.5052H11.0391V27.3809H20.4364C24.6273 27.3809 28.9237 25.2735 28.9237 19.943C28.9237 14.6126 24.6273 12.5052 20.4364 12.5052Z" fill="white"/>
<path fill-rule="evenodd" clip-rule="evenodd" d="M100.421 10.1926H102.635V18.3356H100.799L100.64 17.7258C99.9518 18.1239 99.168 18.4619 98.4326 18.4619C96.413 18.4619 95.4128 17.4694 95.4128 15.0433V10.1926H97.5811V14.6945C97.5811 16.065 98.0892 16.44 99.1479 16.44C99.4829 16.44 100.001 16.2614 100.421 16.0196V10.1926ZM82.8171 12.8681C82.8171 14.7884 81.8115 16.0512 79.6056 16.0512H78.0048V9.6844H79.6803C81.9016 9.6844 82.8171 10.7223 82.8171 12.8681ZM85.2833 12.8681C85.2833 8.86897 83.0296 7.4007 79.9051 7.4007H75.5571V18.3356H79.7488C82.7447 18.3356 85.2833 16.711 85.2833 12.8681ZM124.616 12.4169C124.083 12.035 123.552 11.8418 122.937 11.8418C121.804 11.8418 121.175 12.9567 121.141 14.0924C121.105 15.2704 121.71 16.4708 123.056 16.4708C123.619 16.4708 124.091 16.3622 124.728 15.881L125.861 17.2392C125.029 17.9945 124.085 18.4504 122.992 18.4504C120.229 18.4504 118.917 16.2398 118.96 14.0662C119.001 11.9612 120.31 9.89151 122.806 9.89151C123.942 9.89151 124.941 10.2626 125.633 10.9332L124.616 12.4169ZM129.256 18.2771H127.071V7.0442H129.256V10.3781C129.802 10.141 130.63 9.89151 131.243 9.89151C133.263 9.89151 134.381 10.884 134.381 13.3101V18.2771H132.185V13.6589C132.185 12.2884 131.646 11.9134 130.587 11.9134C130.253 11.9134 129.676 12.092 129.256 12.3346V18.2771ZM90.3727 9.89456C88.2461 9.89456 86.7608 11.6632 86.7855 14.1825C86.8124 16.7803 88.1775 18.455 90.7038 18.455C91.8225 18.455 92.9975 17.9691 93.6604 17.1245L92.5509 16.0289C92.5509 16.0289 91.8356 16.5617 90.8701 16.6002C89.7036 16.6471 88.9952 15.9611 88.9044 14.8339H93.7228C94.234 11.4953 92.7026 9.89456 90.3727 9.89456ZM91.8772 13.3509H88.8844C88.939 12.4531 89.4942 11.6647 90.3511 11.6647C91.8549 11.6647 91.8726 12.9398 91.8772 13.3509ZM109.292 16.1482C109.292 16.1482 108.867 16.3491 108.477 16.3491C107.962 16.3491 107.68 16.2037 107.68 15.4229V11.8364H109.648V10.1541H107.68V8.19143H105.919L105.612 10.1541H104.15V11.8364H105.553L105.525 15.9426C105.525 17.3801 106.179 18.4103 107.812 18.4103C108.66 18.4103 109.247 18.0754 109.903 17.6073L109.292 16.1482ZM139.551 9.89456C137.424 9.89456 135.938 11.6632 135.964 14.1825C135.991 16.7803 137.356 18.455 139.882 18.455C141.001 18.455 142.176 17.9691 142.838 17.1245L141.728 16.0289C141.728 16.0289 141.014 16.5617 140.048 16.6002C138.882 16.6471 138.174 15.9611 138.082 14.8339H142.901C143.413 11.4953 141.88 9.89456 139.551 9.89456ZM141.055 13.3509H138.062C138.116 12.4531 138.672 11.6647 139.529 11.6647C141.032 11.6647 141.051 12.9398 141.055 13.3509ZM116.914 12.3569L117.569 10.7007C117.569 10.7007 116.116 9.88073 114.529 9.90537C112.534 9.9354 111.306 10.73 111.274 12.2291C111.254 13.1523 111.694 13.9438 112.763 14.5059C113.562 14.9263 114.305 15.1719 115.038 15.4467C115.413 15.5876 115.672 15.7979 115.595 16.1497C115.532 16.4439 115.209 16.5617 114.968 16.5963C113.984 16.7365 112.797 16.3607 111.778 15.9265L111.108 17.4964C111.108 17.4964 112.57 18.4488 114.45 18.4488C115.927 18.4488 117.726 18.0084 117.859 16.1736C117.945 15.0148 117.439 14.2672 116.221 13.7636C115.721 13.5565 114.104 12.949 114.104 12.949C113.611 12.7696 113.443 12.4955 113.503 12.2006C113.599 11.7248 114.316 11.7379 114.874 11.7818C116 11.8703 116.914 12.3569 116.914 12.3569Z" fill="white"/>
<path fill-rule="evenodd" clip-rule="evenodd" d="M104.103 21.4584H101.918V32.6921H104.103V21.4584ZM88.0201 22.4802H85.6594L84.6577 27.2154C84.5576 27.7313 84.382 29.1903 84.332 29.6431C84.2488 29.1903 83.9693 27.7467 83.8361 27.2154L82.5249 22.4802H80.3251L79.0308 27.2154C78.8976 27.7467 78.6189 29.1903 78.535 29.6431C78.4857 29.1903 78.2809 27.7467 78.1808 27.2154L77.2068 22.4802H74.813L77.2045 32.7498H79.4936L80.9696 27.3109C81.1367 26.6703 81.3253 25.6262 81.3754 25.2197C81.4416 25.6262 81.6294 26.6556 81.7965 27.3109L83.2402 32.7498H85.6294L88.0201 22.4802ZM99.7443 21.4584H97.5599V32.6921H99.7443V21.4584ZM92.3634 24.3027C90.236 24.3027 88.7516 26.0705 88.777 28.5905C88.8032 31.1884 90.1691 32.8623 92.6945 32.8623C93.8133 32.8623 94.9882 32.3772 95.6512 31.5318L94.5417 30.4369C94.5417 30.4369 93.8271 30.9697 92.8608 31.0082C91.6944 31.0544 90.986 30.3684 90.8959 29.2419H95.7135C96.2256 25.9034 94.6933 24.3027 92.3634 24.3027ZM93.868 27.759H90.8751C90.9298 26.8612 91.4849 26.072 92.3419 26.072C93.8456 26.072 93.8633 27.3478 93.868 27.759ZM109.411 24.3027C107.285 24.3027 105.798 26.0705 105.825 28.5905C105.851 31.1884 107.217 32.8623 109.741 32.8623C110.861 32.8623 112.036 32.3772 112.698 31.5318L111.589 30.4369C111.589 30.4369 110.874 30.9697 109.909 31.0082C108.742 31.0544 108.034 30.3684 107.942 29.2419H112.761C113.273 25.9034 111.74 24.3027 109.411 24.3027ZM110.916 27.759H107.922C107.977 26.8612 108.532 26.072 109.39 26.072C110.893 26.072 110.911 27.3478 110.916 27.759Z" fill="white"/>
</svg>
