<svg width="50" height="50" viewBox="0 0 50 50" fill="none" xmlns="http://www.w3.org/2000/svg">
<path fill-rule="evenodd" clip-rule="evenodd" d="M25.5798 0H23.7979C18.9507 0.152564 14.1554 1.75997 10.2206 4.59887C4.81308 8.48078 1.04185 14.6422 0.252107 21.2703L0.202249 21.3311C0.192535 21.6149 0.163499 21.8971 0.134465 22.1793C0.0949536 22.5634 0.0554457 22.9474 0.0646423 23.3354C0.00780456 24.0653 -0.0420531 24.7992 0.0546707 25.5281C0.222192 31.512 2.77789 37.3633 6.95596 41.6371C10.5407 45.3675 15.357 47.8723 20.4554 48.7239C21.4735 48.9024 22.5056 48.9881 23.5356 49.0599H25.5628C30.1388 48.8525 34.6589 47.3817 38.4381 44.7841C41.4515 42.719 43.9892 39.9699 45.817 36.8079C47.7066 33.5662 48.8154 29.8757 49.0418 26.1324C49.0392 25.7452 49.0446 25.3571 49.05 24.9688C49.0632 24.0243 49.0764 23.0785 48.974 22.1408C48.8284 20.4496 48.4824 18.7764 47.9778 17.156C46.0872 11.0953 41.7386 5.84032 36.1217 2.87579C32.8809 1.14074 29.2473 0.180485 25.5798 0ZM21.6527 2.46562C21.8848 2.44533 22.1171 2.42505 22.3447 2.37271C22.6542 2.36038 22.9635 2.34024 23.2728 2.32009C23.9391 2.27669 24.6056 2.23327 25.2744 2.26801C25.5732 2.31933 25.8754 2.3297 26.1778 2.34009C26.3747 2.34685 26.5718 2.35362 26.7681 2.37171C27.0017 2.4261 27.2417 2.44621 27.4809 2.46625L27.5658 2.47342C27.8545 2.53305 28.1459 2.57837 28.4372 2.62367C28.5453 2.64048 28.6534 2.6573 28.7614 2.67485C29.0566 2.75063 29.3547 2.81943 29.6539 2.87727C29.7785 2.91248 29.9038 2.94537 30.029 2.97825C30.2975 3.04873 30.5657 3.11916 30.8275 3.21231C30.8834 3.22627 30.994 3.25419 31.0489 3.26815C31.1496 3.30305 31.2503 3.33696 31.353 3.36886C31.4318 3.39852 31.5095 3.4308 31.5873 3.46315L31.5873 3.46316C31.6613 3.49389 31.7354 3.52468 31.8107 3.55334C31.7262 3.71418 31.6507 3.87908 31.5753 4.04364L31.5753 4.04366L31.5753 4.04369L31.5505 4.09778C31.4701 4.28732 31.3862 4.47527 31.3023 4.66339L31.3022 4.66357L31.3021 4.66377C31.2527 4.77442 31.2033 4.88511 31.1546 4.99622C31.0829 5.1591 31.0109 5.32197 30.9389 5.48485C30.8668 5.64804 30.7947 5.81123 30.7228 5.97442C30.6351 6.17451 30.5464 6.37371 30.4578 6.57291L30.325 6.87186C30.2531 7.03651 30.1797 7.20086 30.1062 7.36523L30.1062 7.36538L30.106 7.36565C30.0461 7.49979 29.9862 7.63394 29.9271 7.7683C29.8558 7.93155 29.783 8.09421 29.7102 8.25692L29.71 8.2575L29.71 8.25754L29.7099 8.25758C29.6494 8.39281 29.5889 8.52807 29.5292 8.66375C28.7603 10.3958 27.9858 12.1259 27.2113 13.8559L27.2107 13.8572C26.6286 15.1575 26.0465 16.4578 25.4668 17.7588L25.4251 17.8538C25.2956 18.1491 25.1661 18.4443 25.0301 18.737L25.0109 18.7853L24.9977 18.8189C24.8935 19.0835 24.7863 19.3556 24.5604 19.5427C24.3444 19.3693 24.2402 19.1171 24.1372 18.8679L24.1372 18.8679C24.1076 18.7961 24.078 18.7246 24.0459 18.6552C23.9858 18.5197 23.9249 18.3846 23.864 18.2496L23.8639 18.2492L23.8637 18.2489L23.8635 18.2483C23.7902 18.0856 23.7169 17.923 23.645 17.7598C23.5668 17.5751 23.4844 17.3923 23.402 17.2096L23.4019 17.2094C23.35 17.0942 23.298 16.979 23.2472 16.8633C22.673 15.571 22.0953 14.2805 21.5175 12.9899C20.843 11.4832 20.1686 9.97656 19.4999 8.46731C19.3815 8.2093 19.267 7.94937 19.1525 7.6894C19.02 7.38871 18.8875 7.08797 18.749 6.7901C18.6244 6.48796 18.4888 6.18981 18.3521 5.89366C18.2687 5.69062 18.1796 5.4897 18.0905 5.2888L18.0904 5.28863C18.0295 5.15116 17.9685 5.01369 17.9094 4.87556L17.8773 4.80521L17.8772 4.80485L17.8772 4.80482C17.7701 4.56996 17.6627 4.33429 17.5594 4.09778C17.4836 3.91929 17.4009 3.74379 17.3131 3.57129C17.3449 3.54949 17.377 3.52809 17.4093 3.50658L17.4093 3.50656L17.4677 3.46758L17.7698 3.37784C17.8695 3.34195 17.9692 3.30408 18.0688 3.2662L18.069 3.26616C18.1248 3.25319 18.2355 3.22727 18.2903 3.21331C18.6055 3.09869 18.9301 3.01566 19.2542 2.93277C19.3249 2.9147 19.3955 2.89664 19.466 2.87827L19.5142 2.86766L19.5142 2.86765C19.6337 2.8414 19.753 2.81518 19.8708 2.78354L19.933 2.77145L19.933 2.77144C20.0762 2.74365 20.2205 2.71566 20.3624 2.68083C20.5715 2.63583 20.7829 2.60292 20.9943 2.57L20.9943 2.57L20.9943 2.57C21.181 2.54092 21.3678 2.51184 21.553 2.47442L21.6527 2.46562ZM13.5439 5.22593C10.4877 7.01382 7.88211 9.53862 5.92071 12.4822C5.97356 12.7235 6.08823 12.9429 6.2019 13.1593C6.31007 13.3692 6.41258 13.5821 6.51498 13.7949C6.55511 13.8783 6.59523 13.9616 6.63566 14.0448L6.6357 14.0448C6.80022 14.3769 6.96474 14.7089 7.13424 15.0389C7.93015 16.6563 8.73442 18.2699 9.53872 19.8836L9.53881 19.8838C10.4909 21.7939 11.4429 23.7041 12.3813 25.6207C12.4301 25.7134 12.478 25.8062 12.5258 25.8999C12.7243 26.2998 12.9227 26.7016 13.1172 27.1045C13.7985 28.478 14.4817 29.8506 15.165 31.2231L15.1658 31.2247L15.1674 31.2278C15.8504 32.5999 16.5334 33.9719 17.2145 35.3449C17.2723 35.5125 17.4169 35.5872 17.5884 35.5842C17.742 35.3011 17.8786 35.0079 18.0052 34.7117C18.0814 34.5206 18.1643 34.3324 18.2473 34.144C18.2837 34.0611 18.3203 33.9782 18.3562 33.8951C18.4085 33.7757 18.4598 33.6559 18.5111 33.5361L18.5112 33.5359L18.5114 33.5355C18.5714 33.3952 18.6315 33.255 18.6932 33.1153C18.7381 33.0103 18.7841 32.9059 18.8301 32.8015L18.8302 32.8013C18.9038 32.6342 18.9775 32.467 19.0462 32.2976C19.1469 32.0757 19.2438 31.8516 19.3408 31.6272L19.3409 31.627L19.3873 31.5199C20.2568 29.5226 21.1323 27.5273 22.0118 25.5339C22.1045 25.3166 22.3229 25.155 22.5672 25.1859C23.8974 25.1839 25.2286 25.1829 26.5598 25.1869C26.82 25.155 27.0364 25.3455 27.1252 25.5758C27.3755 26.1469 27.6263 26.7177 27.8771 27.2885C28.4965 28.6981 29.1159 30.1077 29.7277 31.5209L29.7772 31.6343L29.7773 31.6345C29.8743 31.8568 29.9712 32.079 30.0717 32.2996C30.15 32.4917 30.2336 32.6819 30.3171 32.8718L30.3173 32.8722L30.3176 32.8727C30.3531 32.9536 30.3886 33.0344 30.4237 33.1153C30.4878 33.2615 30.5504 33.4086 30.6129 33.5558C30.6613 33.6697 30.7096 33.7836 30.7588 33.8971C30.8493 34.0918 30.9329 34.2899 31.0165 34.488L31.0166 34.488C31.1705 34.8528 31.3245 35.2175 31.5216 35.5613L31.7649 35.5693C32.4835 34.1886 33.1746 32.7927 33.8658 31.3967C34.2363 30.6482 34.6069 29.8998 34.9817 29.1536C36.5564 25.9595 38.142 22.7706 39.7275 19.5817L39.7289 19.5789C40.5475 17.9325 41.3661 16.2861 42.1832 14.6391C42.2716 14.4716 42.3534 14.301 42.4351 14.1304C42.5256 13.9415 42.6161 13.7526 42.7156 13.5681C42.7587 13.4813 42.7997 13.3933 42.8408 13.3053L42.8409 13.3052L42.8409 13.3051C42.9618 13.0462 43.083 12.7866 43.2541 12.556C43.1014 12.3693 42.967 12.1705 42.8327 11.9718L42.8327 11.9718C42.7899 11.9084 42.7471 11.8451 42.7037 11.7822C40.823 9.13078 38.379 6.8812 35.581 5.22892C35.4763 5.16411 35.3636 5.11525 35.244 5.09131C34.0075 7.81554 32.777 10.5447 31.5535 13.2749C31.4803 13.4449 31.4037 13.6132 31.3271 13.7814L31.3271 13.7815C31.2388 13.9753 31.1506 14.1689 31.0679 14.3648C30.9522 14.6261 30.8346 14.8863 30.7129 15.1446C30.6494 15.2934 30.584 15.4414 30.5186 15.5893L30.5186 15.5894C30.4341 15.7807 30.3496 15.9719 30.2692 16.1647C30.1186 16.4888 29.971 16.8138 29.8274 17.1409C28.9848 19.0245 28.1373 20.9052 27.2877 22.7848C27.2636 22.8364 27.2408 22.889 27.218 22.9416C27.1524 23.0932 27.0865 23.2453 26.9866 23.3771C26.8448 23.5323 26.62 23.5406 26.4209 23.548C26.3987 23.5488 26.3768 23.5496 26.3554 23.5506C25.7899 23.5488 25.2245 23.5493 24.6591 23.5497H24.6591C23.9912 23.5503 23.3234 23.5509 22.6559 23.5476C22.3967 23.5536 22.1045 23.4639 22.0148 23.1936C21.1014 21.1774 20.191 19.1601 19.2875 17.1409C19.143 16.8138 18.9964 16.4888 18.8488 16.1637C18.754 15.9417 18.6546 15.7223 18.5552 15.5029L18.5552 15.5028C18.5019 15.3852 18.4486 15.2676 18.3961 15.1496C18.3233 14.9861 18.251 14.8225 18.1787 14.659L18.1779 14.6571C18.1059 14.4942 18.0338 14.3313 17.9613 14.1684C17.3208 12.7223 16.6693 11.2807 16.0177 9.83915C15.2999 8.2509 14.582 6.66265 13.879 5.06838L13.8682 5.07305C13.7591 5.12037 13.6492 5.16801 13.5439 5.22593ZM44.4968 18.4856C44.7822 17.9164 45.0677 17.3472 45.3321 16.7681C47.1439 21.4089 47.2077 26.6838 45.6531 31.4063C44.4835 34.9243 42.4533 38.164 39.743 40.6988C37.8135 42.5216 35.5699 44.0183 33.1239 45.0533C33.0192 45.096 32.9144 45.139 32.8099 45.182C32.7483 45.2073 32.6867 45.2326 32.6253 45.2578C32.453 45.3255 32.2792 45.3899 32.1055 45.4542C31.9828 45.4997 31.8601 45.5452 31.7379 45.5918C31.7072 45.5999 31.6594 45.6131 31.6145 45.6254C31.5821 45.6343 31.5512 45.6428 31.5295 45.6486C31.4268 45.6835 31.326 45.7184 31.2243 45.7553C31.0967 45.7957 30.9683 45.8334 30.8399 45.871C30.7115 45.9087 30.5832 45.9463 30.4555 45.9867C30.1181 46.0774 29.7786 46.1594 29.4393 46.2414C29.3795 46.2559 29.3197 46.2703 29.2599 46.2848L29.2261 46.2909C29.07 46.3187 28.9148 46.3464 28.7614 46.3835L28.7234 46.3901C28.5675 46.4167 28.4118 46.4434 28.2578 46.4803C27.4282 46.6089 26.5936 46.7266 25.752 46.7425C24.9273 46.8343 24.0917 46.8213 23.2681 46.7365C22.6652 46.7336 22.07 46.6514 21.4752 46.5693C21.2692 46.5408 21.0632 46.5124 20.8569 46.4873C20.697 46.448 20.5351 46.417 20.375 46.3863L20.3554 46.3826C20.1908 46.3447 20.0243 46.3137 19.8588 46.2848C19.4589 46.1891 19.0591 46.0934 18.6622 45.9867C18.5333 45.9459 18.4031 45.9084 18.2728 45.8709C18.1451 45.8341 18.0173 45.7973 17.8904 45.7573C17.7903 45.7266 17.6911 45.6949 17.592 45.6632L17.5903 45.6626C17.4905 45.6257 17.3908 45.5898 17.2911 45.5539C17.2268 45.5319 17.1625 45.5092 17.0982 45.4866C17.0201 45.4591 16.9421 45.4316 16.8643 45.4053C16.8054 45.3811 16.7465 45.3578 16.6877 45.3345C16.6231 45.3089 16.5586 45.2834 16.4944 45.2568C16.3827 45.2135 16.2719 45.1686 16.161 45.1236C16.1057 45.1011 16.0503 45.0786 15.9948 45.0563C11.745 43.2425 8.07643 40.0825 5.66432 36.1408C5.48743 35.8593 5.32517 35.5695 5.16293 35.2797C5.07457 35.1219 4.98622 34.9641 4.89551 34.8076C4.88664 34.7858 4.87189 34.7458 4.8613 34.717C4.8588 34.7102 4.85653 34.7041 4.85463 34.6989C2.15234 29.5646 1.6069 23.3413 3.39978 17.8211C3.43083 17.7327 3.45915 17.6429 3.48749 17.5531C3.56745 17.2997 3.64758 17.0457 3.78967 16.819C4.26043 17.7531 4.72265 18.6915 5.18503 19.6303C5.22214 19.7056 5.25925 19.781 5.29637 19.8563C5.34523 19.949 5.39409 20.0418 5.44494 20.1345C5.45506 20.1571 5.46523 20.1798 5.47541 20.2024C5.51238 20.2848 5.54958 20.3677 5.58554 20.4506C5.64537 20.5638 5.70271 20.6782 5.76004 20.7926C5.81738 20.907 5.87472 21.0215 5.93455 21.1346C5.97477 21.2168 6.01536 21.2988 6.05593 21.3807C6.13202 21.5343 6.20806 21.6878 6.28155 21.8426C6.30648 21.8925 6.35634 21.9932 6.38027 22.0441C7.22351 23.7696 8.08309 25.487 8.94265 27.2043C9.7277 28.7728 10.5127 30.3413 11.2853 31.9159C11.3692 32.0756 11.4485 32.2373 11.528 32.3994C11.5468 32.4376 11.5656 32.4759 11.5844 32.5142C11.6046 32.554 11.6247 32.5939 11.6448 32.6337C11.7052 32.7534 11.7656 32.8731 11.8277 32.9928C11.8786 33.0995 11.9284 33.2062 11.9773 33.3149C12.0451 33.4465 12.1109 33.5791 12.1757 33.7127C12.1924 33.7456 12.2092 33.7784 12.226 33.8112C12.2765 33.9098 12.327 34.0084 12.3742 34.1086C12.3818 34.1243 12.3918 34.1446 12.4026 34.1668C12.4269 34.2166 12.4556 34.2755 12.4729 34.31C12.6075 34.5743 12.7411 34.8395 12.8687 35.1077C12.877 35.1244 12.8852 35.1411 12.8934 35.1579C12.9502 35.273 13.0073 35.3889 13.0622 35.5056C13.7696 36.9434 14.4866 38.3769 15.2037 39.8105C15.7289 40.8605 16.2541 41.9105 16.7756 42.9623C16.8893 43.1727 17.0329 43.3991 17.2732 43.4778C17.5982 43.6085 17.9821 43.4629 18.1756 43.1807C18.2967 42.993 18.3841 42.7882 18.4714 42.5838C18.5135 42.4851 18.5556 42.3866 18.6014 42.2902C18.6675 42.1342 18.7364 41.9797 18.8052 41.8253C18.8868 41.6421 18.9683 41.4592 19.0451 41.2741C19.1206 41.1071 19.1965 40.94 19.2722 40.7732C19.3136 40.6821 19.3549 40.5912 19.3961 40.5004C20.3377 38.3682 21.2897 36.2409 22.2416 34.1136C22.7918 32.8841 23.3421 31.6546 23.8903 30.4241C23.9463 30.3008 23.9986 30.1756 24.0509 30.0503C24.1598 29.7898 24.2687 29.5292 24.4108 29.2854C24.5504 29.1847 24.7069 29.2724 24.7927 29.3951C24.8807 29.6437 24.9891 29.8841 25.0976 30.1243C25.1243 30.1837 25.1511 30.243 25.1776 30.3025C25.2526 30.4815 25.3322 30.6584 25.4118 30.8353C25.4665 30.9569 25.5212 31.0786 25.5745 31.2009C26.2165 32.6448 26.8615 34.0873 27.5065 35.5298C28.3501 37.4167 29.1938 39.3036 30.0307 41.1934C30.1733 41.5204 30.3189 41.8475 30.4685 42.1716C30.5255 42.2872 30.5743 42.4106 30.6234 42.5348C30.7547 42.8668 30.8882 43.2043 31.1864 43.414C31.5843 43.6753 32.1297 43.4509 32.3013 43.0271C32.5082 42.6142 32.7154 42.2013 32.9226 41.7884C33.9579 39.7248 34.9932 37.6613 36.0077 35.5874C36.079 35.4407 36.1518 35.2948 36.2245 35.1489C36.3173 34.9625 36.4102 34.7762 36.5003 34.5882C36.5481 34.4955 36.597 34.4028 36.6449 34.31C36.6698 34.2602 36.7186 34.1595 36.7426 34.1096C36.7906 34.0066 36.8416 33.9054 36.8924 33.8046C36.908 33.7736 36.9236 33.7427 36.939 33.7117C37.0018 33.5761 37.0667 33.4425 37.1345 33.3109C37.1484 33.2824 37.1622 33.2539 37.176 33.2255C37.2275 33.1194 37.2789 33.0138 37.3339 32.91C37.3464 32.8851 37.3648 32.8479 37.3832 32.8108C37.4017 32.7737 37.4201 32.7365 37.4326 32.7116C38.2807 30.9905 39.1388 29.2742 39.9969 27.5581C40.7804 25.9911 41.5639 24.4243 42.3396 22.8537C42.3561 22.8192 42.3728 22.7848 42.3894 22.7503C42.4559 22.6125 42.5225 22.4746 42.5839 22.3342C42.5938 22.3151 42.6037 22.2959 42.6135 22.2766C42.6526 22.2009 42.6917 22.1248 42.7315 22.05C42.7519 22.0091 42.7879 21.9365 42.8149 21.8822C42.8221 21.8677 42.8287 21.8546 42.8342 21.8436C42.883 21.7419 42.9309 21.6392 42.9778 21.5365C43.0031 21.4893 43.0285 21.4419 43.0538 21.3944C43.0793 21.3466 43.1048 21.2988 43.1303 21.2513C43.206 21.0941 43.283 20.9376 43.36 20.7812C43.4139 20.6717 43.4678 20.5622 43.5212 20.4526C43.6499 20.1844 43.7835 19.9191 43.9191 19.6539C44.1072 19.2624 44.302 18.874 44.4968 18.4856Z" fill="white"/>
</svg>
