<svg width="92" height="42" viewBox="0 0 92 42" fill="none" xmlns="http://www.w3.org/2000/svg">
<path fill-rule="evenodd" clip-rule="evenodd" d="M61.831 4.86978H58.42L60.8317 2.45784C60.4525 1.92523 59.9869 1.45975 59.4541 1.08064L57.042 3.49258V0.0813467C56.7213 0.0273945 56.3966 0.000185387 56.0714 0H56.0651C55.7342 0 55.4101 0.0282785 55.0943 0.0813467V3.49258L52.6816 1.08046C52.4159 1.26957 52.1665 1.48063 51.9361 1.7114L51.935 1.7125C51.7046 1.94311 51.4937 2.19248 51.3046 2.45803L53.7173 4.86978H50.3055C50.3055 4.86978 50.2243 5.51064 50.2243 5.8419V5.84594C50.2243 6.1772 50.2524 6.50186 50.3057 6.81788H53.7175L51.3044 9.22945C51.6839 9.76199 52.1496 10.2276 52.6822 10.607L55.0945 8.19526V11.6067C55.4099 11.6596 55.7335 11.6875 56.064 11.6878H56.0723C56.3972 11.6875 56.7214 11.6604 57.0418 11.6067V8.19526L59.4543 10.6076C59.7201 10.4183 59.9696 10.2072 60.2004 9.97663H60.201C60.4313 9.74578 60.6421 9.49623 60.8312 9.23055L58.4194 6.81806H61.8312C61.8841 6.50222 61.912 6.17867 61.912 5.84815V5.8397C61.912 5.51468 61.8848 5.19058 61.8312 4.87015V4.86978H61.831ZM57.3065 7.0814C57.455 6.68708 57.5311 6.26917 57.5311 5.8478L57.5307 5.84761H57.5301V5.8421C57.5303 5.4206 57.4543 5.00254 57.3056 4.60813C56.9218 4.46325 56.506 4.38356 56.0716 4.38356H56.0668C55.6452 4.38329 55.227 4.45937 54.8325 4.60813C54.6881 4.99191 54.6084 5.40783 54.6084 5.8421V5.84761C54.6084 6.26913 54.6846 6.68719 54.8334 7.08158C55.2278 7.23013 55.6459 7.30621 56.0674 7.30616H56.0725C56.494 7.30608 56.912 7.22994 57.3065 7.0814ZM67.5385 29.7125C66.5645 28.7977 66.0541 27.354 66.007 25.3826L66.0067 25.3824L66.0063 25.3819H78.2926C78.3201 25.0713 78.3435 24.7603 78.3627 24.4491C78.3861 24.0855 78.3986 23.7395 78.3986 23.4108C78.3986 22.2136 78.2337 21.1048 77.9053 20.0835C77.5766 19.0631 77.0955 18.183 76.462 17.4435C75.8281 16.7042 75.0417 16.1232 74.1033 15.7009C73.1643 15.2786 72.073 15.067 70.8293 15.067C69.3735 15.067 68.1121 15.3197 67.0447 15.8243C65.9767 16.3289 65.0909 17.0092 64.3865 17.8662C63.6832 18.7228 63.1599 19.7322 62.8202 20.8933C62.4798 22.0553 62.3097 23.3052 62.3097 24.643C62.3097 26.0042 62.4862 27.2541 62.838 28.3921C63.19 29.5306 63.7477 30.5165 64.5103 31.3494C65.2731 32.1821 66.2412 32.8276 67.4149 33.2857C68.5877 33.743 69.9962 33.9725 71.6396 33.9725C72.7654 33.9725 73.7921 33.8899 74.7198 33.7261C75.6462 33.5614 76.4976 33.316 77.2716 32.9866C77.2464 32.4826 77.1758 31.9819 77.0605 31.4906C76.9429 30.986 76.7905 30.5576 76.6032 30.2056C75.1012 30.7923 73.5168 31.0861 71.851 31.0861C69.9499 31.0861 68.5121 30.6277 67.5385 29.7125ZM55.0937 18.2362H52.8051C52.7581 18.0489 52.723 17.8317 52.6997 17.5851C52.6531 17.1051 52.6531 16.6218 52.6997 16.1418C52.723 15.8957 52.7581 15.6787 52.8051 15.4903H58.5086V33.5505C58.223 33.6002 57.9352 33.6352 57.6461 33.6556C57.3589 33.6776 57.071 33.6892 56.783 33.6904C56.5071 33.6887 56.2314 33.677 55.9563 33.6556C55.6673 33.6351 55.3796 33.5998 55.0942 33.55V18.2359L55.0937 18.2362ZM74.9495 22.777C74.9495 22.1196 74.8614 21.492 74.6859 20.893C74.5096 20.2949 74.2507 19.7729 73.9113 19.3267C73.5703 18.8812 73.1364 18.5229 72.6083 18.2532C72.0804 17.9833 71.4524 17.8481 70.7248 17.8481C69.2933 17.8481 68.1959 18.2829 67.4333 19.1509C66.6705 20.0191 66.2073 21.2278 66.0427 22.777H74.9495ZM82.2374 15.491C82.4825 15.4465 82.7291 15.4114 82.9767 15.3856C83.2109 15.3626 83.4578 15.3507 83.716 15.3507C83.9742 15.3507 84.232 15.3626 84.4905 15.3856C84.7485 15.4095 84.9834 15.4447 85.1948 15.491C85.2645 15.8432 85.335 16.3072 85.4052 16.8816C85.4755 17.4567 85.5113 17.9433 85.5113 18.3425C86.004 17.5449 86.6553 16.852 87.4648 16.2652C88.2745 15.6788 89.313 15.385 90.5802 15.385C90.7678 15.385 90.9614 15.3913 91.161 15.403C91.3317 15.4122 91.5025 15.4295 91.6715 15.4554C91.7181 15.6669 91.7541 15.8902 91.7772 16.1245C91.8004 16.359 91.8121 16.6056 91.8121 16.8636C91.8121 17.1455 91.7947 17.4391 91.7596 17.7435C91.7257 18.0378 91.6847 18.3312 91.6366 18.6235C91.4464 18.5767 91.2512 18.553 91.0554 18.5532H90.5798C89.9463 18.5532 89.3418 18.6413 88.7668 18.817C88.1914 18.9933 87.6754 19.3044 87.2178 19.7499C86.7605 20.1961 86.3964 20.8064 86.127 21.581C85.8565 22.3555 85.7219 23.353 85.7219 24.5732V33.5507C85.4364 33.6003 85.1485 33.6357 84.8593 33.6561C84.5429 33.6796 84.2551 33.691 83.9971 33.691C83.7093 33.6898 83.4215 33.6782 83.1345 33.6561C82.8337 33.6342 82.5341 33.5991 82.2365 33.5509V15.4912L82.2374 15.491ZM0.000127054 33.0578L0 33.058V33.0575L0.000127054 33.0578ZM0.176282 33.5507L0.000127054 33.0578L9.50526 18.2717H1.12637C1.05622 17.8493 1.02115 17.3803 1.02115 16.8638C1.02115 16.3711 1.05677 15.913 1.1271 15.4903H14.6806L14.8569 15.9488L5.28129 30.7697H14.2581C14.3284 31.2392 14.3638 31.7199 14.3638 32.2126C14.3638 32.6827 14.3286 33.1284 14.2583 33.5507H0.176282ZM27.4248 25.0658C27.0728 25.0193 26.6268 24.9728 26.0871 24.9253C25.5472 24.8788 25.0897 24.855 24.7147 24.855C23.2593 24.855 22.1503 25.1249 21.3881 25.6648C20.6248 26.205 20.2441 27.026 20.2441 28.129C20.2441 28.833 20.3726 29.3847 20.631 29.7835C20.8888 30.1831 21.2118 30.4875 21.5991 30.6989C21.9865 30.9101 22.4144 31.0393 22.8836 31.0863C23.3527 31.1332 23.7989 31.1565 24.2213 31.1565C24.7611 31.1565 25.3184 31.1271 25.8936 31.0683C26.4683 31.0101 26.9788 30.9218 27.425 30.8045V25.0658H27.4248ZM26.3676 18.7638C27.0715 19.3036 27.4235 20.2659 27.4235 21.6511L27.4231 21.6513V22.3203C27.0944 22.2733 26.6894 22.2321 26.2086 22.1972C25.7273 22.162 25.1113 22.144 24.3602 22.144C23.351 22.144 22.3892 22.2674 21.4736 22.514C20.5582 22.7601 19.7486 23.1361 19.0446 23.64C18.3481 24.1363 17.7758 24.7869 17.3721 25.5409C16.9614 26.3041 16.7561 27.1902 16.7561 28.1991C16.7561 29.232 16.9322 30.1119 17.284 30.8396C17.6366 31.567 18.1345 32.1656 18.7805 32.6346C19.4258 33.1047 20.2121 33.4442 21.1394 33.6559C22.066 33.8673 23.105 33.9725 24.2548 33.9725C25.458 33.9736 26.6592 33.8735 27.8457 33.6732C29.019 33.4736 30.0161 33.28 30.838 33.0924V21.7916C30.838 19.445 30.2273 17.7379 29.0073 16.6692C27.7867 15.6014 26.0031 15.067 23.6564 15.067C22.7641 15.067 21.8372 15.1375 20.875 15.2786C19.9122 15.4194 19.0323 15.6188 18.2354 15.8766C18.2354 16.9569 18.4575 17.8833 18.9038 18.6578C19.5911 18.4453 20.2908 18.275 20.9989 18.1479C21.7145 18.019 22.4826 17.954 23.3047 17.954C24.6425 17.954 25.6632 18.2239 26.3676 18.7638ZM38.126 30.5917C38.5704 30.7559 39.0305 30.8739 39.499 30.9439C39.9683 31.0146 40.578 31.0496 41.3297 31.0496C42.1744 31.0496 42.9486 30.915 43.6526 30.6451C44.357 30.3757 44.9611 29.9587 45.4658 29.3952C45.9704 28.8322 46.3692 28.1226 46.6626 27.2651C46.9559 26.409 47.103 25.3943 47.103 24.2202C47.103 22.3428 46.7563 20.8525 46.0644 19.7492C45.3716 18.6464 44.2391 18.0948 42.6673 18.0948C42.0806 18.0948 41.5169 18.2002 40.9779 18.4117C40.4373 18.6229 39.9566 18.9398 39.5341 19.3622C39.1117 19.7845 38.7715 20.3189 38.5135 20.9641C38.2545 21.6101 38.126 22.378 38.126 23.2701V30.5917ZM35.3617 15.384C35.1193 15.4073 34.8788 15.4423 34.64 15.4894L34.6395 15.4895V41.8583C34.9249 41.9082 35.2127 41.9434 35.5018 41.9639C35.7887 41.9859 36.0763 41.9976 36.3641 41.9988C36.6223 41.9988 36.91 41.9869 37.2272 41.9639C37.5276 41.942 37.827 41.9067 38.1244 41.8583V33.5852C38.5236 33.702 38.9925 33.796 39.5328 33.8667C40.0726 33.937 40.6004 33.9723 41.1169 33.9723C44.1914 33.9723 46.567 33.0984 48.2453 31.3497C49.9237 29.6016 50.7628 27.1777 50.7628 24.08C50.7628 22.5313 50.581 21.1878 50.2175 20.0486C49.8533 18.9107 49.3489 17.9718 48.7038 17.2323C48.058 16.4929 47.284 15.9481 46.381 15.5955C45.477 15.2433 44.4969 15.067 43.4411 15.067C42.7369 15.067 42.0973 15.1498 41.5226 15.314C40.9473 15.4785 40.4313 15.7013 39.9737 15.9831C39.5161 16.2644 39.1226 16.5812 38.7939 16.9334C38.4652 17.2854 38.1833 17.6495 37.9492 18.0247C37.9492 17.9544 37.9315 17.79 37.8963 17.5315C37.861 17.274 37.826 17.0035 37.7907 16.7217C37.7553 16.4404 37.72 16.1765 37.6851 15.9299C37.6499 15.6833 37.6201 15.5373 37.597 15.4895C37.3619 15.4433 37.1155 15.4078 36.8577 15.384C36.599 15.3612 36.3527 15.3491 36.1188 15.3491C35.866 15.349 35.6134 15.3607 35.3617 15.384Z" fill="white"/>
</svg>
