<svg width="56" height="56" viewBox="0 0 56 56" fill="none" xmlns="http://www.w3.org/2000/svg">
<path fill-rule="evenodd" clip-rule="evenodd" d="M47.7989 47.7989C42.5102 53.0873 35.479 56 27.9999 56C20.521 56 13.4897 53.0873 8.20111 47.7989C2.91254 42.5103 0 35.479 0 27.9999C0 12.5607 12.5607 0 27.9999 0C35.479 0 42.5103 2.91254 47.7989 8.20111C53.0873 13.4897 56 20.521 56 27.9999C56 35.479 53.0873 42.5103 47.7989 47.7989ZM0.968931 28.0003C0.968931 20.7803 3.78071 13.9921 8.88628 8.88654C13.9919 3.78085 20.7799 0.969184 28.0001 0.969184C35.2203 0.969184 42.0084 3.78085 47.1139 8.88654C52.2195 13.9921 55.0312 20.7802 55.0312 28.0003C55.0312 42.9055 42.9051 55.0316 28.0001 55.0316C20.7799 55.0316 13.9919 52.2198 8.88628 47.1143C3.78071 42.0086 0.968931 35.2205 0.968931 28.0003ZM27.9999 44.5549C18.8569 44.5549 11.4449 37.1429 11.4449 27.9999C11.4449 18.8569 18.8569 11.4449 27.9999 11.4449C37.1428 11.4449 44.5549 18.8569 44.5549 27.9999C44.5549 37.1429 37.1429 44.5549 27.9999 44.5549ZM28.0001 2.08319C13.6866 2.08319 2.08294 13.6869 2.08294 28.0003C2.08294 42.3138 13.6866 53.9175 28.0001 53.9175C42.3135 53.9175 53.9172 42.3138 53.9172 28.0003C53.9172 13.6869 42.3135 2.08319 28.0001 2.08319ZM28 28.0002H12.51C12.51 19.4456 19.4452 12.5103 28 12.5103V28.0002ZM28 43.4903V28.0002H43.4899C43.4899 36.5551 36.5547 43.4903 28 43.4903ZM15.8341 12.2047C15.2854 11.6713 14.4371 11.5106 13.6408 12.0043C13.7929 11.6101 13.7308 11.2078 13.65 10.9859C13.3274 10.3977 13.2023 10.2933 12.9535 10.0857L12.9044 10.0447C11.9891 9.27667 11.0258 9.93237 10.3369 10.7534L7.0081 14.7204L12.2408 19.1113L15.7512 14.9279C16.5533 13.972 16.6773 13.0243 15.8341 12.2047ZM28.8672 10.3197L30.6642 5.55654V10.3197H32.03V3.49797H29.978L28.1212 8.35697L26.2643 3.49797H24.2124V10.3197H25.5781V5.55654L27.3752 10.3197H28.8672ZM47.2297 13.1578L44.6583 16.7983L48.6447 14.9057L49.7002 16.2092L43.4257 19.2507L42.187 17.7086L44.6549 14.1001L44.6403 14.082L40.5975 15.7457L39.3466 14.2134L43.6263 8.70847L44.6818 10.0119L42.0018 13.5177L46.0973 11.7594L47.2297 13.1578ZM12.1559 11.7524C11.8192 11.47 11.2957 11.4586 11.0641 11.7348L9.06471 14.1174L10.3015 15.1553L12.2783 12.7995C12.5269 12.5034 12.526 12.063 12.1559 11.7524ZM12.497 16.9976L14.5812 14.5139C14.858 14.184 14.818 13.6701 14.4142 13.3314C14.0574 13.0319 13.5284 13.1143 13.2911 13.397L11.1901 15.901L12.497 16.9976Z" fill="white"/>
</svg>
