<svg width="101" height="41" viewBox="0 0 101 41" fill="none" xmlns="http://www.w3.org/2000/svg">
<path fill-rule="evenodd" clip-rule="evenodd" d="M0 40.701H100.986H101V0H0V40.701ZM50.5002 38.3594C22.3048 38.3594 1.96871 30.1876 1.96871 20.3498C1.96871 10.512 22.3192 2.34024 50.5002 2.34024C78.6812 2.34024 99.0173 10.512 99.0173 20.3498C99.0173 30.1876 78.6957 38.3594 50.5002 38.3594Z" fill="white"/>
<path d="M34.1444 12.5233C33.9273 12.9541 33.9273 13.3706 33.9273 13.8014V19.1871C33.9273 19.1871 36.8365 15.4387 37.5024 14.5482C38.0089 13.8876 38.6313 12.9541 38.6313 12.5233H48.1263C47.475 12.9541 46.7513 13.7296 46.1578 14.4477C45.6368 15.0796 42.6841 18.6557 42.6841 18.6557C42.6841 18.6557 47.0697 25.2764 47.6342 26.1238C47.9526 26.5834 48.3 27.0142 48.7053 27.402H37.7774C37.7774 26.9711 37.3576 26.0951 36.8944 25.4057C36.4313 24.7163 33.9273 20.9392 33.9273 20.9392V26.1238C33.9273 26.5546 33.9273 26.9711 34.1444 27.402H25.0402C25.2573 26.9711 25.2573 26.5546 25.2573 26.1238V13.8014C25.2573 13.3706 25.2573 12.9541 25.0402 12.5233H34.1444ZM67.8545 12.5233H50.283C50.5001 12.9541 50.5001 13.3706 50.5001 13.8014V26.1238C50.5001 26.5546 50.5001 26.9711 50.283 27.402H67.8545V23.2802C67.4202 23.4956 67.0005 23.4956 66.5663 23.4956H59.17V21.5424H66.2768V18.3972H59.17V16.4296H66.5663C67.0005 16.4296 67.4202 16.4296 67.8545 16.6307V12.5233ZM92.1998 26.1238C92.3446 26.5977 92.5906 27.0286 92.9091 27.402H83.3851C83.4286 26.9711 83.2693 26.5546 83.0956 26.1238C83.0956 26.1238 82.9509 25.7791 82.7483 25.2764L82.6614 25.061H77.1758L77.0889 25.2908C77.0889 25.2908 76.9297 25.7073 76.785 26.1381C76.6402 26.569 76.481 26.9855 76.5389 27.4163H69.0269C69.3308 27.0429 69.5624 26.6121 69.7071 26.1381L74.2086 13.8158C74.3678 13.385 74.527 12.9685 74.4691 12.5376H87.1629C87.0471 12.9685 87.2787 13.385 87.4379 13.8158C87.8142 14.7493 91.8814 25.2908 92.1998 26.1238ZM81.4601 21.9158L80.1285 18.469C80.0127 18.153 79.9114 17.8227 79.839 17.4924C79.7811 17.8227 79.6942 18.153 79.5785 18.469C79.535 18.6126 78.9705 20.1206 78.3192 21.9158H81.4601ZM20.5098 13.8014C20.5098 13.3706 20.5098 12.9541 20.7269 12.5233H10.8267C11.0438 12.9541 11.0438 13.3706 11.0438 13.8014V26.1238C11.0438 26.5546 11.0438 26.9711 10.8267 27.402H20.7269C20.5098 26.9711 20.5098 26.5546 20.5098 26.1238V13.8014ZM89.1603 13.7009C89.1313 14.778 89.9853 15.6828 91.0853 15.7115C92.1709 15.7403 93.0827 14.8929 93.1117 13.8014C93.1117 13.7727 93.1117 13.7296 93.1117 13.7009C93.1262 12.6381 92.2867 11.7621 91.2156 11.7477C91.1867 11.7477 91.1722 11.7477 91.1432 11.7477C90.0866 11.7046 89.2037 12.5233 89.1748 13.5717C89.1458 13.6148 89.1458 13.6578 89.1603 13.7009H89.1603ZM92.7064 13.7009C92.7353 14.5626 92.0406 15.2951 91.1722 15.3094C90.3037 15.3381 89.5655 14.6488 89.5511 13.7871C89.5511 13.7584 89.5511 13.7296 89.5511 13.6866C89.5221 12.8536 90.1734 12.1498 91.0129 12.1211C91.0564 12.1211 91.0853 12.1211 91.1287 12.1211C91.9827 12.1067 92.6919 12.7818 92.7064 13.6291C92.7064 13.6578 92.7064 13.6866 92.7064 13.7009ZM92.0985 14.8786H91.7077L91.2445 14.0456H90.7379V14.8786H90.3906V12.5233H91.2735C91.6932 12.5376 92.0117 12.8679 92.0117 13.2844C92.0117 13.5717 91.8524 13.8302 91.5919 13.9738L92.0985 14.8786ZM91.2156 13.7009C91.4472 13.7153 91.6498 13.5429 91.6498 13.3131C91.6498 13.0834 91.4906 12.8823 91.259 12.8823C91.2445 12.8823 91.2301 12.8823 91.2156 12.8823H90.7379V13.7153H91.2156" fill="white"/>
</svg>
