<svg width="85" height="56" viewBox="0 0 85 56" fill="none" xmlns="http://www.w3.org/2000/svg">
<path fill-rule="evenodd" clip-rule="evenodd" d="M32.007 32.4092L35.7075 20.5307L27.9838 14.5918L7.99512 34.1819H29.4744L31.9903 32.4636L32.007 32.4092Z" fill="#FFFFFE"/>
<path fill-rule="evenodd" clip-rule="evenodd" d="M56.7831 14.5918L49.061 20.5302L52.7724 32.4599L55.293 34.1814H76.7717L56.7831 14.5918Z" fill="#FFFFFE"/>
<path fill-rule="evenodd" clip-rule="evenodd" d="M53.181 7.84435L45.0287 7.8245L42.3837 0L39.7368 7.8245L31.5864 7.84435L38.1035 12.8557L35.7099 20.5386L42.3837 15.967L49.055 20.5386L46.665 12.8557L53.181 7.84435Z" fill="#FFFFFE"/>
<mask id="mask0" mask-type="alpha" maskUnits="userSpaceOnUse" x="0" y="25" width="56" height="31">
<path fill-rule="evenodd" clip-rule="evenodd" d="M0 25.3643H55.293V55.7919H0V25.3643Z" fill="white"/>
</mask>
<g mask="url(#mask0)">
<path fill-rule="evenodd" clip-rule="evenodd" d="M42.4122 25.3831L42.3845 25.3643L29.4756 34.1816H55.2935L42.4122 25.3831Z" fill="#FFFFFE"/>
<path fill-rule="evenodd" clip-rule="evenodd" d="M-0.00537109 43.8609V42.6136H2.09998V39.9102L3.65952 39.2344V42.6136H6.31068V43.8609H3.65952V52.2823C3.65952 54.0236 3.84127 54.4404 5.08905 54.4404C5.60871 54.4404 5.97277 54.4142 6.31068 54.362V55.7138C5.84266 55.7659 5.32301 55.792 4.82894 55.792C2.72359 55.792 2.09998 54.8561 2.09998 53.2444V43.8609H-0.00537109Z" fill="#FFFFFE"/>
</g>
<path fill-rule="evenodd" clip-rule="evenodd" d="M15.5367 48.2534C15.5367 45.3421 15.0694 43.5997 12.5738 43.5997C10.0789 43.5997 9.61089 45.3421 9.61089 48.2534H15.5367ZM9.61188 49.5016V50.5149C9.61188 52.3345 10.1054 54.7517 12.5748 54.7517C14.5245 54.7517 15.4861 53.5044 15.4599 51.737H17.0973C16.9156 54.9084 15.2004 56 12.5748 56C10.3138 56 8.05225 55.0901 8.05225 51.1134V47.8899C8.05225 44.0949 9.63794 42.3535 12.5748 42.3535C17.0973 42.3535 17.0973 45.6022 17.0973 49.5016H9.61188Z" fill="#FFFFFE"/>
<path fill-rule="evenodd" clip-rule="evenodd" d="M25.7816 46.3825C25.8594 44.7446 25.2614 43.6007 23.4683 43.6007C22.5063 43.6007 21.7009 44.1471 21.363 45.1091C21.1545 45.7066 20.9989 47.5001 20.9989 49.2415C20.9989 51.6065 20.9989 54.7517 23.416 54.7517C25.4697 54.7517 25.7293 53.4522 25.8072 51.8665H27.3667C27.4967 55.4014 25.0018 56 23.7801 56C19.3354 56 19.3354 52.4901 19.3354 49.2415C19.3354 47.9421 19.3872 45.8884 19.7251 44.9013C20.4009 43.0294 21.8827 42.3535 23.6762 42.3535C25.9372 42.3535 27.4707 43.6269 27.3411 46.3825H25.7816Z" fill="#FFFFFE"/>
<path fill-rule="evenodd" clip-rule="evenodd" d="M30.0439 55.7397V36.9727H31.6035V44.2253H31.6557C32.4094 43.1337 33.4231 42.3533 34.8265 42.3533C38.0758 42.3533 38.4137 44.7705 38.4137 46.4858V55.7397H36.8541V46.564C36.8541 45.0306 36.256 43.6006 34.4369 43.6006C33.033 43.6006 31.6035 44.5627 31.6035 47.5V55.7397H30.0439Z" fill="#FFFFFE"/>
<path fill-rule="evenodd" clip-rule="evenodd" d="M45.069 56C42.2361 56 41.1184 54.6221 41.144 51.8405H42.7297C42.7297 53.634 43.1459 54.83 45.1473 54.83C46.6547 54.83 47.3827 53.9724 47.3827 52.5163C47.3827 49.0859 41.4819 49.9696 41.4819 45.6283C41.4819 43.2112 43.1459 42.3535 45.4325 42.3535C48.0325 42.3535 48.864 44.1471 48.864 46.1485H47.3305C47.2521 44.4845 46.8103 43.6007 45.0428 43.6007C43.9252 43.6007 43.0414 44.3289 43.0414 45.4988C43.0414 48.7735 48.9422 47.8899 48.9422 52.2823C48.9422 54.7517 47.5122 56 45.069 56Z" fill="#FFFFFE"/>
<path fill-rule="evenodd" clip-rule="evenodd" d="M50.5293 43.8609V42.6136H52.6342V39.9102L54.1937 39.2344V42.6136H56.8449V43.8609H54.1937V52.2823C54.1937 54.0236 54.3755 54.4404 55.6238 54.4404C56.1429 54.4404 56.5075 54.4142 56.8449 54.362V55.7138C56.377 55.7659 55.8567 55.792 55.3637 55.792C53.2578 55.792 52.6342 54.8561 52.6342 53.2444V43.8609H50.5293Z" fill="#FFFFFE"/>
<path fill-rule="evenodd" clip-rule="evenodd" d="M65.605 49.0337C63.3696 49.1121 59.9914 48.852 59.9914 52.0484C59.9914 53.5307 60.7445 54.7518 62.3564 54.7518C64.1499 54.7518 65.605 53.14 65.605 51.4248V49.0337ZM65.7097 54.128H65.6575C64.826 55.3753 63.5526 56 61.9409 56C59.601 56 58.3276 54.4143 58.3276 52.1266C58.3276 47.5264 62.954 47.9943 65.6052 47.7864V46.6949C65.6052 44.7707 65.0338 43.6007 62.954 43.6007C61.5251 43.6007 60.3812 44.3027 60.3812 45.8622H58.7173C58.8479 43.3417 60.797 42.3535 63.0846 42.3535C64.4103 42.3535 67.1648 42.4841 67.1648 45.8362V52.439C67.1648 53.374 67.1648 54.2064 67.3215 55.7399H65.7097V54.128Z" fill="#FFFFFE"/>
<path fill-rule="evenodd" clip-rule="evenodd" d="M71.8696 44.3811H71.9218C72.5716 43.1338 73.9494 42.3535 75.535 42.3535V43.9392C73.3257 43.7575 71.8696 45.083 71.8696 47.2923V55.7399H70.3101V42.6136H71.8696V44.3811Z" fill="#FFFFFE"/>
<path fill-rule="evenodd" clip-rule="evenodd" d="M80.7863 56C77.9534 56 76.8356 54.6221 76.8618 51.8405H78.4475C78.4475 53.634 78.8633 54.83 80.8646 54.83C82.372 54.83 83.1 53.9724 83.1 52.5163C83.1 49.0859 77.1991 49.9696 77.1991 45.6283C77.1991 43.2112 78.8633 42.3535 81.1498 42.3535C83.7498 42.3535 84.5813 44.1471 84.5813 46.1485H83.0478C82.9695 44.4845 82.5276 43.6007 80.7602 43.6007C79.6425 43.6007 78.7588 44.3289 78.7588 45.4988C78.7588 48.7735 84.6596 47.8899 84.6596 52.2823C84.6596 54.7517 83.2296 56 80.7863 56Z" fill="#FFFFFE"/>
</svg>
