<svg width="101" height="36" viewBox="0 0 101 36" fill="none" xmlns="http://www.w3.org/2000/svg">
<path fill-rule="evenodd" clip-rule="evenodd" d="M18.1096 0.00101751L18.0486 0H17.0023L16.9413 0.00101751L16.6551 0.0128586C7.23147 0.478522 -0.155363 8.34067 0.00248314 17.8088C0.161924 27.3726 7.96034 35.0421 17.5255 35.0421L17.7966 35.04L18.0866 35.033C21.9473 34.9083 25.5799 33.5342 28.5123 31.1713C31.5988 33.6559 35.4424 35.0421 39.4976 35.0421L39.7688 35.04L40.0588 35.033C43.9195 34.9083 47.5521 33.5342 50.4844 31.1713C53.5709 33.6559 57.4146 35.0421 61.4698 35.0421L61.741 35.04L62.0309 35.033C65.8917 34.9083 69.5242 33.5342 72.4566 31.1713C75.5431 33.6559 79.3867 35.0421 83.442 35.0421C93.0071 35.0421 100.806 27.3726 100.965 17.8088C101.124 8.24503 93.586 0.319855 84.0261 0.00101751L83.9651 0H82.9188L82.8431 0.00156531L82.5868 0.0121692L82.2904 0.0292857C78.6407 0.270508 75.2316 1.62409 72.456 3.86178C69.5272 1.50249 65.9058 0.129482 62.054 0.00101751L61.9929 0H60.9466L60.871 0.00156531L60.6147 0.0121692L60.3182 0.0292857C56.6685 0.270508 53.2595 1.62409 50.4838 3.86178C47.555 1.50249 43.9336 0.129482 40.0818 0.00101751L40.0208 0H38.9745L38.8988 0.00156531L38.6425 0.0121692L38.3461 0.0292857C34.6963 0.270508 31.2873 1.62409 28.5117 3.86178C25.5829 1.50249 21.9614 0.129482 18.1096 0.00101751ZM17.0364 3.66174H18.012L18.247 3.67176L18.5226 3.68875C21.1812 3.87884 23.6782 4.81828 25.7696 6.36859L25.8958 6.46423L25.7726 6.61791L25.6041 6.83322C23.2145 9.93659 21.9075 13.7775 21.9747 17.8085L21.9813 18.0821L21.9932 18.3758C22.174 22.0905 23.5165 25.583 25.7787 28.4236L25.8964 28.5693L25.7698 28.6651L25.5536 28.8222C23.3047 30.4234 20.6014 31.3323 17.7526 31.378L17.5108 31.3799L17.2847 31.378C9.83628 31.2583 3.7889 25.2372 3.66404 17.7475L3.66208 17.5209L3.66367 17.2997C3.77355 10.0113 9.53158 4.03108 16.837 3.67009L17.0364 3.66174ZM39.9841 3.66174H39.0116L38.8085 3.67011C36.1286 3.80253 33.6021 4.69547 31.4797 6.20355L31.2616 6.36175L31.1262 6.46371L31.2528 6.62018C33.6361 9.61845 34.993 13.336 35.0491 17.2592L35.0508 17.5398L35.0484 17.8085C34.9846 21.6386 33.687 25.258 31.3985 28.2212L31.225 28.4422L31.1241 28.5661L31.2432 28.6561C33.4643 30.3058 36.1383 31.2641 38.9588 31.37L39.2322 31.3776L39.4829 31.3799L39.7247 31.378C42.5734 31.3323 45.2768 30.4234 47.5257 28.8222L47.7419 28.6651L47.8685 28.5693L47.7508 28.4236C45.4886 25.583 44.1461 22.0905 43.9653 18.3758L43.9534 18.0821L43.9468 17.8085C43.8796 13.7775 45.1865 9.93659 47.5762 6.83322L47.7447 6.61791L47.8679 6.46423L47.7416 6.36859C45.6503 4.81828 43.1533 3.87884 40.4947 3.68875L40.2191 3.67176L39.9841 3.66174ZM60.9829 3.66174H61.9554L62.1904 3.67176L62.466 3.68875C65.1246 3.87884 67.6217 4.81828 69.713 6.36859L69.8393 6.46423L69.716 6.61791L69.5476 6.83322C67.1579 9.93659 65.8509 13.7775 65.9181 17.8085L65.9248 18.0821L65.9366 18.3758C66.1174 22.0905 67.46 25.583 69.7221 28.4236L69.8398 28.5693L69.7132 28.6651L69.497 28.8222C67.2481 30.4234 64.5448 31.3323 61.696 31.378L61.4542 31.3799L61.2035 31.3776L60.9301 31.37C58.1097 31.2641 55.4356 30.3058 53.2145 28.6561L53.0954 28.5661L53.1964 28.4422L53.3699 28.2212C55.6583 25.258 56.9559 21.6386 57.0197 17.8085L57.0222 17.5398L57.0204 17.2592C56.9644 13.336 55.6075 9.61845 53.2241 6.62018L53.0975 6.46371L53.2329 6.36175L53.451 6.20355C55.5734 4.69547 58.1 3.80253 60.7799 3.67011L60.9829 3.66174ZM83.93 3.66174H82.9554L82.7523 3.67011C80.0724 3.80253 77.5459 4.69547 75.4235 6.20355L75.2054 6.36175L75.07 6.46371L75.1965 6.62018C77.5799 9.61845 78.9368 13.336 78.9929 17.2592L78.9946 17.5398L78.9922 17.8085C78.9283 21.6386 77.6308 25.258 75.3423 28.2212L75.1688 28.4422L75.0679 28.5661L75.187 28.6561C77.4084 30.3058 80.0843 31.2641 82.9152 31.37L83.1897 31.3775L83.4414 31.3798C91.0078 31.3798 97.1767 25.3129 97.3028 17.7475C97.4277 10.2578 91.5844 4.03845 84.1299 3.67009L83.93 3.66174ZM28.4611 9.12334L28.5115 9.05815C30.4041 11.5115 31.4397 14.5511 31.3864 17.7467C31.3358 20.7816 30.3088 23.6445 28.5084 25.9761C26.7183 23.6587 25.6864 20.7891 25.6356 17.7467C25.5829 14.5802 26.5992 11.5669 28.4611 9.12334ZM50.4839 9.05815L50.4336 9.12334C48.5716 11.5669 47.5553 14.5802 47.6081 17.7467C47.6588 20.7891 48.6908 23.6587 50.4809 25.9761C52.2813 23.6445 53.3083 20.7816 53.3589 17.7467C53.4121 14.5511 52.3766 11.5115 50.4839 9.05815ZM72.406 9.12334L72.4564 9.05815C74.349 11.5115 75.3846 14.5511 75.3313 17.7467C75.2807 20.7816 74.2538 23.6445 72.4533 25.9761C70.6632 23.6587 69.6313 20.7891 69.5806 17.7467C69.5278 14.5802 70.5441 11.5669 72.406 9.12334Z" fill="white"/>
</svg>
