<svg width="74" height="64" viewBox="0 0 74 64" fill="none" xmlns="http://www.w3.org/2000/svg">
<path d="M33.9022 12.5882C33.9022 12.5882 22.2381 1.08639 22.2342 1.08639C21.5408 0.383635 20.6009 0 19.5801 0H0V7.3463H21.4369C23.0701 7.3463 24.6071 7.97304 25.7627 9.11261C26.9183 10.2521 27.5539 11.764 27.5539 13.3783V34.5132H35V15.2054C35 14.2026 34.611 13.272 33.9022 12.5882Z" fill="white"/>
<path d="M54.4177 0C53.4007 0 52.4568 0.383635 51.7633 1.08639L40.0979 12.5882C39.3891 13.272 39 14.2026 39 15.2054V34.5132H46.4469V13.3783C46.4469 10.0508 49.1899 7.3463 52.5647 7.3463H74V0H54.4177Z" fill="white"/>
<path d="M4.85965 53.1045C3.7745 53.1045 2.65572 53.8602 2.13865 54.944L2.12126 54.9794H1.97518V53.3572H0.274414V63.7447H2.09923V59.0231C2.09923 56.3776 3.26554 54.6685 5.06833 54.6685C5.45788 54.6685 5.79757 54.7279 6.09204 54.8342V53.2371C5.70134 53.1594 5.41382 53.1045 4.85965 53.1045Z" fill="white"/>
<path d="M61.0827 54.1065C60.3975 53.4297 59.3645 53.1016 57.9234 53.1016C56.7374 53.1016 55.5803 53.4251 54.4836 54.0573L54.5775 55.5618C55.3821 54.925 56.5298 54.5306 57.6104 54.5306C58.5344 54.5306 59.1941 54.7387 59.6288 55.1674C60.0891 55.6201 60.3036 56.314 60.3036 57.3498V57.4173L60.2363 57.4127C59.4596 57.3715 58.9112 57.3715 58.153 57.3727C56.8579 57.3715 55.1166 57.7248 54.1091 58.7182C53.5514 59.2681 53.2686 59.9598 53.2686 60.7715C53.2686 61.7249 53.5468 62.4818 54.0952 63.0236C54.7433 63.6616 55.7855 63.9988 57.1095 63.9988C59.0144 63.9988 60.0126 62.9013 60.3534 62.4292L60.372 62.4029H60.5111V63.7416H62.1284V57.383C62.1284 55.8716 61.7876 54.8004 61.0827 54.1065ZM60.3036 58.7262V59.7174C60.3036 60.5417 60.0358 61.2448 59.5314 61.7512C58.9958 62.2874 58.2167 62.5698 57.2765 62.5709C56.7037 62.5709 56.109 62.3343 55.7229 61.9547C55.4018 61.6369 55.2302 61.2322 55.2302 60.7829C55.2302 58.8897 57.8573 58.6851 58.9877 58.6851C59.1975 58.6851 59.4109 58.6954 59.6161 58.7057C59.8213 58.716 60.0323 58.7262 60.2398 58.7262H60.3036Z" fill="white"/>
<path d="M13.6599 54.1065C12.9736 53.4297 11.9406 53.1016 10.4995 53.1016C9.31352 53.1016 8.15648 53.4251 7.05973 54.0573L7.15364 55.5618C7.95824 54.925 9.106 54.5306 10.1865 54.5306C11.1105 54.5306 11.7714 54.7387 12.205 55.1674C12.6652 55.6201 12.8797 56.314 12.8797 57.3498V57.4173L12.8125 57.4127C12.0369 57.3715 11.4885 57.3715 10.7291 57.3727C9.43525 57.3715 7.69274 57.7248 6.68642 58.7182C6.12761 59.2681 5.84473 59.9598 5.84473 60.7715C5.84473 61.7249 6.12297 62.4818 6.67251 63.0236C7.31943 63.6616 8.36169 63.9988 9.68567 63.9988C11.5905 63.9988 12.5887 62.9013 12.9296 62.4292L12.9493 62.4029H13.0872V63.7416H14.7057V57.383C14.7057 55.8716 14.3625 54.8004 13.6599 54.1065ZM12.8797 58.7262V59.7174C12.8797 60.5417 12.6119 61.2448 12.1076 61.7512C11.5731 62.2874 10.7929 62.5698 9.85262 62.5709C9.2799 62.5709 8.68515 62.3343 8.30024 61.9547C7.97794 61.6369 7.80752 61.2322 7.80752 60.7829C7.80752 58.8897 10.4346 58.6851 11.5638 58.6851C11.7737 58.6851 11.987 58.6954 12.1934 58.7057C12.3974 58.716 12.6084 58.7262 12.8159 58.7262H12.8797Z" fill="white"/>
<path d="M24.5869 54.0676C23.9365 53.4262 22.9986 53.1016 21.7986 53.1016C20.2926 53.1016 18.9095 53.8527 18.3588 54.9719L18.3414 55.0085H18.1953V53.3588H16.4331V63.744H18.2591V58.9435C18.2591 57.5957 18.5258 56.5267 19.0521 55.7676C19.6214 54.9468 20.4688 54.5306 21.5714 54.5306C23.242 54.6324 23.8936 55.7036 23.8936 58.3536V63.744H25.7196V57.5476C25.7196 55.9791 25.3382 54.8084 24.5869 54.0676Z" fill="white"/>
<path d="M42.375 57.7568C41.3676 57.3029 40.4157 56.8754 40.4157 55.8785C40.4157 55.0588 41.1774 54.5306 42.3565 54.5306C42.7866 54.5306 43.8637 54.7684 44.3703 55.0336L44.5222 53.5005C43.7153 53.2605 42.9965 53.1016 42.1478 53.1016C40.9305 53.1016 39.9416 53.4422 39.2888 54.0859C38.7347 54.6323 38.4541 55.3674 38.4541 56.2717C38.4541 57.8723 39.8558 58.5479 41.0928 59.1447C42.1084 59.6328 43.066 60.0958 43.066 60.9956C43.066 61.4025 42.9304 61.7432 42.6626 62.0073C42.1478 62.5149 41.3281 62.5698 41.0012 62.5698C40.4795 62.5698 39.4175 62.3491 38.6141 61.8678L38.519 63.4512C39.4674 63.9348 40.5421 63.9988 41.3757 63.9988C42.36 63.9988 43.2596 63.7233 43.9065 63.2203C44.6404 62.6498 45.0288 61.8095 45.0288 60.7875C45.0288 58.9503 43.619 58.317 42.375 57.7568Z" fill="white"/>
<path d="M51.3939 62.5705C50.9418 62.5705 50.5267 62.4047 50.2241 62.1075C49.867 61.7553 49.6792 61.242 49.6792 60.6236V54.7852H52.4999V53.3562H49.6792V50.3301L47.8521 50.9085V53.3562H45.4487V54.7852H47.8521V61.0168C47.8521 61.9634 48.1094 62.6962 48.6172 63.1958C49.1563 63.7285 49.9783 63.9983 51.0589 63.9983C51.6756 63.9983 52.2831 63.8348 52.6669 63.7274V62.2401C52.2912 62.4561 51.8646 62.5705 51.3939 62.5705Z" fill="white"/>
<path d="M71.7413 48.416V54.7826H71.5998L71.5813 54.7529C70.8938 53.6577 69.7252 53.1032 68.1079 53.1032C66.8732 53.1032 65.8472 53.4965 65.06 54.2728C64.1035 55.2159 63.5771 56.6667 63.5771 58.3564C63.5771 60.2324 64.1533 61.8764 65.1585 62.8664C65.9213 63.6198 66.9068 64.0005 68.087 64.0005C69.891 64.0005 71.1187 63.127 71.6659 62.3085L71.6845 62.2799H71.8236V63.7432H73.5673V48.416H71.7413ZM71.7413 58.5724C71.7413 59.8437 71.3007 61.0361 70.5622 61.7643C70.0196 62.3005 69.3414 62.5726 68.5461 62.5726C67.8308 62.5726 67.2094 62.3119 66.7016 61.7986C65.8054 60.892 65.5156 59.4607 65.5388 58.5118C65.5098 57.1731 65.8935 56.0025 66.5903 55.2994C67.0958 54.7906 67.7473 54.5323 68.5252 54.5323C69.3287 54.5323 70.0162 54.8078 70.5669 55.3508C71.3135 56.0871 71.7413 57.2611 71.7413 58.5724Z" fill="white"/>
<path d="M35.3461 48.416V54.7826H35.2046L35.1861 54.7529C34.4974 53.6577 33.3288 53.1032 31.7126 53.1032C30.4767 53.1032 29.4507 53.4965 28.6647 54.2728C27.7082 55.2159 27.1807 56.6667 27.1807 58.3564C27.1807 60.2324 27.758 61.8764 28.762 62.8664C29.5249 63.6198 30.5104 64.0005 31.6917 64.0005C33.4946 64.0005 34.7223 63.127 35.2695 62.3085L35.2881 62.2799H35.4284V63.7432H37.1709V48.416H35.3461ZM35.3461 58.5724C35.3461 59.8437 34.9043 61.0361 34.167 61.7643C33.6232 62.3005 32.945 62.5726 32.1509 62.5726C31.4344 62.5726 30.8141 62.3119 30.3063 61.7986C29.4101 60.892 29.1191 59.4607 29.1435 58.5118C29.1145 57.1731 29.4971 56.0025 30.195 55.2994C30.7005 54.7906 31.3509 54.5323 32.13 54.5323C32.9334 54.5323 33.6198 54.8078 34.1705 55.3508C34.9171 56.0871 35.3461 57.2611 35.3461 58.5724Z" fill="white"/>
</svg>
