<svg width="539" height="326" viewBox="0 0 539 326" fill="none" xmlns="http://www.w3.org/2000/svg">
<mask id="mask0" mask-type="alpha" maskUnits="userSpaceOnUse" x="0" y="0" width="539" height="326">
<rect width="539" height="326" rx="20" fill="#40929D"/>
<rect x="0.5" y="0.5" width="538" height="325" rx="19.5" stroke="white" stroke-opacity="0.05"/>
</mask>
<g mask="url(#mask0)">
<rect width="539" height="327" rx="20" fill="#015B67"/>
<rect x="0.5" y="0.5" width="538" height="326" rx="19.5" stroke="white" stroke-opacity="0.05"/>
<g opacity="0.75" filter="url(#filter0_d)">
<circle cx="483.456" cy="325.791" r="111.25" transform="rotate(150 483.456 325.791)" fill="url(#paint0_linear)"/>
<circle cx="483.456" cy="325.791" r="110.75" transform="rotate(150 483.456 325.791)" stroke="white" stroke-opacity="0.2"/>
</g>
<g opacity="0.75" filter="url(#filter1_di)">
<circle cx="371.545" cy="133.482" r="111.25" transform="rotate(150 371.545 133.482)" fill="url(#paint1_linear)"/>
</g>
<g opacity="0.75" filter="url(#filter2_di)">
<circle cx="372.206" cy="326.172" r="111.25" transform="rotate(-150 372.206 326.172)" fill="url(#paint2_linear)"/>
<circle cx="372.206" cy="326.172" r="110.75" transform="rotate(-150 372.206 326.172)" stroke="white" stroke-opacity="0.2"/>
</g>
<g opacity="0.75" filter="url(#filter3_di)">
<circle cx="482.795" cy="133.1" r="111.25" transform="rotate(-150 482.795 133.1)" fill="url(#paint3_linear)"/>
<circle cx="482.795" cy="133.1" r="110.75" transform="rotate(-150 482.795 133.1)" stroke="white" stroke-opacity="0.2"/>
</g>
<g opacity="0.75" filter="url(#filter4_di)">
<circle cx="537.75" cy="229.567" r="111.25" transform="rotate(90 537.75 229.567)" fill="url(#paint4_linear)"/>
<circle cx="537.75" cy="229.567" r="110.75" transform="rotate(90 537.75 229.567)" stroke="white" stroke-opacity="0.2"/>
</g>
<g opacity="0.75" filter="url(#filter5_di)">
<circle cx="315.25" cy="230.33" r="111.25" transform="rotate(90 315.25 230.33)" fill="url(#paint5_linear)"/>
<circle cx="315.25" cy="230.33" r="110.75" transform="rotate(90 315.25 230.33)" stroke="white" stroke-opacity="0.2"/>
</g>
<path d="M43.28 72H55.76C61.6 72 65.32 68.48 65.32 63.76C65.32 60.12 62.88 58.16 61 57.44C62.88 56.6 64.52 54.6 64.52 51.48C64.52 47.88 62 44.44 55.32 44.44H43.28V72ZM49.12 55.32V49.04H54.84C57.12 49.04 58.64 50.08 58.64 52.08C58.64 54.04 57.48 55.32 54.64 55.32H49.12ZM49.12 59.92H54.48C57.76 59.92 59.2 61.32 59.2 63.56C59.2 66.04 57.76 67.4 54.52 67.4H49.12V59.92ZM69.2788 72H75.0388V62.96C75.0388 57.28 77.5188 56.16 81.6788 56.28V50.8C78.1588 50.84 75.9588 52.56 75.0388 54.92C75.0388 53.8 74.9588 51.76 74.8788 51.28H69.2388C69.2788 53.04 69.2788 54.84 69.2788 56.92V72ZM102.909 62.88C102.989 62.28 102.989 61.84 102.989 61.12C102.989 55.96 100.549 50.8 93.4694 50.8C86.7894 50.8 83.4694 55.44 83.4694 61.96C83.4694 67.4 86.4294 72.48 93.2694 72.48C99.7494 72.48 102.029 68.32 102.749 65.8H97.0294C96.4694 67.04 95.7894 68 93.3894 68C90.5494 68 89.2294 65.48 89.2294 62.88H102.909ZM89.3494 59.36C89.5894 56.8 90.7094 54.92 93.4294 54.92C96.2294 54.92 97.1894 56.96 97.2294 59.36H89.3494ZM124.057 57.96C124.057 53 121.017 50.84 115.497 50.8C109.177 50.8 106.897 53.76 106.617 57.44H112.057C112.297 55.92 112.857 54.92 115.257 54.92C117.937 54.92 118.457 56.36 118.457 57.84V59.08H115.497C109.417 59.08 105.657 61.28 105.657 66C105.657 69.2 107.737 72.48 112.737 72.48C116.417 72.48 117.817 71.12 118.577 69.96C118.577 70.48 118.697 71.6 118.857 72H124.337C124.217 71.52 124.057 68.64 124.057 66.64V57.96ZM118.457 63.12C118.457 65.84 118.017 68.4 114.377 68.4C112.297 68.4 111.377 67.12 111.377 65.64C111.377 63.64 112.657 62.56 116.137 62.56H118.457V63.12ZM126.81 55.6H130.01V66.48C130.01 70.12 131.33 72.28 135.37 72.28C136.53 72.28 138.09 72.28 139.21 71.88V67.96C138.81 68 138.25 68 137.93 68C136.21 68 135.73 67.4 135.73 65.84V55.6H139.81V51.28H135.73V45.68H130.01V51.28H126.81V55.6ZM143.068 42.8V72H148.828V61C148.828 57.84 149.428 55.44 152.628 55.44C155.028 55.44 155.988 56.88 155.988 59.56V72H161.668V58.72C161.668 53.12 158.588 50.8 154.748 50.8C151.388 50.8 149.708 52.4 148.828 53.76V42.8H143.068ZM185.058 62.88C185.138 62.28 185.138 61.84 185.138 61.12C185.138 55.96 182.698 50.8 175.618 50.8C168.938 50.8 165.618 55.44 165.618 61.96C165.618 67.4 168.578 72.48 175.418 72.48C181.898 72.48 184.178 68.32 184.898 65.8H179.178C178.618 67.04 177.938 68 175.538 68C172.698 68 171.378 65.48 171.378 62.88H185.058ZM171.498 59.36C171.738 56.8 172.858 54.92 175.578 54.92C178.378 54.92 179.338 56.96 179.378 59.36H171.498ZM42.6 117H48.36V105.48C48.36 101.8 49.72 100.44 52.16 100.44C54.72 100.44 55.48 102.12 55.48 104.48V117H61.2V103.84C61.2 98.64 58.52 95.8 54.36 95.8C50.72 95.8 49.04 97.64 48.36 98.92C48.32 98.28 48.24 96.84 48.12 96.28H42.56C42.6 97.84 42.6 99.76 42.6 101.52V117ZM84.5109 107.88C84.5909 107.28 84.5909 106.84 84.5909 106.12C84.5909 100.96 82.1509 95.8 75.0709 95.8C68.3909 95.8 65.0709 100.44 65.0709 106.96C65.0709 112.4 68.0309 117.48 74.8709 117.48C81.3509 117.48 83.6309 113.32 84.3509 110.8H78.6309C78.0709 112.04 77.3909 113 74.9909 113C72.1509 113 70.8309 110.48 70.8309 107.88H84.5109ZM70.9509 104.36C71.1909 101.8 72.3109 99.92 75.0309 99.92C77.8309 99.92 78.7909 101.96 78.8309 104.36H70.9509ZM86.3831 96.28L92.2631 117H98.4231C100.263 109.56 101.383 104.88 101.703 102.28H101.743C102.223 105 103.183 109.16 104.903 117H111.023L117.183 96.28H111.503C109.103 106.48 108.463 109.56 108.023 111.68H107.983C107.703 109.48 106.983 106.48 104.663 96.28H99.3431C96.8231 106.36 96.2231 109.6 95.7831 111.92H95.7031C95.3031 109.32 94.3031 104.6 92.4231 96.28H86.3831ZM128.099 100.6H131.299V111.48C131.299 115.12 132.619 117.28 136.659 117.28C137.819 117.28 139.379 117.28 140.499 116.88V112.96C140.099 113 139.539 113 139.219 113C137.499 113 137.019 112.4 137.019 110.84V100.6H141.099V96.28H137.019V90.68H131.299V96.28H128.099V100.6ZM161.596 102.96C161.596 98 158.556 95.84 153.036 95.8C146.716 95.8 144.436 98.76 144.156 102.44H149.596C149.836 100.92 150.396 99.92 152.796 99.92C155.476 99.92 155.996 101.36 155.996 102.84V104.08H153.036C146.956 104.08 143.196 106.28 143.196 111C143.196 114.2 145.276 117.48 150.276 117.48C153.956 117.48 155.356 116.12 156.116 114.96C156.116 115.48 156.236 116.6 156.396 117H161.876C161.756 116.52 161.596 113.64 161.596 111.64V102.96ZM155.996 108.12C155.996 110.84 155.556 113.4 151.916 113.4C149.836 113.4 148.916 112.12 148.916 110.64C148.916 108.64 150.196 107.56 153.676 107.56H155.996V108.12ZM166.74 110.24C166.74 112.48 166.74 114.76 166.7 117H172.18C172.3 116.48 172.42 115.72 172.42 115.04C173.42 116.56 174.78 117.48 177.86 117.48C183.82 117.48 186.86 112.2 186.86 106.28C186.86 100.48 184.06 95.8 178.42 95.8C175.06 95.8 173.34 97.16 172.5 98.48V87.8H166.74V110.24ZM181.06 106.4C181.06 110.32 179.5 112.92 176.58 112.92C173.26 112.92 172.22 110.24 172.22 106.76C172.22 102.52 173.38 100.4 176.66 100.4C179.74 100.4 181.06 102.92 181.06 106.4Z" fill="white"/>
</g>
<defs>
<filter id="filter0_d" x="331.486" y="173.82" width="307.941" height="307.941" filterUnits="userSpaceOnUse" color-interpolation-filters="sRGB">
<feFlood flood-opacity="0" result="BackgroundImageFix"/>
<feColorMatrix in="SourceAlpha" type="matrix" values="0 0 0 0 0 0 0 0 0 0 0 0 0 0 0 0 0 0 127 0"/>
<feOffset dx="2" dy="2"/>
<feGaussianBlur stdDeviation="1"/>
<feColorMatrix type="matrix" values="0 0 0 0 0 0 0 0 0 0 0 0 0 0 0 0 0 0 0.1 0"/>
<feBlend mode="normal" in2="BackgroundImageFix" result="effect1_dropShadow"/>
<feBlend mode="normal" in="SourceGraphic" in2="effect1_dropShadow" result="shape"/>
</filter>
<filter id="filter1_di" x="217.575" y="-22.4885" width="307.941" height="309.941" filterUnits="userSpaceOnUse" color-interpolation-filters="sRGB">
<feFlood flood-opacity="0" result="BackgroundImageFix"/>
<feColorMatrix in="SourceAlpha" type="matrix" values="0 0 0 0 0 0 0 0 0 0 0 0 0 0 0 0 0 0 127 0"/>
<feOffset dy="-2"/>
<feGaussianBlur stdDeviation="1"/>
<feColorMatrix type="matrix" values="0 0 0 0 0 0 0 0 0 0 0 0 0 0 0 0 0 0 0.1 0"/>
<feBlend mode="normal" in2="BackgroundImageFix" result="effect1_dropShadow"/>
<feBlend mode="normal" in="SourceGraphic" in2="effect1_dropShadow" result="shape"/>
<feColorMatrix in="SourceAlpha" type="matrix" values="0 0 0 0 0 0 0 0 0 0 0 0 0 0 0 0 0 0 127 0" result="hardAlpha"/>
<feOffset dx="-2" dy="2"/>
<feGaussianBlur stdDeviation="1"/>
<feComposite in2="hardAlpha" operator="arithmetic" k2="-1" k3="1"/>
<feColorMatrix type="matrix" values="0 0 0 0 1 0 0 0 0 1 0 0 0 0 1 0 0 0 0.1 0"/>
<feBlend mode="normal" in2="shape" result="effect2_innerShadow"/>
</filter>
<filter id="filter2_di" x="216.236" y="172.202" width="309.941" height="309.941" filterUnits="userSpaceOnUse" color-interpolation-filters="sRGB">
<feFlood flood-opacity="0" result="BackgroundImageFix"/>
<feColorMatrix in="SourceAlpha" type="matrix" values="0 0 0 0 0 0 0 0 0 0 0 0 0 0 0 0 0 0 127 0"/>
<feOffset dx="-2" dy="2"/>
<feGaussianBlur stdDeviation="1"/>
<feColorMatrix type="matrix" values="0 0 0 0 0 0 0 0 0 0 0 0 0 0 0 0 0 0 0.1 0"/>
<feBlend mode="normal" in2="BackgroundImageFix" result="effect1_dropShadow"/>
<feBlend mode="normal" in="SourceGraphic" in2="effect1_dropShadow" result="shape"/>
<feColorMatrix in="SourceAlpha" type="matrix" values="0 0 0 0 0 0 0 0 0 0 0 0 0 0 0 0 0 0 127 0" result="hardAlpha"/>
<feOffset dx="2" dy="-2"/>
<feGaussianBlur stdDeviation="1"/>
<feComposite in2="hardAlpha" operator="arithmetic" k2="-1" k3="1"/>
<feColorMatrix type="matrix" values="0 0 0 0 1 0 0 0 0 1 0 0 0 0 1 0 0 0 0.1 0"/>
<feBlend mode="normal" in2="shape" result="effect2_innerShadow"/>
</filter>
<filter id="filter3_di" x="328.825" y="-22.8702" width="309.941" height="309.941" filterUnits="userSpaceOnUse" color-interpolation-filters="sRGB">
<feFlood flood-opacity="0" result="BackgroundImageFix"/>
<feColorMatrix in="SourceAlpha" type="matrix" values="0 0 0 0 0 0 0 0 0 0 0 0 0 0 0 0 0 0 127 0"/>
<feOffset dx="2" dy="-2"/>
<feGaussianBlur stdDeviation="1"/>
<feColorMatrix type="matrix" values="0 0 0 0 0 0 0 0 0 0 0 0 0 0 0 0 0 0 0.1 0"/>
<feBlend mode="normal" in2="BackgroundImageFix" result="effect1_dropShadow"/>
<feBlend mode="normal" in="SourceGraphic" in2="effect1_dropShadow" result="shape"/>
<feColorMatrix in="SourceAlpha" type="matrix" values="0 0 0 0 0 0 0 0 0 0 0 0 0 0 0 0 0 0 127 0" result="hardAlpha"/>
<feOffset dx="-2" dy="2"/>
<feGaussianBlur stdDeviation="1"/>
<feComposite in2="hardAlpha" operator="arithmetic" k2="-1" k3="1"/>
<feColorMatrix type="matrix" values="0 0 0 0 1 0 0 0 0 1 0 0 0 0 1 0 0 0 0.1 0"/>
<feBlend mode="normal" in2="shape" result="effect2_innerShadow"/>
</filter>
<filter id="filter4_di" x="424.5" y="116.317" width="228.5" height="226.5" filterUnits="userSpaceOnUse" color-interpolation-filters="sRGB">
<feFlood flood-opacity="0" result="BackgroundImageFix"/>
<feColorMatrix in="SourceAlpha" type="matrix" values="0 0 0 0 0 0 0 0 0 0 0 0 0 0 0 0 0 0 127 0"/>
<feOffset dx="2"/>
<feGaussianBlur stdDeviation="1"/>
<feColorMatrix type="matrix" values="0 0 0 0 0 0 0 0 0 0 0 0 0 0 0 0 0 0 0.1 0"/>
<feBlend mode="normal" in2="BackgroundImageFix" result="effect1_dropShadow"/>
<feBlend mode="normal" in="SourceGraphic" in2="effect1_dropShadow" result="shape"/>
<feColorMatrix in="SourceAlpha" type="matrix" values="0 0 0 0 0 0 0 0 0 0 0 0 0 0 0 0 0 0 127 0" result="hardAlpha"/>
<feOffset dx="-2"/>
<feGaussianBlur stdDeviation="1"/>
<feComposite in2="hardAlpha" operator="arithmetic" k2="-1" k3="1"/>
<feColorMatrix type="matrix" values="0 0 0 0 1 0 0 0 0 1 0 0 0 0 1 0 0 0 0.1 0"/>
<feBlend mode="normal" in2="shape" result="effect2_innerShadow"/>
</filter>
<filter id="filter5_di" x="200" y="117.08" width="228.5" height="226.5" filterUnits="userSpaceOnUse" color-interpolation-filters="sRGB">
<feFlood flood-opacity="0" result="BackgroundImageFix"/>
<feColorMatrix in="SourceAlpha" type="matrix" values="0 0 0 0 0 0 0 0 0 0 0 0 0 0 0 0 0 0 127 0"/>
<feOffset dx="-2"/>
<feGaussianBlur stdDeviation="1"/>
<feColorMatrix type="matrix" values="0 0 0 0 0 0 0 0 0 0 0 0 0 0 0 0 0 0 0.1 0"/>
<feBlend mode="normal" in2="BackgroundImageFix" result="effect1_dropShadow"/>
<feBlend mode="normal" in="SourceGraphic" in2="effect1_dropShadow" result="shape"/>
<feColorMatrix in="SourceAlpha" type="matrix" values="0 0 0 0 0 0 0 0 0 0 0 0 0 0 0 0 0 0 127 0" result="hardAlpha"/>
<feOffset dx="2"/>
<feGaussianBlur stdDeviation="1"/>
<feComposite in2="hardAlpha" operator="arithmetic" k2="-1" k3="1"/>
<feColorMatrix type="matrix" values="0 0 0 0 1 0 0 0 0 1 0 0 0 0 1 0 0 0 0.1 0"/>
<feBlend mode="normal" in2="shape" result="effect2_innerShadow"/>
</filter>
<linearGradient id="paint0_linear" x1="484.219" y1="437.041" x2="483.511" y2="327.037" gradientUnits="userSpaceOnUse">
<stop stop-color="#C5F4FF"/>
<stop offset="1" stop-color="#75E2DB"/>
</linearGradient>
<linearGradient id="paint1_linear" x1="371.545" y1="22.2318" x2="371.6" y2="134.728" gradientUnits="userSpaceOnUse">
<stop stop-color="#C5F4FF"/>
<stop offset="1" stop-color="#75E2D5"/>
</linearGradient>
<linearGradient id="paint2_linear" x1="371.737" y1="438.397" x2="372.261" y2="327.419" gradientUnits="userSpaceOnUse">
<stop stop-color="#C5F4FF"/>
<stop offset="1" stop-color="#75E2DB"/>
</linearGradient>
<linearGradient id="paint3_linear" x1="482.795" y1="21.8501" x2="482.85" y2="134.346" gradientUnits="userSpaceOnUse">
<stop stop-color="#C5F4FF"/>
<stop offset="1" stop-color="#75DBE2"/>
</linearGradient>
<linearGradient id="paint4_linear" x1="538.513" y1="340.817" x2="537.804" y2="230.813" gradientUnits="userSpaceOnUse">
<stop stop-color="#C5F4FF"/>
<stop offset="1" stop-color="#75CEE2"/>
</linearGradient>
<linearGradient id="paint5_linear" x1="315.25" y1="119.08" x2="315.305" y2="231.576" gradientUnits="userSpaceOnUse">
<stop stop-color="#C5F4FF"/>
<stop offset="1" stop-color="#75E2D5"/>
</linearGradient>
</defs>
</svg>
